<?xml version="1.0" encoding="UTF-8" standalone="no"?>
<svg
   version="1.0"
   width="1024.000000pt"
   height="1024.000000pt"
   viewBox="0 0 1024.000000 1024.000000"
   preserveAspectRatio="xMidYMid meet"
   id="svg72"
   sodipodi:docname="ramo2.svg"
   inkscape:version="1.2.2 (b0a8486541, 2022-12-01)"
   xmlns:inkscape="http://www.inkscape.org/namespaces/inkscape"
   xmlns:sodipodi="http://sodipodi.sourceforge.net/DTD/sodipodi-0.dtd"
   xmlns="http://www.w3.org/2000/svg"
   xmlns:svg="http://www.w3.org/2000/svg">
  <defs
     id="defs76" />
  <sodipodi:namedview
     id="namedview74"
     pagecolor="#ffffff"
     bordercolor="#000000"
     borderopacity="0.25"
     inkscape:showpageshadow="2"
     inkscape:pageopacity="0.0"
     inkscape:pagecheckerboard="0"
     inkscape:deskcolor="#d1d1d1"
     inkscape:document-units="pt"
     showgrid="false"
     inkscape:zoom="0.41894531"
     inkscape:cx="735.17949"
     inkscape:cy="642.08858"
     inkscape:window-width="1536"
     inkscape:window-height="779"
     inkscape:window-x="0"
     inkscape:window-y="0"
     inkscape:window-maximized="1"
     inkscape:current-layer="svg72" />
  <path
     d="m -324.52238,96.191666 c -0.8,1.8 -5.4,9.500004 -10.3,17.000004 -17.9,27.7 -22.2,39.7 -24.2,68.19999 -1.3,17.5 -1.6,19 -5.1,27.4 -7.5,18.2 -11.2,24.3 -20.4,34 -10.8,11.2 -20.7,22.6 -26.6,30.7 -2.5,3.4 -4.5,5.9 -4.5,5.7 0,-0.3 0.9,-4 2,-8.4 1.1,-4.3 2.5,-12.2 3,-17.4 1,-8.8 1.6,-10.7 8.1,-24.4 10.6,-22.2 12,-28.7 12.6,-57.3 0.5,-22.99999 -0.1,-34.79999 -1.7,-33.79999 -0.5,0.3 -2.1,4.2 -3.6,8.8 -1.4,4.5 -5.1,13.4 -8,19.79999 -2.9,6.3 -6.2,13.8 -7.3,16.6 -5,12.8 -6.2,28.6 -3.9,52 1,10.7 1,13.4 -0.5,22 -3.1,17.4 -7.3,29.8 -15,44.3 -3.9,7.4 -9.2,17.6 -11.7,22.6 l -4.6,9.1 0.2,-17.1 c 0.1,-16 0.3,-17.8 3.2,-27.6 5.3,-18.3 5.7,-21.1 5.7,-43.5 0,-20.4 -0.1,-21.5 -3.8,-39.5 -2.1,-10.2 -4.1,-19.3 -4.3,-20.3 -0.9,-2.9 -2.2,-1 -2.9,4.1 -1.4,9.6 -5.7,31 -8.3,40.7 -2.3,8.7 -2.6,11.9 -2.6,25.5 0,16.3 0,16.3 6.8,39.4 2.2,7.4 2.6,10.8 2.6,21 0,18.8 -1.5,28 -7.8,47.1 l -5.5,17 -1.8,-9 c -1.4,-6.8 -1.8,-13.3 -1.7,-27.5 0,-15.8 -0.2,-19.7 -2.1,-26.5 -3.3,-12.8 -22.9,-50 -27,-51.3 -2.9,-1 0.2,37.4 4.4,54.1 2.8,11.1 6.4,19.1 13.6,30.7 6.1,9.8 7.3,12.5 8.5,18.9 2.5,14.4 1.5,23.9 -4.9,45.1 -4.5,14.9 -10.7,41.6 -10.7,46.2 0,3.7 2.1,5.7 3.8,3.5 0.4,-0.7 1.7,-5.7 2.6,-11.2 3.5,-19.2 10.3,-44.2 13.7,-50.3 6.6,-11.8 25,-32.7 31.9,-36.2 1.9,-1 7.3,-2.6 12,-3.5 15.5,-3.1 26.7,-8 42.5,-18.4 26.6,-17.6 33.4,-22.6 32.4,-23.6 -0.2,-0.1 -4.7,0.5 -9.9,1.5 -5.2,1 -16.1,3 -24.2,4.4 -8.1,1.5 -17.1,3.5 -20,4.7 -12.3,4.8 -24.8,15 -32.2,26.1 -2,2.9 -6.4,7.9 -9.9,11 -3.6,3.1 -9.5,9.5 -13.3,14.2 -3.8,4.6 -7,8.3 -7.2,8.2 -0.1,-0.2 0.7,-2.8 1.9,-5.7 1.1,-3 5,-14 8.5,-24.4 3.6,-10.5 7.9,-21.4 9.7,-24.3 6.6,-11 24.5,-26.8 39.2,-34.6 4.5,-2.4 6,-2.6 16,-2.6 21.7,0 38.9,-3.5 57.9,-11.9 14.3,-6.3 34.5,-16.1 35,-17 0.4,-0.6 -15.1,-1.1 -45.4,-1.3 -22.3,-0.2 -38.2,6.3 -58.6,24.1 -2.3,2 -8.7,6.5 -14.4,10.1 -5.6,3.6 -13.2,9.2 -16.8,12.5 l -6.6,6 2.6,-4.5 c 1.4,-2.5 4.7,-8.6 7.4,-13.5 5.2,-9.7 20.8,-31.3 29.7,-41.1 6.2,-6.8 13.5,-11.1 28.8,-17 23.3,-9 30.3,-9.9 48.6,-6.2 12.5,2.6 34.3,3 45.3,0.9 12.1,-2.3 39,-12.2 39,-14.2 0,-0.5 -3.2,-0.9 -7.1,-0.9 -4.8,0 -11.4,-1.1 -21.2,-3.7 -12.3,-3.1 -15.8,-3.6 -26.2,-3.7 -14,-0.1 -20.4,1.5 -37.5,9.4 -5.8,2.7 -15.5,6.3 -21.6,7.9 -12.7,3.4 -21.6,6.6 -29.3,10.5 -2.9,1.5 -5.5,2.5 -5.7,2.3 -0.8,-0.8 26.2,-26.3 35.1,-33.1 20.4,-15.7 22.7,-17 39.1,-21 8.2,-1.9 19.5,-4.3 25.2,-5.2 l 10.2,-1.6 12.3,3.8 c 11.1,3.4 13.4,3.8 26.2,4.2 12.2,0.3 15.7,0 27,-2.2 15.2,-3.1 24.5,-5.6 24.5,-6.5 0,-0.4 -3.7,-1.2 -8.2,-1.9 -4.6,-0.6 -13.5,-2.7 -19.8,-4.7 -19.3,-6.1 -34.2,-6 -54.4,0.5 -5,1.6 -15.4,4.1 -23.1,5.5 -7.7,1.4 -16.9,3.4 -20.4,4.5 -3.5,1 -6,1.5 -5.5,1 0.5,-0.5 13.3,-6.6 28.4,-13.5 20,-9.2 30.9,-13.59999 40,-16.19999 18.5,-5.1 27.7,-8.1 34.4,-11.2 8.3,-3.7 23.5,-13.3 30.4,-19 3.1,-2.6 8.5,-6.6 12,-8.9 6.3,-4.3 7.2,-5.6 4.9,-6.5 -4.1,-1.6 -39.6,8.2 -53.3,14.7 -11.4,5.4 -15.6,8.3 -29.7,20.3 -12,10.2 -13,10.9 -35,20.69999 -8.2,3.7 -17.6,8.1 -21,9.9 -3.4,1.7 -6.6,3.4 -7.2,3.6 -0.5,0.2 0.9,-1.8 3.1,-4.5 2.3,-2.7 5.9,-7.8 8.2,-11.4 3.1,-4.89999 6.2,-8.09999 12.8,-12.99999 14.9,-11.2 24.3,-23.1 33.9,-43.2 5.9,-12.4 7.8,-18.000004 5.4,-16.200004 -0.8,0.6 -5.2,3.900004 -9.9,7.400004 -14,10.5 -18.8,14.9 -25.1,23.3 -6.8,9.1 -9.7,14.4 -12.8,23.8 -2.8,8.6 -14.1,26.39999 -21.7,34.09999 -3.2,3.3 -11.5,10.1 -18.4,15.1 -10.6,7.6 -22.4,16.7 -29.1,22.4 -2.9,2.5 9,-23.8 15.6,-34.2 12.4,-19.8 17.3,-31.49999 20.9,-49.79999 3,-15.3 5.8,-37.3 5.4,-42.300004 l -0.3,-3.9 z m 54.3,32.400004 c -5.3,7.5 -20.4,25 -18.8,21.8 2.5,-4.8 20.7,-27 22.1,-27 0.3,0 -1.2,2.4 -3.3,5.2 z m 76.1,2.7 c -1.9,1.6 -47,24.3 -45.5,22.8 2.8,-2.8 23.4,-14.1 34.5,-18.9 11.6,-5 12.5,-5.3 11,-3.9 z m -148.4,23.4 c -3.2,10.7 -8,23.79999 -9.3,25.19999 -0.6,0.6 -0.7,0.5 -0.4,-0.5 8.4,-26.49999 11.1,-33.99999 12,-33.99999 0.2,0 -0.8,4.2 -2.3,9.3 z m 114,30.79999 c 4.6,0.6 9.1,1.6 9.9,2.1 1,0.6 0.4,0.8 -2,0.4 -1.9,-0.3 -11.6,-1.1 -21.5,-1.7 -9.9,-0.6 -18.2,-1.3 -18.4,-1.5 -0.9,-0.9 24.1,-0.3 32,0.7 z m -172.5,7.1 c -0.8,5.7 -5.6,30.9 -6.2,32.7 -2.2,6.9 0.7,-13.8 4.2,-29.7 1.7,-7.8 3,-9.8 2,-3 z m 119.9,39.8 c -13,1 -42.5,0.9 -34,0 3.3,-0.4 14.6,-0.7 25,-0.7 16.3,0 17.6,0.1 9,0.7 z m -165.4,26.2 c -0.2,13.3 -0.7,21.3 -1.1,19.8 -1.5,-4.4 -0.3,-42 1.3,-42 0.1,0 0,10 -0.2,22.2 z m 115.8,21.2 c -0.2,0.2 -3.8,1.1 -7.9,1.9 -6.7,1.5 -32.9,7.4 -40.5,9.3 -1.6,0.4 -2.7,0.4 -2.4,0 1,-1.1 21.4,-6.6 33.9,-9.1 10.6,-2.2 17.9,-3.1 16.9,-2.1 z m -143.4,55 c 1.4,4.9 2.1,8.5 1.6,8 -1.1,-1.2 -6.9,-20.8 -7.6,-25.4 -0.6,-4.5 2.7,5.1 6,17.4 z m 87.5,3.8 c -1.4,0.6 -7.4,3.6 -13.5,6.6 -12.3,6.1 -19.5,9.3 -19.5,8.7 0,-0.6 23,-12.7 27.9,-14.6 4.9,-1.9 9.3,-2.5 5.1,-0.7 z"
     id="path48"
     style="fill:#000000;stroke:none;stroke-width:0.1" />
  <path
     d="m 1408.1958,101.63572 c 0,0.7 2,3.3 4.5,5.7 2.5,2.5 7.8,9.7 11.7,16 5.8,9.2 9.3,13.5 17.7,21.5 12.2,11.6 28.1,27.8 27.7,28.3 -0.2,0.1 -3.2,-1.4 -6.7,-3.4 -3.5,-2 -13.4,-7.1 -22,-11.5 -8.6,-4.3 -19.4,-10.4 -24,-13.5 -14.4,-9.8 -25.9,-14.2 -43.4,-16.4 -4.4,-0.6 -12.7,-1.6 -18.5,-2.4 -15.7,-2 -16.6,-0.9 -5.7,6.1 11.1,7.3 26.7,14.8 35.4,17.2 4.3,1.1 14.4,2.7 22.4,3.5 15.7,1.6 18.9,2.6 34.1,10.2 12.3,6.2 33,17.5 32.6,17.9 -0.6,0.6 -20.2,-2.3 -24.8,-3.6 -6.7,-1.8 -21.3,-1.6 -29.5,0.5 -13.3,3.4 -36.5,16.3 -36.5,20.2 0,1.8 0.5,1.8 10.3,-0.5 4.5,-1.1 14.3,-2.6 21.7,-3.5 10,-1.1 16.4,-2.5 24,-5.1 15.7,-5.3 17.9,-5.7 28.1,-4.4 17.3,2.1 22.9,4.5 51.4,21.7 12.5,7.5 36.5,24.4 36.5,25.7 0,0.2 -1.2,0 -2.7,-0.6 -1.6,-0.6 -9.1,-2.4 -16.8,-4 -7.7,-1.6 -17.8,-4 -22.5,-5.4 -4.7,-1.3 -11.2,-2.8 -14.4,-3.4 -7.5,-1.4 -25.7,-1.4 -32.7,-0.1 -5.6,1.1 -29.5,10.4 -41.3,16.1 -8.1,4 -10,6.5 -4,5.5 2.2,-0.4 13.8,-1.1 25.9,-1.6 16,-0.6 24.3,-1.4 30.5,-2.9 34,-8 38.1,-8.4 55.6,-5 13.4,2.6 24.5,6.1 30.6,9.6 8.9,5.3 43.5,37.7 37.8,35.4 -1.4,-0.5 -5.4,-2.1 -9,-3.6 -9.9,-3.9 -40.3,-12.3 -49.5,-13.7 -7.1,-1 -9.5,-0.9 -16.9,0.5 -15.5,3.1 -22.4,6.4 -49.3,23.5 -14.3,9.1 -13.8,10.6 2.7,7.8 4.7,-0.8 12.9,-1.9 18.2,-2.5 13.2,-1.5 23.2,-4.9 36.8,-12.6 14.3,-8 18.9,-9.2 29.3,-7 9.1,1.9 30.9,8.7 38.5,12.1 2.9,1.3 7.2,3.8 9.3,5.5 5.5,4.3 25,28.5 29.7,36.7 10.2,17.8 12.2,21.5 11.9,21.8 -0.2,0.2 -2.8,-1.7 -5.7,-4.2 -3,-2.5 -8,-5.9 -11,-7.6 -3,-1.7 -10,-6.1 -15.5,-9.6 -19.2,-12.6 -32.7,-17.2 -49.9,-17.2 -8.8,0 -11.3,0.4 -19.6,3.3 -12.8,4.4 -31.2,14.3 -30.8,16.5 0.3,1.2 1.1,1.6 2.8,1.3 1.4,-0.2 9.7,-0.4 18.5,-0.5 14.3,-0.1 17.4,0.3 29.5,2.9 12.6,2.8 14.9,3 34.5,3 h 21 l 5,2.8 c 13.5,7.4 26,18.6 31.3,27.9 3.8,6.6 17.2,37.7 17.2,39.8 0,0.4 -1.7,-0.9 -3.8,-2.9 -7.7,-7.3 -23.6,-20.7 -28.9,-24.3 -7.2,-4.9 -14.3,-7.5 -24.5,-8.9 -7.5,-1.1 -9.3,-1 -19.3,1 -16,3.2 -18.5,4 -18.5,5.6 0,1.6 0.4,1.7 11.9,3.4 5,0.8 11.4,2.9 19.5,6.5 13.7,6.1 17.3,7.1 32.8,9.1 13.1,1.8 16.3,3.1 24.2,10.6 11.1,10.4 15.6,20.7 24.9,57.4 3.8,14.6 4.6,17 6.3,17 1.6,0 1.9,-0.7 1.7,-4.7 -0.2,-8.8 -15.1,-55 -28.1,-87.4 -5.6,-14 -6.9,-19.7 -8.1,-36.4 -1.6,-21.7 -0.9,-25.1 8.8,-44.4 9,-17.9 11.5,-26 13.1,-42.4 0.5,-5.9 1.4,-15.9 2,-22.2 0.6,-6.3 1.4,-14.1 1.7,-17.3 0.7,-7.1 -1.2,-7.8 -4.7,-1.5 -1.3,2.4 -6.1,10 -10.7,16.9 -19.5,29.5 -24.5,50.5 -17.9,75.6 2,7.7 2.6,12.7 2.6,20.5 0.1,5.7 0.5,13.7 1,17.8 0.4,4.1 0.7,7.6 0.5,7.8 -0.1,0.2 -2.4,-3.9 -5,-9 -5.4,-10.5 -13.1,-24.5 -19.9,-36.3 -5.5,-9.4 -8.2,-17.7 -9.6,-29.5 -2.1,-17.2 -1.9,-18.2 7.1,-38.4 10,-22.4 12.4,-29.4 15,-44.3 2.2,-12 3.9,-49.3 2.5,-54.8 -1,-3.8 -3.1,-3 -4.6,1.7 -1.8,6.1 -5,12.3 -12.5,23.7 -8,12.2 -12.7,22 -15.7,33.2 -3.4,12.5 -3.2,33.7 0.5,50.8 1.5,6.8 2.7,15.1 2.7,18.5 0.1,3.3 0.7,9.7 1.5,14.1 0.8,4.4 1.5,8.6 1.5,9.3 0,1.5 -16.6,-17.2 -25.1,-28.2 -5.2,-6.7 -12.3,-21.1 -17,-34.3 -2.3,-6.3 -2.4,-13.9 -0.4,-28.3 3,-22.1 1.4,-43.3 -4.5,-61.2 -4.8,-14.4 -12.8,-28.7 -15.2,-27.2 -0.6,0.4 -0.8,3.7 -0.3,9.3 0.5,6.4 0.1,12.7 -1.5,24.6 -3.3,24.2 -1.6,40.5 6.2,57.9 2.2,5 7.3,16.5 11.3,25.6 3.9,9.1 8.2,18.5 9.5,20.9 2.1,4.2 1.6,3.9 -9.1,-6.1 -6.3,-5.9 -17.2,-15.5 -24.4,-21.5 -13.7,-11.5 -18.1,-16.4 -29.8,-33.1 -10.3,-14.6 -11.1,-16.3 -16.7,-32.6 -7.9,-23.3 -18.2,-41.9 -28.2,-51.2 -11.5,-10.7 -15.2,-10.6 -9.5,0.3 1.9,3.7 5.6,12.9 8.2,20.3 2.5,7.4 6.9,18.1 9.6,23.8 4.5,9.3 6.2,11.5 16.3,22 9.9,10.2 26.2,30.9 25.2,31.9 -0.2,0.2 -5.5,-2.8 -11.7,-6.8 -6.3,-3.9 -17.2,-10.3 -24.3,-14.3 -20.2,-11.1 -32.1,-23.3 -43.8,-44.8 -9.9,-18.3 -20.9,-30.4 -36,-39.7 -8.4,-5.2 -10.8,-6.099998 -10.8,-3.8 z m 31.4,26.9 c 6.5,8.1 12.2,17.5 11.3,18.5 -1.3,1.2 -15.7,-14.8 -21,-23.4 -3.1,-5.1 -5.7,-9.5 -5.7,-9.9 0,-1.6 9.9,7.9 15.4,14.8 z m 53,0.3 c 5.3,8 11.2,20.4 15.6,33 2.2,6.5 4,12.2 4,12.9 -0.1,2.6 -10.3,-10.4 -14.4,-18.3 -3.7,-7.4 -14.7,-36.3 -14.6,-38.8 0.1,-1.1 5.3,5.1 9.4,11.2 z m -125.4,2.5 c 19.1,2.2 36.9,8.2 45.5,15.4 l 3,2.5 -3,0.1 c -5.3,0 -19.8,-2 -25.5,-3.6 -2.9,-0.9 -9.5,-3.5 -14.5,-5.8 -9.3,-4.4 -20.5,-11.1 -17,-10.2 1.1,0.3 6.3,1 11.5,1.6 z m 209.3,9.8 c 8.3,19.7 10.3,42 6.3,71.2 l -1.1,8.5 -3.3,-7 c -9.1,-19.2 -11.5,-38.3 -7.8,-62.2 0.9,-5.7 1.6,-12.2 1.6,-14.5 0,-5.1 0.8,-4.3 4.3,4 z m 75.7,43.2 c -2.3,23.6 -7,39.4 -18.5,63.2 -3.6,7.4 -4.5,8.6 -5,6.6 -2.2,-9.7 -2.6,-13.7 -2.6,-25.2 0,-21.2 4,-33.6 17.1,-54.1 3.2,-5 6.7,-10.8 7.7,-12.9 l 1.8,-3.9 0.3,7.4 c 0.2,4.1 -0.2,12.6 -0.8,18.9 z m -205,-3.4 c 1.6,0.6 -13,5.8 -20.8,7.5 -7.7,1.6 -28.2,3.7 -28.2,2.9 0,-1 11.5,-6.4 17.8,-8.5 8.2,-2.6 25.8,-3.7 31.2,-1.9 z m 53,41.6 c 8.3,1.3 9.4,2.4 3.3,3.2 -2.6,0.3 -11.5,2.3 -19.8,4.2 -12.2,3 -17.5,3.8 -28.5,4.1 -21.3,0.8 -21.5,0.6 -7,-5.3 20.2,-8.4 31,-9.7 52,-6.2 z m 189.1,25 c -1.3,16.1 -3.4,29.5 -5.6,36 -1.9,5.4 -14.8,31.7 -15.6,31.8 -1.1,0 -3.9,-16.4 -3.9,-23.1 0,-11.6 5.7,-28.9 14.2,-43.4 5.2,-8.8 10.9,-16.7 11.5,-16.1 0.3,0.3 0,6.9 -0.6,14.8 z m -146.3,14.4 c 6.5,0.7 7.3,1.8 2,2.8 -1.8,0.4 -7.8,3.3 -13.3,6.6 -12.1,7.3 -21.9,10.5 -38,12.4 -6.6,0.8 -12.1,1.3 -12.3,1.2 -0.3,-0.3 14.3,-9.6 21.8,-13.9 6.2,-3.5 14.3,-6.6 21.5,-8.2 7.1,-1.6 10.1,-1.7 18.3,-0.9 z m 44.2,49.5 c 7.1,1.9 25.3,10.2 29.4,13.4 1.1,0.8 1.6,1.8 1.2,2.2 -0.4,0.5 -7.8,0.8 -16.4,0.8 -13.3,0 -17.5,-0.4 -27.7,-2.7 -14.6,-3.2 -30.6,-5.2 -35.7,-4.4 -2.1,0.4 -3.8,0.4 -3.8,0 0,-0.9 15.1,-7.7 21.5,-9.5 8.6,-2.5 22.1,-2.4 31.5,0.2 z m 45,60.8 c 8.4,2.7 25.4,14 23.6,15.8 -0.9,0.9 -20.7,-2.5 -26.8,-4.6 -2.9,-1 -8.8,-3.5 -13.2,-5.5 -4.3,-2 -8.2,-3.6 -8.7,-3.6 -0.4,0 -2,-0.5 -3.6,-1.2 -2.8,-1.1 -2.7,-1.1 2.7,-2.4 7.1,-1.7 17.8,-1.1 26,1.5 z"
     id="path50"
     style="fill:#000000;stroke:none;stroke-width:0.1" />
  <path
     d="m 619.20879,63.90333 c -30.63302,50.59918 -33.64162,59.62498 -36.1032,111.59171 -1.91457,40.47935 -2.46158,43.48795 -12.0344,66.46271 -10.94037,26.53038 -12.85493,30.086 -51.1462,87.52291 -15.043,22.15424 -27.0774,41.57338 -27.0774,42.94093 0,1.64105 -1.09404,2.73509 -2.18807,2.73509 -2.46159,0 -0.82053,-11.48738 8.47878,-60.172 9.0258,-47.86409 6.83772,-99.01029 -6.29071,-136.20753 -9.57282,-26.80389 -12.30791,-25.98336 -22.42775,6.29071 -9.29931,30.35951 -8.47878,69.74482 2.73509,114.3268 14.76949,58.80446 12.30791,73.84746 -22.70125,146.87438 -12.58142,26.25688 -23.79529,51.1462 -24.61582,55.52235 -2.73509,10.39334 -7.93176,13.12844 -5.74369,3.0086 0.82053,-4.37615 1.91456,-35.00917 2.18807,-68.10377 0.82053,-53.06076 0.27351,-61.81305 -4.37614,-75.215 -8.47879,-24.88932 -17.23108,-39.93232 -32.82109,-56.61638 -20.7867,-22.15423 -22.42775,-19.69265 -18.59862,25.70986 3.28211,37.19723 10.39334,65.91569 21.0602,84.2408 20.78669,36.1032 23.24827,43.48794 23.24827,68.10376 0,29.81249 -6.0172,70.29184 -15.043,100.10433 -3.82913,12.85493 -9.57282,34.18864 -12.85493,47.86409 l -6.0172,24.34231 -4.37614,-24.34231 c -2.73509,-13.67545 -5.47018,-38.29127 -6.56422,-54.97533 -3.28211,-55.79585 -13.94896,-80.95869 -51.1462,-119.52347 -33.36811,-34.73566 -35.28267,-31.72706 -20.23967,29.26547 10.94036,44.58198 21.88072,68.92429 44.58198,98.73678 18.0516,24.0688 23.24827,38.01777 27.35091,76.58255 2.46158,23.24827 0.27351,64.82166 -5.47018,102.01889 l -3.55562,22.70126 -9.0258,-28.17144 c -4.64966,-15.59002 -10.11984,-35.00916 -11.76089,-43.21444 -7.65826,-37.19723 -31.18004,-71.93289 -69.47131,-102.83942 -24.88933,-19.96616 -34.18864,-24.3423 -34.18864,-16.13703 0,6.83773 18.0516,51.96673 30.086,74.66798 13.67545,26.53038 26.25687,41.84689 49.77866,60.71902 13.40194,10.66685 20.51318,18.87213 25.16283,28.71845 12.85493,27.0774 14.76949,41.29988 16.41055,131.28437 1.36754,88.61694 2.73509,101.47187 10.66685,106.39504 7.93177,4.92314 9.57282,-1.91457 5.74369,-25.16284 -1.91456,-11.48738 -4.37614,-37.74426 -5.47018,-58.25744 -1.64105,-33.36811 -1.36754,-39.1118 3.82913,-56.06936 6.29071,-20.78669 19.14563,-42.94093 27.35091,-47.31707 2.73509,-1.64106 15.59002,-6.56422 28.17143,-11.21388 31.18004,-11.48738 48.41111,-23.24827 79.86466,-55.24883 23.79529,-24.61582 32.00056,-37.74426 23.52178,-37.74426 -1.64105,0 -15.31651,3.28211 -30.63302,7.11124 -52.78725,13.40194 -82.05273,33.64162 -101.47187,71.11236 -5.47018,10.39335 -14.49598,25.70986 -19.69266,33.91513 l -9.84632,15.043 1.64105,-34.18864 c 1.09404,-18.87212 3.55562,-42.66742 5.74369,-53.33427 7.38475,-34.18864 30.90653,-76.03553 48.1376,-84.78782 3.82913,-2.18807 17.23108,-6.29071 29.81249,-9.57282 29.26548,-7.38474 49.23164,-17.77809 74.12097,-38.01776 26.53038,-21.33371 60.99253,-56.34287 58.80445,-59.89849 -1.64105,-2.73509 -28.99196,3.0086 -63.1806,13.40194 -23.52178,7.11124 -51.96672,21.60722 -66.73622,34.18864 -12.0344,10.39334 -51.41971,59.35147 -65.64218,81.77922 l -8.75229,13.67545 1.64106,-10.94036 c 3.0086,-18.32511 14.76949,-66.73622 21.88072,-90.258 9.29931,-30.35951 37.19724,-70.83886 57.43691,-83.42027 5.19668,-3.28211 19.96617,-7.38475 34.73566,-9.84633 44.30847,-6.83773 65.91569,-16.13704 102.01889,-43.48795 24.0688,-18.32511 36.92373,-30.086 36.92373,-34.46214 0,-8.75229 -83.69379,8.75229 -114.87382,24.0688 -16.95757,8.20527 -26.53038,16.13703 -57.98393,47.59058 -20.78669,20.51318 -37.74426,38.83829 -37.74426,40.47934 0,1.64106 -1.09403,3.0086 -2.46158,3.0086 -3.28211,0 2.18808,-12.85492 29.81249,-70.01832 19.41915,-40.20584 22.97477,-45.40251 41.29988,-63.72762 28.99196,-28.44495 38.29127,-33.36811 73.30043,-37.74426 37.19724,-4.64965 59.07797,-11.21387 92.44608,-28.17143 27.62442,-13.67546 38.29127,-21.88073 35.00916,-27.0774 -2.73509,-4.64966 -65.64218,-3.82913 -84.78782,1.09403 -22.15423,5.74369 -45.40251,18.87213 -65.64218,36.92373 -9.57282,8.20527 -24.88933,21.0602 -34.18864,28.17144 l -16.95756,13.12843 7.11124,-11.76089 c 16.68405,-28.17143 53.60778,-79.04413 70.01832,-96.2752 12.0344,-12.58142 22.97477,-21.33371 34.18864,-26.53038 15.31651,-7.38475 18.59862,-7.93176 49.50515,-7.93176 24.0688,0 38.83829,-1.36755 54.70181,-5.47019 25.70986,-6.56421 72.20641,-28.44494 72.20641,-34.18863 0,-5.47018 -24.0688,-7.93177 -60.99253,-6.0172 -35.00917,1.36754 -50.87269,6.0172 -81.77922,24.0688 -10.94036,6.29071 -25.16284,14.22247 -31.45355,18.0516 -6.56421,3.55562 -11.76089,5.47018 -11.76089,4.10263 0,-4.92316 68.37728,-73.84745 81.2322,-82.05272 7.38475,-4.64966 23.24828,-12.30791 35.82969,-16.95757 12.58142,-4.92316 32.00057,-14.76949 43.21444,-22.42774 19.41915,-12.85493 50.59918,-44.308477 61.81306,-62.086568 4.92316,-7.384745 4.92316,-8.752291 1.09403,-10.119836 -2.46158,-0.820527 -14.49598,1.641054 -26.80389,5.743691 -41.29987,13.128436 -75.215,35.829691 -97.36924,65.095163 -7.11123,9.29931 -32.54758,37.19724 -56.61638,62.08657 -24.0688,24.88932 -46.77005,49.77865 -50.32567,55.52234 -6.56422,10.66686 -11.48738,12.30791 -6.0172,2.18807 1.91456,-3.0086 5.74369,-13.94896 8.75229,-24.0688 3.28211,-10.11983 9.29931,-23.52178 13.40195,-29.53898 13.40194,-19.69265 27.62441,-50.87269 31.72705,-69.47131 4.10264,-19.69265 5.19667,-82.326235 1.36755,-82.326235 -1.09404,0 -8.47879,10.119836 -16.13704,22.427745 z"
     id="path52"
     style="fill:#000000;stroke:none;stroke-width:0.273509" />
  <path
     d="m 1435.1378,533.82733 c -1.8,3.4 -0.1,12.2 3.7,19.7 1.9,3.7 7.1,11 11.7,16.2 4.5,5.2 10.6,13.8 13.6,19 3,5.2 6.1,10.6 7,12 l 1.6,2.4 -3.5,-2.4 c -1.9,-1.4 -7.5,-6.2 -12.3,-10.8 -9.6,-9.1 -17.1,-13.3 -27,-15.3 -5.1,-1.1 -6,-1 -7.5,0.5 -2.2,2.2 -1.2,3.8 6.2,9.8 7.4,5.9 15,10 25.2,13.3 9.6,3 15.5,6.7 21.5,13.3 7.8,8.6 34.9,44 34.9,45.7 0,0.3 -2.4,-1 -5.2,-2.8 -2.9,-1.9 -7.4,-4.7 -9.9,-6.3 -2.6,-1.6 -8.8,-5.7 -13.8,-9.1 -11.1,-7.5 -17.4,-10 -29.4,-11.5 -11.4,-1.4 -19,-0.3 -19.5,2.7 -0.2,1.5 1.4,3 6.5,6.1 16.6,10.2 24.8,12.9 41.8,14 8.3,0.6 11,1.2 16,3.7 8.9,4.4 18.7,12 25.8,20 8.5,9.7 23,27.7 22.2,27.7 -0.4,0 -1.9,-0.8 -3.3,-1.9 -1.5,-1 -6.3,-3.8 -10.7,-6.1 -4.4,-2.4 -9.6,-5.5 -11.5,-7 -8.6,-6.7 -19.9,-10.4 -31.5,-10.2 -7.3,0.1 -25.8,3.2 -27.2,4.5 -1.5,1.6 1.2,3.7 8.2,6.6 14.6,6.1 21.3,7.4 40,7.5 l 17,0.2 6.5,3.3 c 11.2,5.8 20.4,12.7 27.9,20.8 7,7.5 31.8,39.3 30.7,39.3 -0.3,0 -2.6,-1.5 -5,-3.3 -2.4,-1.9 -7.4,-5.1 -11.2,-7.2 -3.8,-2.1 -10.4,-6.3 -14.8,-9.2 -10.6,-7.3 -16.4,-10.1 -25.4,-12.4 -10.5,-2.7 -21.9,-2.4 -36.2,0.9 -15.9,3.7 -15.8,4.6 1,11.1 25.4,9.9 27.9,10.5 49.5,10.5 l 19,0.1 6.5,3.4 c 16.1,8.3 24.8,16.6 33.4,31.8 5,9 14.6,29.2 14.6,31 0,0.3 -2.6,-1.9 -5.7,-4.9 -3.2,-3 -8.5,-7.3 -11.8,-9.6 -3.3,-2.4 -8.7,-6.5 -12,-9.3 -10.5,-8.8 -26.1,-14.8 -38.5,-14.9 -11.1,0 -40.5,7.2 -40.5,10 0,1 4.4,3 14,6.3 27.9,9.5 40.4,11.8 59.4,11 11.6,-0.6 11.9,-0.5 17,2.2 4.8,2.7 17,14.3 20.5,19.7 3.4,5.2 12.6,36.7 12.6,43.1 0,1.9 -11.6,-10.2 -15.8,-16.4 -4,-6 -9.2,-10.1 -17.9,-14.1 -6.6,-3.2 -7.2,-3.3 -22.6,-3.6 -16.8,-0.4 -23.1,0.2 -22.5,2.1 0.2,0.7 1.9,1.9 3.8,2.7 1.8,0.8 7.2,3.5 11.9,6 19.1,9.9 24.6,12.2 36.3,15.1 13.8,3.5 17.1,5.1 22.6,11.5 6.1,6.9 6.7,10.3 6.7,39.6 -0.1,23.5 0.1,25.8 1.6,25.8 0.9,0 2,-0.8 2.4,-1.8 0.9,-2.3 0.6,-36.8 -0.5,-49.2 -0.9,-11.2 0.7,-29.7 3.5,-37.8 0.9,-2.7 4.7,-8.7 9.1,-14.2 15.8,-19.9 21.2,-32.1 24.5,-55 2.2,-15.3 2,-18 -1.4,-16.7 -1.7,0.7 -18.2,22.3 -22.9,30.2 -5.6,9.2 -8.8,20 -9.9,33.4 -0.6,6.4 -2.2,16 -3.7,21.4 l -2.6,9.9 -2.2,-7.9 c -1.1,-4.3 -3.7,-13.3 -5.7,-19.9 -2.8,-9.3 -3.8,-15.4 -4.8,-26.6 -1.5,-18.1 -0.7,-23.3 6.1,-39.1 9.2,-21.2 11.4,-36.5 9,-61.5 -1.2,-12.8 -2.4,-16.3 -5,-14.7 -3,1.8 -11.1,21.6 -15.2,36.8 -2.9,10.9 -3.1,31 -0.3,40.7 1.2,4.5 1.7,8.9 1.4,14 -0.2,4.1 -0.3,11.3 -0.3,16 v 8.5 l -6.7,-13.2 c -3.7,-7.3 -7.7,-14.6 -8.9,-16.2 -7.3,-10.4 -14.6,-33 -15.7,-49.1 -0.5,-7.9 -0.3,-9.1 2.5,-16.1 5,-12.3 6.5,-22.2 5.9,-36.8 -0.5,-12 -3.1,-24.9 -5.4,-27.2 -1.8,-1.8 -4.1,0.3 -6.7,6.1 -4.9,10.9 -6.9,20.4 -7,33.5 -0.1,10.6 0.3,13.4 3.1,23.5 1.7,6.3 3.6,16 4.2,21.6 0.6,5.5 1.9,12.8 3,16.2 1,3.4 1.6,6.2 1.2,6.2 -0.3,-0.1 -3.4,-3.8 -6.8,-8.3 -3.3,-4.5 -10.2,-13.4 -15.2,-19.7 -10.8,-13.6 -14.2,-19.8 -17.1,-30.5 -3.6,-13.8 -3.7,-18.9 -0.4,-30.2 4.9,-16.9 3.8,-37.4 -2.7,-51.1 -1.2,-2.4 -2.6,-4.1 -3.3,-3.9 -1.6,0.5 -6.3,15 -7.7,23.7 -1.5,9.9 -0.6,18 3.5,32.5 1.9,6.6 4,14.9 4.6,18.5 0.6,3.6 1.8,8.7 2.6,11.4 2.7,9.4 3.4,9.9 -14.7,-12.5 -6.4,-7.9 -12.6,-16.3 -13.7,-18.5 -3.3,-6.4 -6.2,-18.1 -6.9,-26.9 -0.5,-6.9 -0.2,-9.2 2.2,-16.8 2.5,-8 2.7,-9.7 2.3,-20 -0.6,-11.9 -2.2,-18.3 -5.1,-20.1 -2.5,-1.5 -5.1,2 -7.7,10.4 -3,9.5 -2.8,21.2 0.5,31.7 1.4,4.5 3.4,12.8 4.4,18.5 1.1,5.6 2.3,11.2 2.7,12.3 1.1,3 0,1.7 -7.3,-8.8 -3.8,-5.3 -9.6,-13.2 -13,-17.6 -10.5,-13.7 -13,-23.7 -9.4,-37.8 2.5,-9.8 2.7,-20 0.5,-28.8 -2.6,-10.5 -5.9,-11 -9.5,-1.7 -3.4,9.1 -3,18.9 1.3,34.9 2,7.3 3.3,13.3 3,13.3 -0.4,-0.1 -4.5,-6.7 -9.2,-14.7 -7.3,-12.8 -8.8,-16.2 -11.2,-25.8 -3.4,-13.2 -8.5,-24.1 -14.2,-30.1 -4.7,-4.8 -7.9,-5.6 -9.7,-2.3 z m 155.8,151.6 c -0.2,2.1 -0.4,0.6 -0.4,-3.2 0,-3.9 0.2,-5.5 0.4,-3.8 0.2,1.8 0.2,5 0,7 z m 41.9,53 c -0.4,5.9 -1.2,11.5 -1.7,12.3 -0.7,1 -0.9,0 -0.5,-3.5 0.3,-2.8 0.8,-8.3 1.2,-12.3 1,-11.2 1.8,-8.5 1,3.5 z m -93.5,-0.2 c 4.6,1.3 7.5,2.4 6.4,2.4 -1.1,0 -6.9,-1.3 -13,-2.9 -6.5,-1.8 -9.1,-2.8 -6.4,-2.4 2.6,0.3 8.4,1.6 13,2.9 z m 34,53.5 c 5.6,1.1 10.4,2.2 10.7,2.5 0.9,0.8 -1.3,0.6 -13.1,-1.5 -6.2,-1 -13,-2.1 -15.2,-2.3 -3.2,-0.3 -2.8,-0.4 1.7,-0.5 3.2,-0.1 10.3,0.7 15.9,1.8 z m 89.4,18.2 c -4.7,10.5 -6.3,13.3 -5,8.8 1.2,-4 8.8,-20.1 9.2,-19.6 0.3,0.3 -1.6,5.1 -4.2,10.8 z m -56.7,38.8 c 3.4,1.6 6.2,3.1 6.2,3.4 0,0.4 -14.1,-5.3 -14.9,-6 -1.5,-1.4 3.4,0.1 8.7,2.6 z"
     id="path54"
     style="fill:#000000;stroke:none;stroke-width:0.1" />
  <path
     d="m -254.82657,308.06719 c -0.2,0.7 -1.8,5.8 -3.4,11.3 -1.7,5.5 -3.6,12 -4.2,14.4 -1.4,5.5 -1.5,22.2 0,31.9 0.8,5.8 0.7,10.8 -0.6,23 -0.8,8.6 -1.3,17.7 -1,20.1 1,7.3 -0.4,4 -3.5,-8.4 -4.7,-18.9 -9.7,-29 -20.3,-40.9 -7.2,-8.2 -8.1,-4.6 -3.4,13.2 3.6,14.1 9.3,25.2 17.4,34.4 7.9,8.9 9,14.5 9.8,48.8 l 0.6,23.5 -3,-5.8 c -1.7,-3.1 -4.8,-10.7 -7,-16.9 -6.2,-17.4 -12.1,-24.8 -27.2,-34.4 -4,-2.5 -9.2,-5.9 -11.5,-7.5 -7.8,-5.5 -8,-3.4 -0.9,11.7 8.5,17.8 14.7,25.6 30.2,37.6 10.3,7.9 15.7,14.8 19.3,24.3 1.1,2.9 3.4,14.7 5.1,26.2 1.6,11.4 3.6,23.5 4.4,26.8 0.8,3.3 1.3,6.1 1.2,6.3 -0.6,0.5 -12.2,-16.7 -17.1,-25.4 -8.9,-15.6 -19.5,-25 -35.8,-32 -4.5,-1.9 -10.6,-4.9 -13.6,-6.5 -4.9,-2.8 -8.1,-3.2 -8.1,-1 0,2 14.5,22.8 19.8,28.3 6.1,6.4 15.8,13 30,20.3 11,5.6 18.2,12.9 24.4,24.7 5.4,10 7,14.4 13.3,36.3 2.9,10.4 6.1,21 7,23.4 1.8,5.3 1.4,6.2 -1.1,2.4 -1,-1.5 -4.1,-5.6 -6.8,-8.9 -2.8,-3.4 -7.1,-9.4 -9.6,-13.4 -2.5,-4 -7.4,-10.3 -11,-14 -8.1,-8.4 -15.9,-12.3 -36,-18 -7.9,-2.2 -16.4,-5 -18.8,-6 -10.5,-4.7 -9.6,-2.3 5,13.2 16.4,17.4 25.2,23.4 44.3,30.1 18.8,6.6 22.2,9 32.1,22.3 8.1,11 11.7,18.2 19.2,39.2 l 7,19.4 -3.5,-3.4 c -1.9,-1.8 -6.4,-7 -10,-11.5 -3.5,-4.5 -8.4,-10 -10.9,-12.1 -8.7,-7.8 -25.4,-14.7 -41.4,-17.1 -4.1,-0.7 -9.4,-1.9 -11.8,-2.7 -8.1,-3 -8,-1 0.3,6.9 16.9,15.7 31.2,24.2 50.1,29.6 13.9,4 16.5,5.4 23.3,12.7 8.7,9.3 11.1,13.2 25,40.8 17.8,35.3 34.4,61.4 37.9,59.2 2.1,-1.3 1.3,-3.1 -4.4,-10.7 -13.5,-18 -26.4,-41.4 -29,-52.7 -0.9,-3.7 -1.7,-11.2 -1.7,-16.8 -0.2,-10.1 -0.2,-10.1 4.1,-18.3 5.6,-10.8 7.3,-15.5 12.2,-33.8 4.2,-16.1 4.6,-18.8 2.9,-19.9 -2.1,-1.3 -15.5,13.9 -19.8,22.5 -5.6,10.9 -6.5,32.2 -2.5,57.6 1.3,8.7 -16.9,-29.8 -24.1,-51 -2.1,-6 -2.9,-10.6 -3.2,-18.5 -0.9,-18.7 2.3,-28.1 13.6,-40.3 3.7,-4 8.5,-9.7 10.8,-12.7 4.8,-6.3 13,-23 19.8,-39.9 5,-12.8 4.8,-15.7 -0.7,-10.5 -1.8,1.7 -6.3,5.4 -9.9,8.2 -11.6,9 -24.8,24.6 -29.6,34.9 -2.8,6 -5.3,18.3 -5.3,25.8 0,3 -0.7,9.8 -1.5,15.2 -0.8,5.4 -1.6,11.4 -1.7,13.3 -0.3,3.2 -0.6,2.7 -3.5,-5.3 -1.8,-4.8 -5.6,-16.3 -8.5,-25.5 -5,-16 -5.2,-17.2 -5.2,-28.2 0,-22.5 2.5,-28.3 19.5,-45 14.1,-13.9 18.4,-20 28.9,-40.7 6.8,-13.5 7.9,-16.6 6.1,-17.7 -0.4,-0.3 -6.3,3.1 -13,7.5 -23.9,15.9 -35.1,31.7 -39.1,55.4 -1.2,6.6 -2.8,14.7 -3.6,18 -0.9,3.3 -1.9,8.9 -2.3,12.5 l -0.7,6.5 -2.8,-8.5 c -3.9,-12.1 -10.6,-46.6 -10.6,-54.7 0,-8.2 3.1,-21.6 6.4,-28.1 3.2,-6.2 6.3,-9.5 17.1,-18.3 5,-4 9.5,-7.8 10,-8.4 3.6,-3.5 10.1,-12.9 14.1,-20.3 2.6,-4.8 6,-10.9 7.6,-13.6 4.1,-6.7 2.5,-7.9 -4.4,-3.4 -2.9,1.9 -9,5.8 -13.5,8.7 -11.2,7.1 -21.1,17.9 -26.3,28.5 -2.2,4.4 -5.8,14.6 -8,22.6 -5.8,20.4 -5.2,19.1 -6.1,15 -0.5,-1.9 -1.4,-15.4 -2,-30 -1.2,-26.5 -1.2,-26.5 1.1,-34.5 2.3,-8 2.3,-8 14,-19.5 14.4,-14.1 16,-16.3 21.6,-29.1 6.5,-15 6.2,-15.5 -4.9,-8 -14.1,9.5 -23.6,22.3 -28.7,38.9 -3.6,11.4 -4.4,10.2 -3.6,-5.4 1.3,-25.8 2.2,-31.4 6.7,-42.4 4.7,-11.8 6.9,-21 6.9,-29.8 0,-7.1 -2.5,-20.3 -4.6,-24.4 -1.5,-3 -3.2,-3.6 -3.8,-1.6 z m 3.7,25.8 c 0,10.4 -0.3,12.4 -3.3,21.5 -3.3,9.8 -3.4,9.9 -4.3,6.5 -0.5,-1.9 -0.7,-9.1 -0.4,-16 0.4,-10 1,-14.2 3.2,-21 2.7,-8.2 2.8,-8.4 3.8,-5.5 0.5,1.6 1,8.2 1,14.5 z m -32.5,37.5 c 2.4,3.5 5.4,8.9 6.7,11.9 2.7,6.1 6.7,20.6 5.6,20.6 -0.3,0 -2.6,-3 -5,-6.6 -3.8,-5.7 -7.3,-14.3 -12.1,-29.7 -1.4,-4.4 0.3,-3.1 4.8,3.8 z m 54.1,14.2 c -2.3,4.8 -5.7,9.3 -12.3,16.1 -5,5.1 -9.2,8.9 -9.4,8.3 -0.5,-1.6 6.2,-15 10.2,-20.3 4,-5.2 13.9,-13.3 14.4,-11.8 0.2,0.5 -1.1,4 -2.9,7.7 z m -73.9,39.8 c 8.5,5.5 15.2,11.5 19.2,17.2 2.6,3.8 10.2,22.3 9.2,22.3 -0.2,0 -3.7,-2.6 -7.7,-5.9 -8.3,-6.7 -14.4,-13.2 -18,-18.7 -4,-6.5 -10.9,-19.4 -10.3,-19.4 0.3,0 3.8,2 7.6,4.5 z m 93,9 c -6.7,12.2 -12,18.6 -22.3,26.8 -5.3,4.3 -9.9,8.2 -10.2,8.7 -0.3,0.6 -1,1 -1.5,1 -1.4,0 5.2,-15 9,-20.6 1.9,-2.7 5.7,-7.1 8.5,-9.8 4.9,-4.9 19.4,-15 20.2,-14.2 0.3,0.2 -1.4,3.9 -3.7,8.1 z m 15.5,60.7 c -8.6,16.9 -13.4,23.5 -25.2,34.7 -5.8,5.5 -10.7,10 -10.8,9.9 -0.1,-0.2 0.6,-3.7 1.6,-7.8 2.9,-11.5 8.2,-21.1 16.8,-30.3 6.8,-7.1 22,-19.2 23,-18.1 0.2,0.2 -2.2,5.4 -5.4,11.6 z m -105.4,2.2 c 4.6,2.2 8.6,5.2 14.5,11 7.2,7.3 16.3,20.1 15,21.3 -0.6,0.7 -16.5,-7.9 -23.6,-12.7 -8.2,-5.6 -17.8,-16.5 -24.3,-27.7 -0.4,-0.6 2.1,0.3 5.6,2 3.5,1.8 9.2,4.5 12.8,6.1 z m 124.9,52 c 0,1.2 -12,28 -14.4,32 -1.5,2.6 -5.5,7.9 -8.9,11.8 -3.4,3.8 -7.9,9.1 -10.1,11.6 l -3.8,4.7 0.7,-7 c 1.1,-9.9 3.8,-18 8.7,-25.5 6.1,-9.5 27.8,-31 27.8,-27.6 z m -121.5,19.1 c 14.5,4.4 23.4,8.4 29.3,13.2 4.1,3.4 16.7,19.1 15.9,19.9 -0.7,0.7 -19.4,-5.9 -26.2,-9.2 -3.8,-1.9 -9.9,-5.6 -13.5,-8.3 -8,-6.1 -22.3,-20.5 -19.5,-19.7 1.1,0.3 7.4,2.1 14,4.1 z m 42.5,78.9 c 9.8,3.9 16.8,8.7 23.6,16 3.6,3.8 6.2,7.1 6,7.3 -0.8,0.8 -22.7,-6.8 -29.7,-10.3 -6.8,-3.4 -20.6,-13.2 -24.7,-17.7 l -2.3,-2.4 10.6,2.3 c 5.8,1.3 13.2,3.4 16.5,4.8 z m 81.6,5.5 c -3.5,13.6 -6.1,21.3 -9.9,28.5 l -3.2,6.1 -0.3,-7.4 c -0.3,-8.7 1,-15.7 4.2,-22.6 2.4,-5.1 10.5,-16 11.3,-15.1 0.2,0.2 -0.7,4.9 -2.1,10.5 z"
     id="path56"
     style="fill:#000000;stroke:none;stroke-width:0.1" />
  <path
     d="m 1312.4126,489.58677 c -7.5,16.6 -9.4,28.7 -7,46.6 1.1,8.9 1,11 -1.5,28.6 -1.4,10.4 -2.8,19.1 -3,19.3 -0.2,0.2 -0.6,-1.8 -0.9,-4.5 -1.8,-14.3 -3.7,-22.8 -6.6,-29.2 -3.7,-7.9 -7,-11.7 -9.6,-10.7 -1.4,0.6 -1.6,1.7 -1.1,8.4 0.6,8.8 3.4,17.3 8.5,25.2 6.4,10.1 7.2,12.5 7.2,24 0,9.6 -1.7,27.6 -3.8,39 l -0.8,4.5 -0.7,-4.5 c -1.8,-10.7 -6.1,-26 -9.2,-32.5 -5.6,-11.7 -12.7,-18.4 -15.6,-14.8 -2.9,3.4 4.4,20.9 13.7,33.1 6.8,9 7.4,10.6 8.4,21.7 0.7,7.5 0.4,11.3 -1.6,22.5 -4.1,23.6 -5,27.5 -5.7,26.3 -0.4,-0.6 -1.4,-6 -2.2,-12 -2,-14.3 -3.3,-19.7 -6.3,-26.2 -3.1,-6.5 -9.4,-13.4 -11.8,-12.9 -3.6,0.7 -3.9,3.2 -1.5,12.5 2.3,9.2 7.6,20.2 13.5,27.9 7,9.2 7.2,23.6 0.7,53.7 -2.2,9.8 -4.1,18.1 -4.4,18.3 -0.2,0.2 -1.2,-5.3 -2.1,-12.3 -1,-7.1 -2.2,-15.7 -2.7,-19.3 -1.3,-8.4 -8.4,-23.1 -14,-28.8 -6.8,-6.9 -9,-5.2 -7,5.4 2,11 7,23.1 13.7,33.2 4.3,6.5 6.6,10.9 7.1,14.1 1.4,8.6 0.7,23.1 -1.6,32.1 -3.2,12.4 -9.3,32 -10,32 -0.9,0 -3.1,-17.2 -3.1,-23.6 0,-8.3 -2,-16.5 -5.8,-23.8 -3.9,-7.5 -14.3,-19.3 -16.1,-18.2 -1.8,1.1 -1.3,7.6 1.5,18.7 2.9,11.4 6.6,20.5 11.4,27.5 6.7,9.9 7.4,12.2 7.4,22.4 -0.1,10.7 -1.4,15.3 -11.4,41.6 -8,20.9 -18.6,41.6 -37.2,72.7 -4.9,8.2 -6.8,12.1 -6.1,12.8 2.9,2.9 5,-0.1 20.1,-27.6 19.3,-35.4 21.1,-38.3 27.5,-44.1 7.2,-6.5 12.2,-9.5 18.7,-11.1 9.6,-2.4 24.8,-10.7 33.8,-18.3 5.4,-4.7 8.2,-7.8 8.2,-9.1 0,-2 -0.4,-2.1 -5.6,-1.4 -15.8,1.9 -28.8,7.8 -37.3,16.9 -6.9,7.3 -21.5,21.6 -21.7,21.3 -0.6,-0.6 15.1,-40.9 18.1,-46.6 1.9,-3.6 5.8,-9.4 8.7,-12.9 4.6,-5.7 6.3,-6.9 16.6,-11.8 13.5,-6.5 20.6,-11.1 28.3,-18.5 6.1,-5.9 11.6,-13.5 10.5,-14.6 -1.2,-1.2 -11.9,1.6 -19.1,5 -11.1,5.4 -18.6,11.7 -26.6,22.5 -7.1,9.5 -13.6,17.4 -14.9,18 -0.3,0.1 0.6,-3.5 2.1,-8.1 1.5,-4.6 3.9,-13 5.4,-18.7 3.3,-13 9.9,-26.8 16,-33.7 3.3,-3.7 6.6,-6.2 12.3,-8.8 10.9,-5.2 19.2,-11.5 26.3,-19.8 7.6,-9.1 9.6,-12.5 7.5,-13.3 -2.2,-0.8 -12.2,2.3 -19.1,5.9 -8.4,4.5 -14.6,11.2 -25.5,27.4 -5.1,7.8 -9.5,14.1 -9.6,14 -0.1,-0.1 1.5,-8.2 3.6,-17.9 6.7,-31.6 12.3,-41.9 29,-53.1 9.9,-6.6 18.9,-16.1 23.1,-24.1 4.8,-9.3 3.5,-10.2 -7.4,-4.8 -9.9,4.9 -17.5,12.3 -23.2,22.7 -6.2,11.3 -13.8,23.2 -13.1,20.5 0.4,-1.4 1.8,-9.5 3.1,-18 5.6,-35.4 6.8,-38 23,-50.2 12.9,-9.7 26.9,-27.8 23.8,-30.9 -3.1,-3.1 -16.8,4.8 -24,14.1 -2.6,3.4 -7.1,10.7 -10,16.3 -2.9,5.6 -5.2,9.7 -5.2,9.2 -0.1,-0.6 1,-8.9 2.4,-18.5 4,-28.4 5.8,-33.1 15,-39.5 3.1,-2.1 7.6,-6.1 10.1,-8.8 4.8,-5.3 13,-20.9 11.9,-22.7 -1.7,-2.8 -9.5,0.8 -15.1,7.1 -3.4,3.8 -8.9,12.9 -11.5,18.9 -1.3,3 -3.1,6.8 -4.1,8.5 l -1.8,3 0.6,-6 c 2.9,-27 4.2,-34.3 7.7,-42.1 1.9,-4.3 4,-9.7 4.5,-11.9 1.8,-7.2 2.4,-19.8 1.2,-29 -1.8,-15 -2.7,-15.7 -7,-6.2 z"
     id="path58"
     style="fill:#000000;stroke:none;stroke-width:0.1" />
  <path
     d="m -630.0979,453.41754 c -1.5,3 -1.2,8.2 1,15.2 2.5,8.1 7.4,16.3 14.5,24.2 4.2,4.6 7.5,10 13,21.2 6.5,13.4 12.5,26.9 12.5,28.4 0,1.2 -7.7,-7 -13.5,-14.4 -13.4,-17.1 -26.6,-26 -31.3,-21.3 -2.5,2.5 -1.1,5.2 6.1,12.2 5.5,5.4 9.7,8.3 16.8,11.9 16,8 24.5,18.6 33.8,42.3 3.3,8.2 6.3,16.3 6.7,18 0.7,2.8 0.6,2.8 -2.7,-1.2 -14,-17.1 -29.4,-32.5 -35.3,-35.3 -6.3,-3.1 -15.3,-3.5 -17,-0.8 -0.9,1.6 -0.2,2.7 5.8,8.3 7.4,6.9 15.5,11.9 25.1,15.5 7.5,2.8 17.5,12.1 24.6,22.8 3.8,5.8 6,11 10.3,24.5 6.6,20.5 10.7,34.8 10.2,35.3 -0.2,0.2 -1.7,-2 -3.4,-4.9 -5.8,-10.2 -25.6,-34.5 -32.4,-39.9 -6.7,-5.3 -15.9,-9.5 -23.9,-11 -12.1,-2.2 -13.1,0.9 -3.1,9.8 14.5,12.7 25.1,19.5 35.2,22.4 8.5,2.4 14.7,9 23.5,24.9 6.4,11.6 7.9,16.7 10.9,37 1.5,9.6 2.9,18.8 3.2,20.5 0.3,2 -1.1,0.1 -4.3,-5.6 -2.6,-4.7 -7,-12.6 -9.8,-17.5 -6.1,-10.9 -17.2,-22.5 -26,-27.1 -10.4,-5.4 -25.6,-8.2 -26.8,-4.9 -0.4,0.9 4.3,6.2 12.6,14.3 13.4,13 21.8,19.1 31.9,22.8 8.6,3.2 15.1,11.9 21.4,28.5 2.8,7.5 2.8,7.5 3.2,37.2 0.3,21.1 0.1,29.8 -0.7,29.8 -0.6,0 -1.1,-1.1 -1.1,-2.5 0,-2.8 -9.8,-29.2 -13.7,-36.9 -4.3,-8.5 -14.3,-17.5 -25.4,-23 -10.3,-5.1 -18.9,-7.1 -18.9,-4.4 0,2.3 15.2,21.2 23.5,29.3 3.9,3.8 10.1,8.7 13.7,10.8 8.3,4.8 11.1,7.8 13.8,14.6 6.8,17.3 6.8,32.8 -0.1,58.1 -3.1,11.5 -8.5,27.8 -11.8,35.50003 -2.9,6.9 -3.1,9.5 -0.5,9.5 2.1,0 4,-3.6 8.8,-16.70003 5.5,-15 10.7,-35.5 14.5,-58.3 3.1,-17.9 9.1,-39.2 13.8,-48.4 1.4,-2.7 6.2,-8.5 10.7,-13 9.2,-9 14.6,-17.3 20,-30.9 4.2,-10.4 5.2,-15.2 3.6,-16.2 -3,-1.8 -19,12.9 -25.3,23.2 -2,3.3 -5.1,10.5 -6.7,15.9 -3.7,11.8 -6.2,19.2 -10,29.7 l -2.8,7.7 -0.7,-24.7 c -0.9,-30.1 -0.5,-37 3.4,-54.3 4.1,-18.2 4.6,-19.5 10.9,-27.4 10.3,-12.9 14.1,-20.6 18.8,-38.4 4,-14.8 1.6,-17 -7.8,-7.1 -8,8.3 -15.2,23.1 -17.4,35.4 -0.8,4.9 -3.3,16.2 -5.5,25 -2.1,8.8 -4.3,18 -4.7,20.5 l -0.9,4.5 -0.8,-5 c -0.4,-2.8 -2,-12.8 -3.6,-22.4 -3.3,-20 -3.6,-31.5 -1.4,-52.1 1.6,-15.1 2.5,-18.6 6.8,-24.8 9.7,-14.3 18.4,-44.9 14,-49.3 -3.3,-3.3 -12.4,9.4 -16.8,23.5 -1.5,4.6 -3.2,13.5 -4,21.5 -0.8,7.5 -2.1,17.2 -2.9,21.6 -0.8,4.4 -1.8,11.8 -2.2,16.5 l -0.7,8.5 -2.3,-8.5 c -1.2,-4.7 -4.6,-15.7 -7.5,-24.5 l -5.3,-16 -0.1,-18 c 0,-17.1 0.1,-18.3 2.7,-25.3 7.3,-19.6 10.9,-41.2 7.4,-44.1 -0.8,-0.7 -2.3,-1.1 -3.1,-0.7 -2.4,0.9 -7.4,9.6 -9.6,16.6 -2.3,7.6 -2.5,13.7 -1.5,39.5 l 0.7,19 -3.9,-10 c -2.1,-5.5 -5.5,-13.8 -7.5,-18.5 -4.9,-11.7 -8.6,-26.9 -9.3,-38.6 -0.5,-8.4 -0.2,-11.7 2,-22.2 3,-14.2 3.4,-25.2 1,-27.6 -0.8,-0.9 -1.9,-1.6 -2.3,-1.6 -1,0 -4.6,4 -6,6.7 -1.3,2.6 -1.4,16.2 -0.2,25.3 0.5,3.6 1.2,11 1.6,16.5 l 0.6,10 -4.4,-9.5 c -2.4,-5.2 -6,-12.7 -8,-16.5 -1.9,-3.9 -4.5,-10.8 -5.7,-15.3 -4.8,-19 -11.4,-32.8 -17.1,-35.7 -3.6,-1.9 -3.6,-1.9 -4.9,0.4 z"
     id="path60"
     style="fill:#000000;stroke:none;stroke-width:0.1" />
  <path
     d="m -306.83776,646.80565 c -6.1,4.3 -11.8,17.9 -13.5,32 -1.1,9.5 -7.6,37.4 -9.1,39 -0.4,0.6 -0.8,-0.7 -0.8,-3 0,-6.4 -3.7,-24.8 -5.9,-29.9 -1.5,-3.4 -2.5,-4.6 -3.8,-4.3 -1.6,0.3 -1.8,1.5 -1.7,9.3 0.1,8 0.6,10.5 4.7,22.5 5.4,15.5 5.7,19 2.8,33.1 -1.1,5.2 -2.8,14.5 -3.7,20.6 -1,6.2 -2,11.3 -2.3,11.3 -0.3,0 -2,-5.9 -3.8,-13.1 -3.3,-13.6 -7.8,-24.3 -13.2,-31.7 -4,-5.4 -5.6,-5.1 -5.2,1.2 0.6,10.6 4.5,20.4 12.8,32.5 6.3,9.3 7.7,14.9 6.4,26.3 -0.6,5.1 -1.3,15.7 -1.7,23.5 -0.6,13.6 -1.6,17.6 -2.7,11.5 -3.1,-16.7 -11.9,-36.3 -19.4,-43.2 -6,-5.6 -7.3,-4.4 -4.8,4.5 2.4,9 8.2,20.5 14.4,28.9 3.7,5 5.8,9.2 7.6,15 2.3,7.6 2.5,9.7 2.7,34.3 0.2,14.4 0,25.9 -0.3,25.5 -0.4,-0.4 -3.2,-6.7 -6.2,-14 -6.9,-16.6 -11.9,-25.1 -19.2,-32.5 -10.2,-10.2 -11.1,-6.5 -2.5,10.8 3.3,6.7 7.3,12.8 12.2,18.5 8.9,10.3 11,13.6 13.6,22 2.5,8 3.8,14.5 5.3,27.5 4.5,40.5 19.5,98.50005 25.4,98.50005 2.2,0 1.9,-2.5 -2,-14.1 -5,-14.80005 -11.2,-37.40005 -13.6,-50.20005 -1.9,-9.9 -2,-12.1 -1,-21.6 0.6,-5.8 2.3,-14.3 3.7,-18.8 2.2,-6.9 3.6,-9.4 8.8,-15.2 7.3,-8.4 11.5,-15.1 16.3,-26.2 3.7,-8.6 4.7,-14.9 2.5,-15.6 -1.8,-0.7 -13.2,11.3 -17.7,18.7 -4.7,7.7 -11.8,28.7 -14.7,43.4 l -2.2,11 -1.8,-12.5 c -2.3,-16.5 -2.5,-49.9 -0.3,-58.3 2.7,-10.1 8.9,-20.8 15.4,-26.3 7.2,-6.1 10.7,-10.1 15.9,-18.1 5.3,-8.3 7.9,-14.9 6.4,-16.4 -1.7,-1.7 -5.6,0.7 -12.7,7.7 -5,5 -7.6,9.1 -15.2,23.7 -5.1,9.7 -9.5,18.8 -9.9,20.2 -1.5,6.1 -1.9,1.4 -1.2,-16.1 1.4,-39.1 4.3,-47.8 19.7,-59.2 10.2,-7.6 23.1,-23.7 23.1,-28.9 0,-2.1 -0.3,-2.3 -2.7,-1.7 -6.5,1.6 -14.4,10.2 -27.5,30 -4.6,6.8 -8.4,12.3 -8.5,12.2 -0.2,-0.3 1.8,-13.3 5.2,-32.8 2.1,-12.4 2.7,-14.2 7,-21.2 4.8,-8 9,-12.5 18.4,-19.9 9.3,-7.4 16.7,-20.6 12,-21.6 -3.2,-0.6 -10.4,6.4 -18.4,18 -4.4,6.4 -9,12.7 -10.2,14.1 -1.3,1.3 -2.3,2.9 -2.3,3.5 0,0.7 -0.5,1.2 -1.1,1.2 -0.6,0 -0.8,-0.8 -0.5,-1.8 0.3,-0.9 1.4,-6 2.5,-11.2 2.9,-14.3 6.2,-27.2 7.7,-30.2 0.8,-1.4 3.8,-6 6.7,-10.1 6.2,-8.6 10.1,-19.3 10.2,-27.7 0,-4.8 -0.3,-5.5 -2,-5.8 -1.1,-0.1 -3,0.4 -4.1,1.2 z"
     id="path62"
     style="fill:#000000;stroke:none;stroke-width:0.1" />
  <path
     d="m -83.125174,171.10286 c -3.5,4.1 -8.2,16.1 -10.1,25.6 -5.5,27.2 -6.999996,31.2 -6.1,16 0.7,-9.9 -0.3,-15.5 -2.499996,-15.5 -2.4,0 -2.9,5.2 -1.8,20.9 0.9,14 0.8,16.9 -0.5,21.9 -2.6,9.3 -5.7,29.8 -6.4,42.7 -1.1,20.9 -2,19.5 -8.4,-12.9 -3,-15.7 -7,-31.1 -9,-34.7 -1.7,-3.3 -3.9,-2.3 -3.9,1.8 0,3.9 0.6,6.2 6,24.3 4,13.4 6,22 5.2,22 -0.4,-0.1 -2.4,-2.6 -4.5,-5.6 -4.1,-5.9 -9.5,-10 -11.1,-8.4 -1.1,1.1 1,4.4 7.2,11.3 6.7,7.4 9.7,11.5 12.6,17.4 3.2,6.3 4.1,10.9 6.1,31 2.4,24.2 5.3,43.9 9,59.5 1.899996,7.9 3.299996,14.4 3.099996,14.5 -0.1,0.2 -5.699996,-10.6 -12.299996,-24 l -12.1,-24.2 -2.6,-15 c -2.7,-15 -4.6,-19.8 -6.6,-16.5 -0.5,0.8 -1,2.4 -1,3.5 0,2 3.3,16.4 4.6,20 1.3,3.8 -1.3,0.2 -9.6,-13 -10.1,-16 -13.6,-20.5 -16.1,-20.5 -1,0 -1.9,0.5 -1.9,1 0,2.5 4.6,9.8 14.7,23.2 10.3,13.6 17.3,24.2 17.3,26 0,0.4 -4.2,-2 -9.3,-5.5 -9.6,-6.6 -14.2,-8.6 -16,-6.8 -1.8,1.8 6.1,7.9 17,13.2 6,2.9 11.3,6.3 13.1,8.3 1.6,1.8 8.1,13.7 14.5,26.3 10.299996,20.6 12.099996,24.9 16.799996,40.9 2.8,9.9 5.6,18.7 6.1,19.7 0.5,1 0.8,2.1 0.5,2.3 -0.2,0.2 -2.1,-2.2 -4.2,-5.3 -2.1,-3.2 -6.1,-8.7 -9,-12.3 -6.999996,-8.7 -10.399996,-14.9 -16.399996,-30.6 -5,-12.8 -8.7,-18.4 -11.1,-16.9 -2.2,1.4 -0.3,7.1 6.4,19.1 3.6,6.5 6.4,12 6.1,12.2 -0.2,0.2 -3.9,-2.8 -8.2,-6.6 -8.1,-7.4 -31.5,-25.9 -36.9,-29.3 -6.9,-4.2 -7.3,-1.2 -0.6,5.3 2.6,2.6 10.2,8.4 16.9,13 11.7,8 29.4,21.9 28.8,22.6 -0.2,0.2 -3.6,-0.9 -7.7,-2.4 -8.2,-3 -20.7,-3.9 -22.9,-1.6 -2.4,2.3 0.7,3.5 11.8,4.4 13.2,1.1 18.9,2.8 25.2,7.8 10.399996,8.2 29.399996,37.9 34.599996,54.00003 3,9.3 5.7,15 7.1,15 2,0 1.8,-1.9 -1.2,-10.7 -3.5,-10.4 -3.5,-21.60003 0.1,-35.60003 5,-19.9 10.8,-27.5 28.2,-37.2 12.1,-6.7 17.3,-10.3 17.3,-12 0,-3.8 -11.2,0.2 -20,7.2 -2.5,2 -7.6,6.6 -11.4,10.2 -3.8,3.6 -6.5,5.7 -6.1,4.6 0.4,-1.1 1.7,-4.9 3,-8.5 2.2,-6.5 12.4,-27.9 16.7,-35.3 1.4,-2.3 5.9,-6.5 11.3,-10.4 15.2000004,-11.1 26.4000004,-23.3 21.3000004,-23.3 -1.8,0 -7.5,4.7 -18.1000004,14.8 -5.4,5.2 -10.1,9.2 -10.3,8.9 -1.4,-1.4 12.5,-26.8 20,-36.5 10.70000043,-13.9 15.1000004,-23.2 11.20000043,-23.2 -2.70000003,0 -8.70000003,8.4 -17.70000043,24.7 -8.3,14.9 -10.6,18.5 -9.4,15 5.3,-16.4 7.4,-29.5 5,-30.7 -1.9,-0.9 -4.4,6.4 -6.4,18.5 -3.6,21.8 -7.4,34.7 -13.9,47 -2.4,4.6 -2.5,4.4 -1.1,-5 1.3,-9.1 1.3,-36.3 -0.1,-39.9 -0.5,-1.5 -1.6,-2.6 -2.3,-2.3 -0.9,0.3 -1.2,6 -1.3,23.3 -0.1,24.4 -1.4,35.6 -5.4,44.8 -2.8,6.7 -12.6,37.6 -14.9,47.1 l -1.8,8 -0.9,-6 c -1.4,-9.7 -1.1,-66.7 0.4,-76.5 2.8,-17.4 16.3,-63.7 21.5,-73.5 0.9,-1.7 6.2,-8.2 11.8,-14.5 5.6,-6.3 10.8,-13 11.6,-14.9 1.4,-3.3 1.2,-6.1 -0.6,-6.1 -0.9,0 -15.3,17.3 -18.6,22.3 -1,1.5 -2,2.6 -2.2,2.3 -1.2,-1.2 5.2,-22.4 9.7,-32.6 10,-22.2 13,-31.8 9.8,-30.8 -1.7,0.6 -9.1,14.4 -12.8,24 -3.2,8.2 -7.7,24.2 -10.5,37.3 -1,4.4 -4.8,17.2 -8.5,28.5 -3.7,11.3 -7.6,23.9 -8.6,28 l -1.9,7.5 -0.5,-5.1 c -0.6,-5.6 0.5,-31.4 1.9,-44 0.7,-6.7 1.7,-10 5.9,-18.5 2.8,-5.7 5.5,-12.2 6.1,-14.4 1.4,-5 1.4,-12.5 0.1,-12.5 -1.4,0 -2.4,2.2 -7,16 -2.3,6.9 -4.4,12.7 -4.6,12.9 -0.7,0.8 0.8,-16.6 2.7,-30.7 2.3,-17.2 2.4,-26.1 0.5,-28.8 -1.4,-1.8 -1.5,-1.8 -2.6,1.1 -0.7,1.6 -1.6,12 -2.1,23.1 -0.4,11 -1.3,21.2 -1.8,22.5 -1,2.4 -1,2.4 -1,-0.5 -0.1,-3.7 -3.9,-20 -5.7,-24.3 -1.5,-3.5 -2.8,-4.2 -3.7,-2 -1,2.6 2.1,18.4 5.8,29.7 l 3.7,11.5 -0.7,13.5 c -0.5,11.5 -2,24.2 -2.4,21.8 0,-0.4 -1.7,-6.7 -3.7,-14 -3.4,-12.7 -4.7,-15.8 -6.4,-15.8 -3.1,0 -1.3,10.9 4,24 7.4,18.6 8.9,32.5 6.5,61 -1.3,15.5 -1.6,27.2 -1.3,47.9 l 0.4,27.3 -2.2,-6.8 c -3.4,-10.2 -13.1,-43.9 -14.8,-51.7 -2.1,-9.1 -2,-17.2 0.5,-34.1 2.1,-14.9 2.2,-26.7 0.2,-27.3 -2.4,-0.8 -3.5,4.3 -4.3,21.4 -0.5,9.7 -1.1,17.8 -1.4,18 -0.4,0.5 -2.7,-9.2 -5.499996,-24.2 -2.5,-12.6 -5.1,-35.1 -5.1,-43.3 0,-9.7 3.5,-23.5 8.599996,-34.2 5,-10.4 8.4,-19.3 8.4,-22.2 0,-2.5 -2.7,-2.3 -4.4,0.5 -2,3 -9.199996,22.3 -11.699996,31.2 l -2,7 0.6,-14.5 c 0.8,-20.6 4.5,-43.8 8.799996,-54.5 0.6,-1.6 4.5,-6.6 8.7,-11.1 7.8,-8.4 12.7,-15.8 11.1,-16.8 -1.7,-1.1 -8.9,5.3 -13,11.5 -2.2,3.5 -4.1,5.8 -4.1,5.2 0,-1.8 6.3,-18.6 10.9,-29.1 4.8,-10.7 8.3,-22.9 7.5,-25.4 -0.8,-2.6 -2.9,-2.2 -5.7,1.1 z"
     id="path64"
     style="fill:#000000;stroke:none;stroke-width:0.1" />
  <path
     d="m 1133.4739,54.014432 c -2.313,5.581535 -3.9724,11.012219 -6.1346,20.465631 -2.7657,11.867046 -3.3188,15.789207 -3.8719,28.159097 -0.2514,6.3358 -0.6034,12.21904 -0.704,12.9733 -0.2011,1.75994 -0.7543,2.41364 -0.7543,0.9554 0,-2.31307 -6.2352,-26.047167 -8.2968,-31.578419 -2.8662,-7.693468 -9.0512,-16.543469 -16.4932,-23.734098 -4.1233,-3.871875 -5.8833,-4.927842 -5.8833,-3.469603 0,0.351988 1.2069,2.06165 2.6651,3.771309 2.8662,3.419317 8.0957,12.369888 16.644,28.661938 5.8833,11.263633 7.2912,15.185793 9.8557,27.957963 1.3577,6.6375 1.5085,8.44773 1.4583,15.83949 -0.05,4.57585 -0.2012,10.50938 -0.4023,13.12415 l -0.3017,4.77699 -1.056,-4.02273 c -6.5369,-24.73978 -11.3642,-34.7966 -21.8233,-45.70825 -4.3244,-4.475283 -10.8111,-9.553976 -11.6156,-9.051134 -0.8548,0.502839 -0.4526,1.206817 2.8662,5.128976 6.0844,7.140338 17.7503,25.846028 24.7901,39.623868 3.9724,7.79404 6.1346,16.74461 6.4363,26.70086 0.1509,4.22387 0.1006,9.85569 -0.1006,12.57103 -0.3519,4.37472 -0.4525,4.7267 -0.9051,3.1679 -3.3187,-12.26932 -11.6659,-30.97501 -17.348,-38.86961 -4.9781,-6.98949 -12.7219,-14.12984 -19.6611,-18.20285 -5.1289,-3.01705 -5.2295,-1.91079 -0.352,3.01705 2.3634,2.36335 7.2912,8.29688 10.9117,13.22472 3.6707,4.87755 9.202,12.26932 12.2693,16.4429 6.3358,8.44773 8.0958,11.56534 10.5597,19.00739 2.4136,7.14034 3.4193,13.62699 3.017,18.55485 -0.2011,2.16221 -0.5531,3.92216 -0.8045,3.92216 -0.2514,0 -0.4526,-0.35199 -0.4526,-0.80455 0,-1.45824 -8.0957,-17.95144 -10.8614,-22.12502 -4.7769,-7.24091 -13.0738,-14.12983 -21.9741,-18.30341 -6.8889,-3.26847 -8.6489,-2.51421 -2.9668,1.20682 5.5313,3.67074 9.6043,7.49233 19.7114,18.6554 8.0957,8.95057 9.8557,11.16307 11.5151,14.58239 2.5142,5.17928 3.6707,8.79973 4.0227,12.57104 0.2514,2.56448 0.4525,3.01705 1.2571,3.01705 0.8548,0 1.1062,-0.60342 1.6091,-3.8216 0.9051,-5.27983 2.7153,-10.05682 7.1403,-18.80627 l 3.7713,-7.54261 8.5986,-8.59858 c 10.4591,-10.40881 18.404,-17.24745 25.5946,-21.97416 2.9668,-1.96108 5.3804,-3.7713 5.3804,-4.02272 0,-0.80455 -3.6204,0.15085 -8.5483,2.26278 -11.6156,4.92784 -20.1639,11.46478 -25.2929,19.35938 -5.129,7.8946 -14.4315,25.04148 -14.4315,26.65057 0,0.30171 -0.2514,0.75426 -0.6034,0.9554 -0.4023,0.25144 -0.4526,-0.10057 -0.2514,-1.2571 0.2011,-0.90511 0.6034,-4.27415 0.9051,-7.54262 0.6537,-7.29119 0.8548,-8.14602 4.5758,-17.3983 3.9222,-9.80539 6.2855,-14.28068 9.8054,-18.60511 1.6091,-1.96108 4.3747,-5.68211 6.185,-8.24659 8.146,-11.7162 17.0966,-23.28154 21.1696,-27.40484 4.073,-4.07301 4.8775,-5.33011 3.369,-5.33011 -1.3074,0 -10.6602,6.83863 -15.1355,11.0625 -8.4477,7.99517 -12.4705,13.82812 -17.4486,25.34318 -1.7097,3.87188 -4.1233,9.35285 -5.4307,12.11847 -1.2571,2.76563 -3.2684,7.39176 -4.425,10.30824 l -2.1622,5.27983 -0.05,-3.36903 c 0,-3.21818 1.9108,-13.57671 4.0227,-22.07472 2.3634,-9.35285 5.6319,-18.3537 8.2969,-22.82898 3.0171,-5.12898 7.3918,-13.72756 12.0179,-23.784384 1.76,-3.771309 4.3244,-9.201989 5.7324,-12.0179 3.0673,-6.235228 3.4193,-7.190626 2.4639,-7.190626 -0.8548,0 -7.09,7.492331 -10.6602,12.822444 -5.2798,7.894606 -8.5483,15.386936 -12.7722,29.416196 -1.4079,4.57586 -3.4193,11.21336 -4.5255,14.78353 -1.1063,3.62046 -2.4137,8.19631 -2.8662,10.20767 -0.4526,2.06165 -0.8549,3.67074 -0.9554,3.57018 -0.2012,-0.30171 0.7542,-29.56706 1.2068,-36.10399 0.4023,-5.3804 1.0057,-8.79972 2.9668,-16.593755 1.4079,-5.380399 3.2181,-14.330966 4.1232,-19.862218 0.8549,-5.531252 2.112,-12.923014 2.816,-16.493188 1.2068,-6.486649 1.5085,-9.905969 0.8548,-9.905969 -0.2514,0 -1.2068,1.96108 -2.2628,4.425002 z m -3.4193,22.275859 c -2.0617,11.967615 -3.7713,20.515915 -4.2741,21.018754 -1.1566,1.10625 2.7153,-21.421028 5.3301,-31.326996 1.2068,-4.575853 0.8045,-0.653693 -1.056,10.308242 z m -25.9969,-4.475286 c 3.3691,4.475286 6.9392,11.062502 8.6489,15.889777 2.1119,6.034092 1.4079,5.581535 -1.9611,-1.20682 -2.8159,-5.732386 -5.5312,-10.660228 -9.3528,-16.996026 -1.8103,-2.96676 -0.5029,-1.810227 2.665,2.313069 z m 43.3449,20.465631 c -1.2571,2.564489 -4.3244,8.950574 -6.8386,14.280684 -4.9279,10.45909 -6.6878,13.32529 -4.777,7.5929 2.0616,-6.03409 4.3244,-11.36421 6.4363,-15.286368 2.6651,-4.877557 6.9895,-11.66591 7.2913,-11.364208 0.1005,0.10057 -0.8046,2.262786 -2.112,4.776992 z m -44.1494,18.504544 c 1.2068,1.70966 3.0673,4.67643 4.1736,6.63751 2.2627,4.12329 6.2352,13.62699 5.8329,13.97898 -0.1006,0.15085 -1.056,-1.40796 -2.1119,-3.41932 -2.5142,-5.0787 -10.7105,-18.65541 -13.3756,-22.32614 -1.2068,-1.65938 -2.3633,-3.36904 -2.6148,-3.77131 -0.7542,-1.45824 5.8833,5.83295 8.0958,8.90028 z m 51.7423,7.39177 c -4.4753,5.48096 -7.6935,9.85568 -15.0852,20.51591 -1.8605,2.71534 -3.4696,4.92784 -3.5702,4.92784 -0.352,0 3.0674,-7.34148 4.8273,-10.40881 2.7656,-4.77699 7.2409,-10.30824 12.6213,-15.63835 2.9165,-2.81591 5.4307,-5.12898 5.5815,-5.12898 0.2012,0 -1.7599,2.56449 -4.3747,5.73239 z m -60.5923,16.79489 c 2.0616,2.16221 5.0284,5.78267 6.6375,7.99517 2.9165,4.07301 8.1963,13.57671 7.794,14.02926 -0.1508,0.10057 -1.3577,-1.40795 -2.6651,-3.41932 -3.6204,-5.43068 -9.9562,-14.07954 -14.4315,-19.71136 -4.5758,-5.68211 -3.1679,-5.12898 2.6651,1.10625 z m 64.0619,13.07386 c -0.3017,0.25142 -2.8662,2.36336 -5.7827,4.72671 -2.9164,2.36335 -7.9448,6.88892 -11.163,10.1071 -3.2685,3.1679 -5.9335,5.68211 -5.9335,5.53125 0,-0.15085 1.3576,-2.11193 2.9667,-4.32443 4.5256,-6.23523 9.3026,-10.55966 15.9401,-14.43154 3.1679,-1.86051 5.1792,-2.66505 3.9724,-1.60909 z m -60.3912,19.25882 c 4.5256,4.32443 10.8614,12.21903 10.258,12.77216 -0.1006,0.10056 -2.112,-2.01137 -4.425,-4.67642 -2.3634,-2.66506 -6.2855,-6.9895 -8.7998,-9.60427 -5.7323,-6.03409 -3.8215,-5.07869 2.9668,1.50853 z"
     id="path66"
     style="fill:#000000;stroke:none;stroke-width:0.0502842" />
  <path
     d="m -150.36294,801.42034 c -1.5,1.4 -0.5,9 1.6,13.1 1.2,2.4 4.8,7.3 8.1,11 5.2,6 23.1,33 22.4,33.8 -0.2,0.1 -3.1,-1.5 -6.5,-3.6 -9.6,-6.1 -21.4,-9.5 -25.1,-7.2 -4.9,3.2 9.9,10.3 30.3,14.7 2.6,0.5 7.7,5.5 12.8,12.5 2.2,3 6.7,8.5 10.000004,12.2 3.2,3.8 5.5,6.8 4.9,6.8 -0.5,0 -5.2,-2 -10.300004,-4.4 -10.5,-4.9 -16.6,-6.6 -23.3,-6.6 -4,0 -4.6,0.3 -4.6,2.1 0,3.8 21.8,11.9 32.300004,11.9 5.7,0 15.1,5.6 24.5,14.4 4.8,4.5 10.9,9.9 13.6,11.9 2.7,2 4.5,3.7 4.1,3.7 -0.5,0 -6.3,-1.8 -13,-4 -14.2,-4.6 -23.2,-5.8 -29,-3.8 -11.400004,3.8 -0.1,8.6 22.5,9.5 17.5,0.6 23.8,2.5 36.6,10.6 14.7,9.40003 25.8,15.10003 27.8,14.40003 2.5000002,-1 1.4000002,-2.1 -5.7,-6 -12,-6.60003 -26.4,-16.70003 -31.6,-22.20003 -3.2,-3.4 -6.6,-8.5 -8.8,-13.3 -3.2,-6.7 -3.7,-9.1 -4.4,-18.7 -1,-14.1 -4.8,-31.5 -7,-31.5 -1.5,0 -3.7,5.3 -4.4,11 -1.1,9 0.8,16.1 8.8,32 3.9,7.9 7.4,14.9 7.6,15.4 0.2,0.5 -3.9,-2.9 -9.2,-7.5 -13.7,-12.1 -18.2,-18.8 -21.8,-32.7 -1.8,-6.9 -1.9,-8.5 -0.8,-15.6 0.9,-6.2 0.9,-10 0,-17.6 -1.5,-11.1 -2.2,-13 -4.7,-11.4 -3.1,1.8 -4.7,8.3 -4.7,18.4 0,8.9 0.3,10.3 5,23.3 5.8,15.8 5.6,15.8 -6.6,0.6 -11.100004,-13.7 -12.500004,-16.9 -11.700004,-27.2 1.8,-22.3 1.8,-28.3 0.2,-32.1 -1.3,-3.2 -1.8,-3.6 -3.5,-2.7 -4.5,2.5 -5.4,15.4 -2,29.6 1.1,4.8 1.8,9.2 1.6,9.8 -0.3,1.1 -9.8,-12.3 -15,-21.3 -1.4,-2.5 -3.3,-7.4 -4.2,-10.9 -3,-11.7 -9.8,-23.1 -13.9,-23.1 -1.2,0 -2.6,0.3 -2.9,0.7 z"
     id="path68"
     style="fill:#000000;stroke:none;stroke-width:0.1" />
</svg>
