<?xml version="1.0" encoding="UTF-8" standalone="no"?>
<svg
   version="1.0"
   width="1024.000000pt"
   height="1024.000000pt"
   viewBox="0 0 1024.000000 1024.000000"
   preserveAspectRatio="xMidYMid meet"
   id="svg72"
   sodipodi:docname="ramo4.svg"
   inkscape:version="1.2.2 (b0a8486541, 2022-12-01)"
   xmlns:inkscape="http://www.inkscape.org/namespaces/inkscape"
   xmlns:sodipodi="http://sodipodi.sourceforge.net/DTD/sodipodi-0.dtd"
   xmlns="http://www.w3.org/2000/svg"
   xmlns:svg="http://www.w3.org/2000/svg">
  <defs
     id="defs76" />
  <sodipodi:namedview
     id="namedview74"
     pagecolor="#ffffff"
     bordercolor="#000000"
     borderopacity="0.25"
     inkscape:showpageshadow="2"
     inkscape:pageopacity="0.0"
     inkscape:pagecheckerboard="0"
     inkscape:deskcolor="#d1d1d1"
     inkscape:document-units="pt"
     showgrid="false"
     inkscape:zoom="0.41894531"
     inkscape:cx="804.40093"
     inkscape:cy="696.98834"
     inkscape:window-width="1536"
     inkscape:window-height="779"
     inkscape:window-x="0"
     inkscape:window-y="0"
     inkscape:window-maximized="1"
     inkscape:current-layer="svg72" />
  <path
     d="m -324.52238,96.191666 c -0.8,1.8 -5.4,9.500004 -10.3,17.000004 -17.9,27.7 -22.2,39.7 -24.2,68.19999 -1.3,17.5 -1.6,19 -5.1,27.4 -7.5,18.2 -11.2,24.3 -20.4,34 -10.8,11.2 -20.7,22.6 -26.6,30.7 -2.5,3.4 -4.5,5.9 -4.5,5.7 0,-0.3 0.9,-4 2,-8.4 1.1,-4.3 2.5,-12.2 3,-17.4 1,-8.8 1.6,-10.7 8.1,-24.4 10.6,-22.2 12,-28.7 12.6,-57.3 0.5,-22.99999 -0.1,-34.79999 -1.7,-33.79999 -0.5,0.3 -2.1,4.2 -3.6,8.8 -1.4,4.5 -5.1,13.4 -8,19.79999 -2.9,6.3 -6.2,13.8 -7.3,16.6 -5,12.8 -6.2,28.6 -3.9,52 1,10.7 1,13.4 -0.5,22 -3.1,17.4 -7.3,29.8 -15,44.3 -3.9,7.4 -9.2,17.6 -11.7,22.6 l -4.6,9.1 0.2,-17.1 c 0.1,-16 0.3,-17.8 3.2,-27.6 5.3,-18.3 5.7,-21.1 5.7,-43.5 0,-20.4 -0.1,-21.5 -3.8,-39.5 -2.1,-10.2 -4.1,-19.3 -4.3,-20.3 -0.9,-2.9 -2.2,-1 -2.9,4.1 -1.4,9.6 -5.7,31 -8.3,40.7 -2.3,8.7 -2.6,11.9 -2.6,25.5 0,16.3 0,16.3 6.8,39.4 2.2,7.4 2.6,10.8 2.6,21 0,18.8 -1.5,28 -7.8,47.1 l -5.5,17 -1.8,-9 c -1.4,-6.8 -1.8,-13.3 -1.7,-27.5 0,-15.8 -0.2,-19.7 -2.1,-26.5 -3.3,-12.8 -22.9,-50 -27,-51.3 -2.9,-1 0.2,37.4 4.4,54.1 2.8,11.1 6.4,19.1 13.6,30.7 6.1,9.8 7.3,12.5 8.5,18.9 2.5,14.4 1.5,23.9 -4.9,45.1 -4.5,14.9 -10.7,41.6 -10.7,46.2 0,3.7 2.1,5.7 3.8,3.5 0.4,-0.7 1.7,-5.7 2.6,-11.2 3.5,-19.2 10.3,-44.2 13.7,-50.3 6.6,-11.8 25,-32.7 31.9,-36.2 1.9,-1 7.3,-2.6 12,-3.5 15.5,-3.1 26.7,-8 42.5,-18.4 26.6,-17.6 33.4,-22.6 32.4,-23.6 -0.2,-0.1 -4.7,0.5 -9.9,1.5 -5.2,1 -16.1,3 -24.2,4.4 -8.1,1.5 -17.1,3.5 -20,4.7 -12.3,4.8 -24.8,15 -32.2,26.1 -2,2.9 -6.4,7.9 -9.9,11 -3.6,3.1 -9.5,9.5 -13.3,14.2 -3.8,4.6 -7,8.3 -7.2,8.2 -0.1,-0.2 0.7,-2.8 1.9,-5.7 1.1,-3 5,-14 8.5,-24.4 3.6,-10.5 7.9,-21.4 9.7,-24.3 6.6,-11 24.5,-26.8 39.2,-34.6 4.5,-2.4 6,-2.6 16,-2.6 21.7,0 38.9,-3.5 57.9,-11.9 14.3,-6.3 34.5,-16.1 35,-17 0.4,-0.6 -15.1,-1.1 -45.4,-1.3 -22.3,-0.2 -38.2,6.3 -58.6,24.1 -2.3,2 -8.7,6.5 -14.4,10.1 -5.6,3.6 -13.2,9.2 -16.8,12.5 l -6.6,6 2.6,-4.5 c 1.4,-2.5 4.7,-8.6 7.4,-13.5 5.2,-9.7 20.8,-31.3 29.7,-41.1 6.2,-6.8 13.5,-11.1 28.8,-17 23.3,-9 30.3,-9.9 48.6,-6.2 12.5,2.6 34.3,3 45.3,0.9 12.1,-2.3 39,-12.2 39,-14.2 0,-0.5 -3.2,-0.9 -7.1,-0.9 -4.8,0 -11.4,-1.1 -21.2,-3.7 -12.3,-3.1 -15.8,-3.6 -26.2,-3.7 -14,-0.1 -20.4,1.5 -37.5,9.4 -5.8,2.7 -15.5,6.3 -21.6,7.9 -12.7,3.4 -21.6,6.6 -29.3,10.5 -2.9,1.5 -5.5,2.5 -5.7,2.3 -0.8,-0.8 26.2,-26.3 35.1,-33.1 20.4,-15.7 22.7,-17 39.1,-21 8.2,-1.9 19.5,-4.3 25.2,-5.2 l 10.2,-1.6 12.3,3.8 c 11.1,3.4 13.4,3.8 26.2,4.2 12.2,0.3 15.7,0 27,-2.2 15.2,-3.1 24.5,-5.6 24.5,-6.5 0,-0.4 -3.7,-1.2 -8.2,-1.9 -4.6,-0.6 -13.5,-2.7 -19.8,-4.7 -19.3,-6.1 -34.2,-6 -54.4,0.5 -5,1.6 -15.4,4.1 -23.1,5.5 -7.7,1.4 -16.9,3.4 -20.4,4.5 -3.5,1 -6,1.5 -5.5,1 0.5,-0.5 13.3,-6.6 28.4,-13.5 20,-9.2 30.9,-13.59999 40,-16.19999 18.5,-5.1 27.7,-8.1 34.4,-11.2 8.3,-3.7 23.5,-13.3 30.4,-19 3.1,-2.6 8.5,-6.6 12,-8.9 6.3,-4.3 7.2,-5.6 4.9,-6.5 -4.1,-1.6 -39.6,8.2 -53.3,14.7 -11.4,5.4 -15.6,8.3 -29.7,20.3 -12,10.2 -13,10.9 -35,20.69999 -8.2,3.7 -17.6,8.1 -21,9.9 -3.4,1.7 -6.6,3.4 -7.2,3.6 -0.5,0.2 0.9,-1.8 3.1,-4.5 2.3,-2.7 5.9,-7.8 8.2,-11.4 3.1,-4.89999 6.2,-8.09999 12.8,-12.99999 14.9,-11.2 24.3,-23.1 33.9,-43.2 5.9,-12.4 7.8,-18.000004 5.4,-16.200004 -0.8,0.6 -5.2,3.900004 -9.9,7.400004 -14,10.5 -18.8,14.9 -25.1,23.3 -6.8,9.1 -9.7,14.4 -12.8,23.8 -2.8,8.6 -14.1,26.39999 -21.7,34.09999 -3.2,3.3 -11.5,10.1 -18.4,15.1 -10.6,7.6 -22.4,16.7 -29.1,22.4 -2.9,2.5 9,-23.8 15.6,-34.2 12.4,-19.8 17.3,-31.49999 20.9,-49.79999 3,-15.3 5.8,-37.3 5.4,-42.300004 l -0.3,-3.9 z m 54.3,32.400004 c -5.3,7.5 -20.4,25 -18.8,21.8 2.5,-4.8 20.7,-27 22.1,-27 0.3,0 -1.2,2.4 -3.3,5.2 z m 76.1,2.7 c -1.9,1.6 -47,24.3 -45.5,22.8 2.8,-2.8 23.4,-14.1 34.5,-18.9 11.6,-5 12.5,-5.3 11,-3.9 z m -148.4,23.4 c -3.2,10.7 -8,23.79999 -9.3,25.19999 -0.6,0.6 -0.7,0.5 -0.4,-0.5 8.4,-26.49999 11.1,-33.99999 12,-33.99999 0.2,0 -0.8,4.2 -2.3,9.3 z m 114,30.79999 c 4.6,0.6 9.1,1.6 9.9,2.1 1,0.6 0.4,0.8 -2,0.4 -1.9,-0.3 -11.6,-1.1 -21.5,-1.7 -9.9,-0.6 -18.2,-1.3 -18.4,-1.5 -0.9,-0.9 24.1,-0.3 32,0.7 z m -172.5,7.1 c -0.8,5.7 -5.6,30.9 -6.2,32.7 -2.2,6.9 0.7,-13.8 4.2,-29.7 1.7,-7.8 3,-9.8 2,-3 z m 119.9,39.8 c -13,1 -42.5,0.9 -34,0 3.3,-0.4 14.6,-0.7 25,-0.7 16.3,0 17.6,0.1 9,0.7 z m -165.4,26.2 c -0.2,13.3 -0.7,21.3 -1.1,19.8 -1.5,-4.4 -0.3,-42 1.3,-42 0.1,0 0,10 -0.2,22.2 z m 115.8,21.2 c -0.2,0.2 -3.8,1.1 -7.9,1.9 -6.7,1.5 -32.9,7.4 -40.5,9.3 -1.6,0.4 -2.7,0.4 -2.4,0 1,-1.1 21.4,-6.6 33.9,-9.1 10.6,-2.2 17.9,-3.1 16.9,-2.1 z m -143.4,55 c 1.4,4.9 2.1,8.5 1.6,8 -1.1,-1.2 -6.9,-20.8 -7.6,-25.4 -0.6,-4.5 2.7,5.1 6,17.4 z m 87.5,3.8 c -1.4,0.6 -7.4,3.6 -13.5,6.6 -12.3,6.1 -19.5,9.3 -19.5,8.7 0,-0.6 23,-12.7 27.9,-14.6 4.9,-1.9 9.3,-2.5 5.1,-0.7 z"
     id="path48"
     style="fill:#000000;stroke:none;stroke-width:0.1" />
  <path
     d="m 1339.0442,49.235244 c 0,0.243449 0.6956,1.147687 1.565,1.982369 0.8695,0.86946 2.7127,3.373506 4.0691,5.564545 2.0172,3.199613 3.2344,4.695085 6.1558,7.477358 4.2429,4.034294 9.7727,9.668396 9.6336,9.842288 -0.07,0.03478 -1.1129,-0.486898 -2.3302,-1.182465 -1.2172,-0.695568 -4.6603,-2.469267 -7.6512,-3.999517 -2.9909,-1.495472 -6.747,-3.616954 -8.3468,-4.695085 -5.0081,-3.408283 -9.0076,-4.938534 -15.0938,-5.703659 -1.5303,-0.20867 -4.4169,-0.556454 -6.4341,-0.834681 -5.4602,-0.695568 -5.7732,-0.313006 -1.9823,2.121483 3.8604,2.538824 9.2858,5.147204 12.3115,5.981885 1.4955,0.382563 5.0081,0.939017 7.7904,1.217244 5.4602,0.556455 6.5731,0.904239 11.8594,3.547398 4.2778,2.156262 11.4769,6.086221 11.3378,6.225335 -0.2087,0.208671 -7.0252,-0.799904 -8.6251,-1.252022 -2.3301,-0.626012 -7.4078,-0.556456 -10.2596,0.173891 -4.6255,1.182466 -12.6941,5.668881 -12.6941,7.025239 0,0.626011 0.1739,0.626011 3.5822,-0.173893 1.565,-0.382561 4.9733,-0.904238 7.5469,-1.217244 3.4778,-0.382562 5.7036,-0.86946 8.3468,-1.773699 5.4602,-1.843255 6.2253,-1.982368 9.7727,-1.530249 6.0167,0.730347 7.9643,1.565028 17.8761,7.546914 4.3473,2.60838 12.6942,8.485931 12.6942,8.93805 0,0.06956 -0.4174,0 -0.9391,-0.20867 -0.5564,-0.208671 -3.1648,-0.834682 -5.8427,-1.391136 -2.678,-0.556455 -6.1906,-1.391136 -7.8252,-1.878034 -1.6346,-0.452119 -3.8952,-0.973796 -5.0081,-1.182466 -2.6083,-0.486898 -8.938,-0.486898 -11.3725,-0.03478 -1.9476,0.382561 -10.2596,3.616954 -14.3635,5.599323 -2.817,1.391137 -3.4778,2.260597 -1.3911,1.912812 0.7651,-0.139113 4.7994,-0.382562 9.0076,-0.556454 5.5645,-0.20867 8.4511,-0.486898 10.6074,-1.008574 11.8247,-2.782272 13.2506,-2.921385 19.3368,-1.73892 4.6603,0.904239 8.5207,2.121482 10.6422,3.338727 3.0953,1.843256 15.1286,13.111463 13.1462,12.311553 -0.4869,-0.17389 -1.878,-0.73034 -3.13,-1.25202 -3.4431,-1.35636 -14.0157,-4.27774 -17.2153,-4.76464 -2.4693,-0.34779 -3.304,-0.31301 -5.8776,0.17389 -5.3906,1.07813 -7.7904,2.22582 -17.1457,8.17293 -4.9734,3.16483 -4.7995,3.68651 0.939,2.71271 1.6346,-0.27823 4.4864,-0.66079 6.3296,-0.86946 4.5908,-0.52168 8.0686,-1.70414 12.7985,-4.38208 4.9733,-2.78227 6.5731,-3.19961 10.1901,-2.43449 3.1648,0.66079 10.7465,3.02572 13.3897,4.20819 1.0085,0.45212 2.504,1.32158 3.2343,1.91281 1.9129,1.49547 8.6946,9.91185 10.3292,12.76368 3.5474,6.19056 4.243,7.47736 4.1387,7.58169 -0.07,0.0696 -0.9738,-0.59123 -1.9824,-1.46069 -1.0434,-0.86946 -2.7823,-2.05193 -3.8256,-2.64316 -1.0434,-0.59123 -3.4779,-2.12148 -5.3907,-3.33873 -6.6774,-4.38208 -11.3725,-5.98188 -17.3544,-5.98188 -3.0605,0 -3.93,0.13911 -6.8166,1.14768 -4.4516,1.53025 -10.8508,4.97332 -10.7117,5.73844 0.1043,0.41734 0.3825,0.55646 0.9738,0.45212 0.4869,-0.0696 3.3735,-0.13911 6.434,-0.17389 4.9733,-0.0348 6.0514,0.10433 10.2596,1.00857 4.3821,0.9738 5.182,1.04335 11.9986,1.04335 h 7.3034 l 1.7389,0.9738 c 4.6951,2.5736 9.0424,6.46878 10.8857,9.70318 1.3216,2.29537 5.9819,13.11145 5.9819,13.8418 0,0.13911 -0.5913,-0.313 -1.3216,-1.00857 -2.6779,-2.53883 -8.2077,-7.19913 -10.051,-8.45116 -2.504,-1.70414 -4.9733,-2.60838 -8.5207,-3.09527 -2.6084,-0.38257 -3.2344,-0.34779 -6.7122,0.34778 -5.5646,1.11291 -6.434,1.39114 -6.434,1.94759 0,0.55646 0.1391,0.59123 4.1386,1.18247 1.7389,0.27822 3.9648,1.00857 6.7818,2.26059 4.7646,2.12149 6.0167,2.46927 11.4073,3.16484 4.556,0.62601 5.6689,1.07813 8.4164,3.68651 3.8604,3.61695 5.4254,7.19913 8.6598,19.96281 1.3216,5.07765 1.5998,5.91233 2.1911,5.91233 0.5564,0 0.6607,-0.24345 0.5912,-1.63459 -0.07,-3.0605 -5.2515,-19.12813 -9.7727,-30.39633 -1.9476,-4.86898 -2.3998,-6.85134 -2.8171,-12.65934 -0.5564,-7.54691 -0.313,-8.72938 3.0605,-15.44161 3.1301,-6.22534 3.9995,-9.04239 4.556,-14.74605 0.1739,-2.05192 0.4869,-5.529762 0.6955,-7.720802 0.2087,-2.191039 0.4869,-4.903755 0.5913,-6.016665 0.2434,-2.469266 -0.4174,-2.712715 -1.6346,-0.521675 -0.4521,0.834681 -2.1215,3.47784 -3.7213,5.87755 -6.7818,10.259632 -8.5207,17.563092 -6.2253,26.292472 0.6955,2.67794 0.9042,4.41686 0.9042,7.12958 0.035,1.98237 0.1739,4.76464 0.3478,6.19055 0.1391,1.42592 0.2434,2.64316 0.1739,2.71272 -0.035,0.0696 -0.8347,-1.35636 -1.7389,-3.13006 -1.8781,-3.65173 -4.556,-8.52071 -6.9209,-12.62456 -1.9129,-3.26917 -2.8519,-6.15578 -3.3388,-10.25963 -0.7303,-5.98188 -0.6608,-6.32967 2.4693,-13.354907 3.4778,-7.790363 4.3125,-10.224852 5.2168,-15.406835 0.7651,-4.173409 1.3563,-17.145754 0.8694,-19.058566 -0.3478,-1.321579 -1.0781,-1.043352 -1.5998,0.591233 -0.626,2.121483 -1.7389,4.277743 -4.3473,8.242482 -2.7823,4.242966 -4.4168,7.65125 -5.4602,11.546431 -1.1825,4.347301 -1.1129,11.720323 0.1739,17.667432 0.5217,2.36493 0.939,5.25154 0.939,6.434 0.035,1.14769 0.2435,3.37351 0.5217,4.90376 0.2782,1.53025 0.5217,2.99094 0.5217,3.23439 0,0.52168 -5.7732,-5.98189 -8.7294,-9.80751 -1.8085,-2.33015 -4.2778,-7.33824 -5.9123,-11.928992 -0.7999,-2.191039 -0.8347,-4.834198 -0.1392,-9.842288 1.0434,-7.686028 0.4869,-15.05905 -1.565,-21.284385 -1.6694,-5.008091 -4.4516,-9.981403 -5.2863,-9.459727 -0.2087,0.139114 -0.2782,1.286801 -0.1043,3.234393 0.1739,2.225818 0.035,4.416857 -0.5217,8.555487 -1.1477,8.416375 -0.5565,14.085255 2.1562,20.136698 0.7652,1.73892 2.5389,5.738437 3.93,8.903272 1.3564,3.164834 2.8518,6.434002 3.304,7.268682 0.7303,1.4607 0.5564,1.35636 -3.1649,-2.12148 -2.191,-2.051924 -5.9819,-5.390652 -8.4859,-7.477355 -4.7647,-3.999517 -6.2949,-5.703659 -10.364,-11.511653 -3.5822,-5.077647 -3.8604,-5.66888 -5.808,-11.33776 -2.7475,-8.10337 -6.3296,-14.572153 -9.8075,-17.806545 -3.9995,-3.721289 -5.2863,-3.686511 -3.3039,0.104335 0.6608,1.286801 1.9476,4.486415 2.8518,7.060017 0.8695,2.573602 2.3997,6.294891 3.3387,8.277261 1.5651,3.234392 2.1563,3.999517 5.6689,7.651249 3.4431,3.547397 9.1119,10.746528 8.7642,11.094312 -0.07,0.06956 -1.9128,-0.973795 -4.0691,-2.364932 -2.191,-1.356358 -5.9819,-3.582176 -8.4512,-4.973312 -7.0252,-3.860403 -11.1638,-8.103369 -15.2329,-15.580726 -3.4431,-6.364448 -7.2687,-10.572636 -12.5202,-13.807028 -2.9214,-1.808477 -3.7561,-2.121482 -3.7561,-1.321579 z m 10.9204,9.355391 c 2.2606,2.817051 4.243,6.086222 3.93,6.434005 -0.4521,0.417342 -5.4602,-5.147204 -7.3035,-8.138147 -1.0781,-1.773698 -1.9824,-3.303948 -1.9824,-3.443062 0,-0.556454 3.4431,2.747494 5.3559,5.147204 z m 18.4326,0.104335 c 1.8432,2.782273 3.8952,7.094795 5.4254,11.476875 0.7651,2.260596 1.3911,4.242965 1.3911,4.486414 -0.035,0.904238 -3.5821,-3.616954 -5.008,-6.364449 -1.2868,-2.573601 -5.1125,-12.624561 -5.0777,-13.494021 0.035,-0.382563 1.8433,1.773699 3.2692,3.895181 z m -43.6121,0.86946 c 6.6426,0.765125 12.8332,2.85183 15.8241,5.355875 l 1.0434,0.86946 -1.0434,0.03478 c -1.8432,0 -6.8861,-0.695568 -8.8685,-1.252023 -1.0085,-0.313005 -3.3039,-1.217243 -5.0428,-2.017147 -3.2344,-1.530251 -7.1296,-3.860404 -5.9124,-3.547398 0.3826,0.104335 2.1911,0.347785 3.9996,0.556454 z m 72.7912,3.408284 c 2.8866,6.851346 3.5821,14.606932 2.191,24.762226 l -0.3826,2.956165 -1.1477,-2.434488 c -3.1648,-6.677454 -3.9995,-13.32013 -2.7127,-21.632169 0.313,-1.98237 0.5565,-4.242967 0.5565,-5.042869 0,-1.773699 0.2782,-1.495472 1.4955,1.391135 z m 26.3272,15.024272 c -0.7999,8.207704 -2.4345,13.702692 -6.434,21.979954 -1.252,2.5736 -1.565,2.99094 -1.7389,2.29537 -0.7651,-3.373501 -0.9042,-4.764638 -0.9042,-8.764154 0,-7.373022 1.3911,-11.685545 5.9471,-18.815119 1.1129,-1.73892 2.3301,-3.756067 2.6779,-4.486415 l 0.626,-1.356356 0.1043,2.573601 c 0.07,1.425916 -0.07,4.38208 -0.2782,6.573119 z m -71.2957,-1.182465 c 0.5564,0.208669 -4.5212,2.017147 -7.2339,2.60838 -2.678,0.556455 -9.8075,1.286802 -9.8075,1.008573 0,-0.347783 3.9995,-2.225818 6.1905,-2.956164 2.8518,-0.904238 8.9728,-1.286801 10.8509,-0.660789 z m 18.4325,14.467816 c 2.8866,0.45212 3.2692,0.834683 1.1477,1.11291 -0.9042,0.104335 -3.9995,0.799903 -6.8861,1.460693 -4.243,1.043352 -6.0862,1.321579 -9.9118,1.425914 -7.4078,0.278227 -7.4774,0.208671 -2.4345,-1.843255 7.0252,-2.921387 10.7813,-3.373506 18.0847,-2.156262 z m 65.766,8.694603 c -0.4521,5.59932 -1.1825,10.25963 -1.9476,12.52023 -0.6608,1.87803 -5.1472,11.02475 -5.4254,11.05953 -0.3826,0 -1.3564,-5.70366 -1.3564,-8.03381 0,-4.0343 1.9824,-10.05096 4.9386,-15.09383 1.8084,-3.060501 3.7908,-5.807995 3.9995,-5.599325 0.1043,0.104336 0,2.39971 -0.2087,5.147205 z m -50.8808,5.00809 c 2.2606,0.24345 2.5388,0.62601 0.6956,0.97379 -0.626,0.13912 -2.7128,1.14769 -4.6256,2.29538 -4.2082,2.53882 -7.6164,3.65173 -13.2158,4.31252 -2.2953,0.27823 -4.2081,0.45212 -4.2777,0.41734 -0.1043,-0.10433 4.9733,-3.33872 7.5817,-4.8342 2.1562,-1.21724 4.9733,-2.29537 7.4773,-2.85182 2.4693,-0.55646 3.5127,-0.59124 6.3645,-0.31301 z m 15.3721,17.21531 c 2.4692,0.66079 8.7989,3.5474 10.2248,4.66031 0.3826,0.27822 0.5565,0.62601 0.4173,0.76512 -0.1391,0.17389 -2.7127,0.27823 -5.7036,0.27823 -4.6255,0 -6.0862,-0.13911 -9.6336,-0.93902 -5.0777,-1.11291 -10.6422,-1.80847 -12.4159,-1.53025 -0.7304,0.13912 -1.3216,0.13912 -1.3216,0 0,-0.313 5.2515,-2.67793 7.4774,-3.30395 2.9909,-0.86946 7.686,-0.83468 10.9552,0.0696 z m 15.6502,21.14527 c 2.9214,0.93902 8.8337,4.86898 8.2077,5.49499 -0.313,0.31301 -7.1991,-0.86946 -9.3206,-1.59981 -1.0085,-0.34778 -3.0605,-1.21724 -4.5907,-1.91281 -1.4955,-0.69557 -2.8519,-1.25202 -3.0257,-1.25202 -0.1392,0 -0.6956,-0.17389 -1.2521,-0.41734 -0.9738,-0.38256 -0.939,-0.38256 0.939,-0.83468 2.4693,-0.59124 6.1906,-0.38257 9.0424,0.52167 z"
     id="path50"
     style="fill:#000000;stroke:none;stroke-width:0.0347785" />
  <path
     d="m 1234.1418,59.783068 c -4.2118,6.957142 -4.6255,8.198146 -4.964,15.34332 -0.2632,5.565715 -0.3384,5.979383 -1.6546,9.138302 -1.5043,3.647799 -1.7675,4.136679 -7.0324,12.033977 -2.0683,3.046101 -3.723,5.716143 -3.723,5.904173 0,0.22563 -0.1504,0.37606 -0.3009,0.37606 -0.3384,0 -0.1128,-1.57946 1.1658,-8.27336 1.241,-6.581081 0.9402,-13.613437 -0.8649,-18.727877 -1.3162,-3.685406 -1.6923,-3.572587 -3.0837,0.864942 -1.2786,4.174286 -1.1658,9.589576 0.376,15.719382 2.0308,8.085333 1.6923,10.153673 -3.1213,20.194523 -1.7298,3.61019 -3.2717,7.03235 -3.3845,7.63405 -0.3761,1.42904 -1.0906,1.8051 -0.7897,0.41367 0.1128,-0.6017 0.2632,-4.81359 0.3008,-9.36394 0.1128,-7.2956 0.038,-8.499 -0.6017,-10.3417 -1.1658,-3.422162 -2.3692,-5.490502 -4.5127,-7.784479 -2.8581,-3.0461 -3.0837,-2.707644 -2.5573,3.534981 0.4513,5.114438 1.4291,9.063088 2.8957,11.582708 2.8581,4.96401 3.1965,5.97938 3.1965,9.36394 0,4.09907 -0.8273,9.66479 -2.0683,13.76386 -0.5265,1.76749 -1.3162,4.70077 -1.7675,6.58108 l -0.8273,3.34695 -0.6017,-3.34695 c -0.3761,-1.88031 -0.7521,-5.26486 -0.9026,-7.55884 -0.4512,-7.67166 -1.9179,-11.13143 -7.0323,-16.43391 -4.588,-4.77598 -4.8512,-4.36231 -2.7829,4.02387 1.5043,6.12981 3.0085,9.47676 6.1298,13.57583 2.482,3.30934 3.1965,5.22726 3.7606,10.52973 0.3385,3.19652 0.038,8.91266 -0.7521,14.0271 l -0.4889,3.12132 -1.241,-3.87344 c -0.6393,-2.14355 -1.3914,-4.81359 -1.617,-5.94178 -1.053,-5.11444 -4.2871,-9.89042 -9.552,-14.13992 -3.4222,-2.74525 -4.7008,-3.34695 -4.7008,-2.21876 0,0.94015 2.482,7.14517 4.1367,10.26648 1.8803,3.6478 3.6102,5.75375 6.8443,8.34858 1.8427,1.46664 2.8205,2.59482 3.4598,3.94864 1.7675,3.72301 2.0307,5.67854 2.2564,18.05097 0.188,12.1844 0.376,13.95189 1.4666,14.6288 1.0906,0.67691 1.3162,-0.26324 0.7897,-3.45977 -0.2632,-1.57945 -0.6017,-5.18965 -0.7521,-8.01011 -0.2256,-4.58796 -0.188,-5.37769 0.5265,-7.70927 0.8649,-2.85807 2.6324,-5.90417 3.7606,-6.50587 0.3761,-0.22563 2.1436,-0.90254 3.8735,-1.54185 4.2871,-1.57946 6.6562,-3.19653 10.981,-7.59645 3.2717,-3.38455 4.3999,-5.18965 3.2341,-5.18965 -0.2256,0 -2.106,0.45127 -4.2119,0.97776 -7.258,1.8427 -11.2819,4.62556 -13.9519,9.77761 -0.7521,1.42903 -1.9931,3.53498 -2.7076,4.66316 l -1.3539,2.06834 0.2257,-4.70077 c 0.1504,-2.59483 0.4889,-5.86656 0.7897,-7.33321 1.0154,-4.70077 4.2495,-10.45451 6.6187,-11.65791 0.5265,-0.30085 2.3692,-0.86494 4.0991,-1.31622 4.0238,-1.01536 6.7691,-2.4444 10.1912,-5.22726 3.6478,-2.93328 8.3862,-7.74687 8.0854,-8.23575 -0.2257,-0.37606 -3.9863,0.41367 -8.6871,1.8427 -3.2341,0.97776 -7.1451,2.97089 -9.1759,4.70078 -1.6546,1.42903 -7.0699,8.16054 -9.0254,11.24424 l -1.2034,1.88031 0.2256,-1.50424 c 0.4137,-2.51962 2.0307,-9.17591 3.0085,-12.41004 1.2786,-4.17429 5.1144,-9.74 7.8973,-11.46989 0.7145,-0.45127 2.7452,-1.01536 4.776,-1.35382 6.0922,-0.94015 9.0631,-2.21876 14.0271,-5.97939 3.3093,-2.51961 5.0768,-4.13668 5.0768,-4.73837 0,-1.2034 -11.5075,1.20339 -15.7946,3.30934 -2.3316,1.12818 -3.6478,2.21876 -7.9725,6.54348 -2.8581,2.82046 -5.1897,5.34008 -5.1897,5.56571 0,0.22564 -0.1504,0.41367 -0.3384,0.41367 -0.4513,0 0.3008,-1.76749 4.0991,-9.62718 2.67,-5.52811 3.1589,-6.24263 5.6785,-8.76224 3.9863,-3.91105 5.2649,-4.58796 10.0785,-5.18966 5.1144,-0.6393 8.1229,-1.54185 12.7108,-3.873434 3.7983,-1.88031 5.2649,-3.008494 4.8136,-3.723011 -0.376,-0.639306 -9.0254,-0.526487 -11.6579,0.150423 -3.0461,0.78973 -6.2426,2.594827 -9.0255,5.076835 -1.3162,1.128187 -3.4221,2.895677 -4.7007,3.873437 l -2.3316,1.8051 0.9777,-1.61707 c 2.294,-3.873436 7.3709,-10.868186 9.6272,-13.237375 1.6547,-1.729884 3.1589,-2.933282 4.7008,-3.647799 2.1059,-1.015367 2.5572,-1.090579 6.8067,-1.090579 3.3094,0 5.3401,-0.188031 7.5213,-0.752124 3.5349,-0.902548 9.928,-3.911042 9.928,-4.700772 0,-0.752123 -3.3094,-1.09058 -8.3862,-0.827336 -4.8136,0.18803 -6.9947,0.827336 -11.2442,3.309344 -1.5043,0.864942 -3.4598,1.955521 -4.3248,2.482008 -0.9025,0.48888 -1.617,0.752123 -1.617,0.564092 0,-0.676911 9.4015,-10.153668 11.169,-11.281853 1.0154,-0.639306 3.1965,-1.692278 4.9264,-2.331584 1.7299,-0.676911 4.3999,-2.030733 5.9418,-3.083706 2.67,-1.76749 6.9571,-6.092201 8.499,-8.536603 0.6769,-1.015367 0.6769,-1.203398 0.1504,-1.391428 -0.3384,-0.112819 -1.9931,0.225637 -3.6854,0.789729 -5.6785,1.805097 -10.3417,4.92641 -13.3878,8.950271 -0.9777,1.27861 -4.4751,5.11444 -7.7845,8.536603 -3.3093,3.422161 -6.4306,6.844324 -6.9195,7.634054 -0.9025,1.466641 -1.5795,1.692278 -0.8273,0.300849 0.2632,-0.413668 0.7897,-1.917915 1.2034,-3.309344 0.4512,-1.391428 1.2786,-3.234131 1.8427,-4.061467 1.8427,-2.707644 3.7982,-6.994749 4.3623,-9.55197 0.5641,-2.707644 0.7145,-11.319459 0.188,-11.319459 -0.1504,0 -1.1658,1.391429 -2.2188,3.083707 z"
     id="path52"
     style="fill:#000000;stroke:none;stroke-width:0.0376062" />
  <path
     d="m 1435.1378,533.82733 c -1.8,3.4 -0.1,12.2 3.7,19.7 1.9,3.7 7.1,11 11.7,16.2 4.5,5.2 10.6,13.8 13.6,19 3,5.2 6.1,10.6 7,12 l 1.6,2.4 -3.5,-2.4 c -1.9,-1.4 -7.5,-6.2 -12.3,-10.8 -9.6,-9.1 -17.1,-13.3 -27,-15.3 -5.1,-1.1 -6,-1 -7.5,0.5 -2.2,2.2 -1.2,3.8 6.2,9.8 7.4,5.9 15,10 25.2,13.3 9.6,3 15.5,6.7 21.5,13.3 7.8,8.6 34.9,44 34.9,45.7 0,0.3 -2.4,-1 -5.2,-2.8 -2.9,-1.9 -7.4,-4.7 -9.9,-6.3 -2.6,-1.6 -8.8,-5.7 -13.8,-9.1 -11.1,-7.5 -17.4,-10 -29.4,-11.5 -11.4,-1.4 -19,-0.3 -19.5,2.7 -0.2,1.5 1.4,3 6.5,6.1 16.6,10.2 24.8,12.9 41.8,14 8.3,0.6 11,1.2 16,3.7 8.9,4.4 18.7,12 25.8,20 8.5,9.7 23,27.7 22.2,27.7 -0.4,0 -1.9,-0.8 -3.3,-1.9 -1.5,-1 -6.3,-3.8 -10.7,-6.1 -4.4,-2.4 -9.6,-5.5 -11.5,-7 -8.6,-6.7 -19.9,-10.4 -31.5,-10.2 -7.3,0.1 -25.8,3.2 -27.2,4.5 -1.5,1.6 1.2,3.7 8.2,6.6 14.6,6.1 21.3,7.4 40,7.5 l 17,0.2 6.5,3.3 c 11.2,5.8 20.4,12.7 27.9,20.8 7,7.5 31.8,39.3 30.7,39.3 -0.3,0 -2.6,-1.5 -5,-3.3 -2.4,-1.9 -7.4,-5.1 -11.2,-7.2 -3.8,-2.1 -10.4,-6.3 -14.8,-9.2 -10.6,-7.3 -16.4,-10.1 -25.4,-12.4 -10.5,-2.7 -21.9,-2.4 -36.2,0.9 -15.9,3.7 -15.8,4.6 1,11.1 25.4,9.9 27.9,10.5 49.5,10.5 l 19,0.1 6.5,3.4 c 16.1,8.3 24.8,16.6 33.4,31.8 5,9 14.6,29.2 14.6,31 0,0.3 -2.6,-1.9 -5.7,-4.9 -3.2,-3 -8.5,-7.3 -11.8,-9.6 -3.3,-2.4 -8.7,-6.5 -12,-9.3 -10.5,-8.8 -26.1,-14.8 -38.5,-14.9 -11.1,0 -40.5,7.2 -40.5,10 0,1 4.4,3 14,6.3 27.9,9.5 40.4,11.8 59.4,11 11.6,-0.6 11.9,-0.5 17,2.2 4.8,2.7 17,14.3 20.5,19.7 3.4,5.2 12.6,36.7 12.6,43.1 0,1.9 -11.6,-10.2 -15.8,-16.4 -4,-6 -9.2,-10.1 -17.9,-14.1 -6.6,-3.2 -7.2,-3.3 -22.6,-3.6 -16.8,-0.4 -23.1,0.2 -22.5,2.1 0.2,0.7 1.9,1.9 3.8,2.7 1.8,0.8 7.2,3.5 11.9,6 19.1,9.9 24.6,12.2 36.3,15.1 13.8,3.5 17.1,5.1 22.6,11.5 6.1,6.9 6.7,10.3 6.7,39.6 -0.1,23.5 0.1,25.8 1.6,25.8 0.9,0 2,-0.8 2.4,-1.8 0.9,-2.3 0.6,-36.8 -0.5,-49.2 -0.9,-11.2 0.7,-29.7 3.5,-37.8 0.9,-2.7 4.7,-8.7 9.1,-14.2 15.8,-19.9 21.2,-32.1 24.5,-55 2.2,-15.3 2,-18 -1.4,-16.7 -1.7,0.7 -18.2,22.3 -22.9,30.2 -5.6,9.2 -8.8,20 -9.9,33.4 -0.6,6.4 -2.2,16 -3.7,21.4 l -2.6,9.9 -2.2,-7.9 c -1.1,-4.3 -3.7,-13.3 -5.7,-19.9 -2.8,-9.3 -3.8,-15.4 -4.8,-26.6 -1.5,-18.1 -0.7,-23.3 6.1,-39.1 9.2,-21.2 11.4,-36.5 9,-61.5 -1.2,-12.8 -2.4,-16.3 -5,-14.7 -3,1.8 -11.1,21.6 -15.2,36.8 -2.9,10.9 -3.1,31 -0.3,40.7 1.2,4.5 1.7,8.9 1.4,14 -0.2,4.1 -0.3,11.3 -0.3,16 v 8.5 l -6.7,-13.2 c -3.7,-7.3 -7.7,-14.6 -8.9,-16.2 -7.3,-10.4 -14.6,-33 -15.7,-49.1 -0.5,-7.9 -0.3,-9.1 2.5,-16.1 5,-12.3 6.5,-22.2 5.9,-36.8 -0.5,-12 -3.1,-24.9 -5.4,-27.2 -1.8,-1.8 -4.1,0.3 -6.7,6.1 -4.9,10.9 -6.9,20.4 -7,33.5 -0.1,10.6 0.3,13.4 3.1,23.5 1.7,6.3 3.6,16 4.2,21.6 0.6,5.5 1.9,12.8 3,16.2 1,3.4 1.6,6.2 1.2,6.2 -0.3,-0.1 -3.4,-3.8 -6.8,-8.3 -3.3,-4.5 -10.2,-13.4 -15.2,-19.7 -10.8,-13.6 -14.2,-19.8 -17.1,-30.5 -3.6,-13.8 -3.7,-18.9 -0.4,-30.2 4.9,-16.9 3.8,-37.4 -2.7,-51.1 -1.2,-2.4 -2.6,-4.1 -3.3,-3.9 -1.6,0.5 -6.3,15 -7.7,23.7 -1.5,9.9 -0.6,18 3.5,32.5 1.9,6.6 4,14.9 4.6,18.5 0.6,3.6 1.8,8.7 2.6,11.4 2.7,9.4 3.4,9.9 -14.7,-12.5 -6.4,-7.9 -12.6,-16.3 -13.7,-18.5 -3.3,-6.4 -6.2,-18.1 -6.9,-26.9 -0.5,-6.9 -0.2,-9.2 2.2,-16.8 2.5,-8 2.7,-9.7 2.3,-20 -0.6,-11.9 -2.2,-18.3 -5.1,-20.1 -2.5,-1.5 -5.1,2 -7.7,10.4 -3,9.5 -2.8,21.2 0.5,31.7 1.4,4.5 3.4,12.8 4.4,18.5 1.1,5.6 2.3,11.2 2.7,12.3 1.1,3 0,1.7 -7.3,-8.8 -3.8,-5.3 -9.6,-13.2 -13,-17.6 -10.5,-13.7 -13,-23.7 -9.4,-37.8 2.5,-9.8 2.7,-20 0.5,-28.8 -2.6,-10.5 -5.9,-11 -9.5,-1.7 -3.4,9.1 -3,18.9 1.3,34.9 2,7.3 3.3,13.3 3,13.3 -0.4,-0.1 -4.5,-6.7 -9.2,-14.7 -7.3,-12.8 -8.8,-16.2 -11.2,-25.8 -3.4,-13.2 -8.5,-24.1 -14.2,-30.1 -4.7,-4.8 -7.9,-5.6 -9.7,-2.3 z m 155.8,151.6 c -0.2,2.1 -0.4,0.6 -0.4,-3.2 0,-3.9 0.2,-5.5 0.4,-3.8 0.2,1.8 0.2,5 0,7 z m 41.9,53 c -0.4,5.9 -1.2,11.5 -1.7,12.3 -0.7,1 -0.9,0 -0.5,-3.5 0.3,-2.8 0.8,-8.3 1.2,-12.3 1,-11.2 1.8,-8.5 1,3.5 z m -93.5,-0.2 c 4.6,1.3 7.5,2.4 6.4,2.4 -1.1,0 -6.9,-1.3 -13,-2.9 -6.5,-1.8 -9.1,-2.8 -6.4,-2.4 2.6,0.3 8.4,1.6 13,2.9 z m 34,53.5 c 5.6,1.1 10.4,2.2 10.7,2.5 0.9,0.8 -1.3,0.6 -13.1,-1.5 -6.2,-1 -13,-2.1 -15.2,-2.3 -3.2,-0.3 -2.8,-0.4 1.7,-0.5 3.2,-0.1 10.3,0.7 15.9,1.8 z m 89.4,18.2 c -4.7,10.5 -6.3,13.3 -5,8.8 1.2,-4 8.8,-20.1 9.2,-19.6 0.3,0.3 -1.6,5.1 -4.2,10.8 z m -56.7,38.8 c 3.4,1.6 6.2,3.1 6.2,3.4 0,0.4 -14.1,-5.3 -14.9,-6 -1.5,-1.4 3.4,0.1 8.7,2.6 z"
     id="path54"
     style="fill:#000000;stroke:none;stroke-width:0.1" />
  <path
     d="m -254.82657,308.06719 c -0.2,0.7 -1.8,5.8 -3.4,11.3 -1.7,5.5 -3.6,12 -4.2,14.4 -1.4,5.5 -1.5,22.2 0,31.9 0.8,5.8 0.7,10.8 -0.6,23 -0.8,8.6 -1.3,17.7 -1,20.1 1,7.3 -0.4,4 -3.5,-8.4 -4.7,-18.9 -9.7,-29 -20.3,-40.9 -7.2,-8.2 -8.1,-4.6 -3.4,13.2 3.6,14.1 9.3,25.2 17.4,34.4 7.9,8.9 9,14.5 9.8,48.8 l 0.6,23.5 -3,-5.8 c -1.7,-3.1 -4.8,-10.7 -7,-16.9 -6.2,-17.4 -12.1,-24.8 -27.2,-34.4 -4,-2.5 -9.2,-5.9 -11.5,-7.5 -7.8,-5.5 -8,-3.4 -0.9,11.7 8.5,17.8 14.7,25.6 30.2,37.6 10.3,7.9 15.7,14.8 19.3,24.3 1.1,2.9 3.4,14.7 5.1,26.2 1.6,11.4 3.6,23.5 4.4,26.8 0.8,3.3 1.3,6.1 1.2,6.3 -0.6,0.5 -12.2,-16.7 -17.1,-25.4 -8.9,-15.6 -19.5,-25 -35.8,-32 -4.5,-1.9 -10.6,-4.9 -13.6,-6.5 -4.9,-2.8 -8.1,-3.2 -8.1,-1 0,2 14.5,22.8 19.8,28.3 6.1,6.4 15.8,13 30,20.3 11,5.6 18.2,12.9 24.4,24.7 5.4,10 7,14.4 13.3,36.3 2.9,10.4 6.1,21 7,23.4 1.8,5.3 1.4,6.2 -1.1,2.4 -1,-1.5 -4.1,-5.6 -6.8,-8.9 -2.8,-3.4 -7.1,-9.4 -9.6,-13.4 -2.5,-4 -7.4,-10.3 -11,-14 -8.1,-8.4 -15.9,-12.3 -36,-18 -7.9,-2.2 -16.4,-5 -18.8,-6 -10.5,-4.7 -9.6,-2.3 5,13.2 16.4,17.4 25.2,23.4 44.3,30.1 18.8,6.6 22.2,9 32.1,22.3 8.1,11 11.7,18.2 19.2,39.2 l 7,19.4 -3.5,-3.4 c -1.9,-1.8 -6.4,-7 -10,-11.5 -3.5,-4.5 -8.4,-10 -10.9,-12.1 -8.7,-7.8 -25.4,-14.7 -41.4,-17.1 -4.1,-0.7 -9.4,-1.9 -11.8,-2.7 -8.1,-3 -8,-1 0.3,6.9 16.9,15.7 31.2,24.2 50.1,29.6 13.9,4 16.5,5.4 23.3,12.7 8.7,9.3 11.1,13.2 25,40.8 17.8,35.3 34.4,61.4 37.9,59.2 2.1,-1.3 1.3,-3.1 -4.4,-10.7 -13.5,-18 -26.4,-41.4 -29,-52.7 -0.9,-3.7 -1.7,-11.2 -1.7,-16.8 -0.2,-10.1 -0.2,-10.1 4.1,-18.3 5.6,-10.8 7.3,-15.5 12.2,-33.8 4.2,-16.1 4.6,-18.8 2.9,-19.9 -2.1,-1.3 -15.5,13.9 -19.8,22.5 -5.6,10.9 -6.5,32.2 -2.5,57.6 1.3,8.7 -16.9,-29.8 -24.1,-51 -2.1,-6 -2.9,-10.6 -3.2,-18.5 -0.9,-18.7 2.3,-28.1 13.6,-40.3 3.7,-4 8.5,-9.7 10.8,-12.7 4.8,-6.3 13,-23 19.8,-39.9 5,-12.8 4.8,-15.7 -0.7,-10.5 -1.8,1.7 -6.3,5.4 -9.9,8.2 -11.6,9 -24.8,24.6 -29.6,34.9 -2.8,6 -5.3,18.3 -5.3,25.8 0,3 -0.7,9.8 -1.5,15.2 -0.8,5.4 -1.6,11.4 -1.7,13.3 -0.3,3.2 -0.6,2.7 -3.5,-5.3 -1.8,-4.8 -5.6,-16.3 -8.5,-25.5 -5,-16 -5.2,-17.2 -5.2,-28.2 0,-22.5 2.5,-28.3 19.5,-45 14.1,-13.9 18.4,-20 28.9,-40.7 6.8,-13.5 7.9,-16.6 6.1,-17.7 -0.4,-0.3 -6.3,3.1 -13,7.5 -23.9,15.9 -35.1,31.7 -39.1,55.4 -1.2,6.6 -2.8,14.7 -3.6,18 -0.9,3.3 -1.9,8.9 -2.3,12.5 l -0.7,6.5 -2.8,-8.5 c -3.9,-12.1 -10.6,-46.6 -10.6,-54.7 0,-8.2 3.1,-21.6 6.4,-28.1 3.2,-6.2 6.3,-9.5 17.1,-18.3 5,-4 9.5,-7.8 10,-8.4 3.6,-3.5 10.1,-12.9 14.1,-20.3 2.6,-4.8 6,-10.9 7.6,-13.6 4.1,-6.7 2.5,-7.9 -4.4,-3.4 -2.9,1.9 -9,5.8 -13.5,8.7 -11.2,7.1 -21.1,17.9 -26.3,28.5 -2.2,4.4 -5.8,14.6 -8,22.6 -5.8,20.4 -5.2,19.1 -6.1,15 -0.5,-1.9 -1.4,-15.4 -2,-30 -1.2,-26.5 -1.2,-26.5 1.1,-34.5 2.3,-8 2.3,-8 14,-19.5 14.4,-14.1 16,-16.3 21.6,-29.1 6.5,-15 6.2,-15.5 -4.9,-8 -14.1,9.5 -23.6,22.3 -28.7,38.9 -3.6,11.4 -4.4,10.2 -3.6,-5.4 1.3,-25.8 2.2,-31.4 6.7,-42.4 4.7,-11.8 6.9,-21 6.9,-29.8 0,-7.1 -2.5,-20.3 -4.6,-24.4 -1.5,-3 -3.2,-3.6 -3.8,-1.6 z m 3.7,25.8 c 0,10.4 -0.3,12.4 -3.3,21.5 -3.3,9.8 -3.4,9.9 -4.3,6.5 -0.5,-1.9 -0.7,-9.1 -0.4,-16 0.4,-10 1,-14.2 3.2,-21 2.7,-8.2 2.8,-8.4 3.8,-5.5 0.5,1.6 1,8.2 1,14.5 z m -32.5,37.5 c 2.4,3.5 5.4,8.9 6.7,11.9 2.7,6.1 6.7,20.6 5.6,20.6 -0.3,0 -2.6,-3 -5,-6.6 -3.8,-5.7 -7.3,-14.3 -12.1,-29.7 -1.4,-4.4 0.3,-3.1 4.8,3.8 z m 54.1,14.2 c -2.3,4.8 -5.7,9.3 -12.3,16.1 -5,5.1 -9.2,8.9 -9.4,8.3 -0.5,-1.6 6.2,-15 10.2,-20.3 4,-5.2 13.9,-13.3 14.4,-11.8 0.2,0.5 -1.1,4 -2.9,7.7 z m -73.9,39.8 c 8.5,5.5 15.2,11.5 19.2,17.2 2.6,3.8 10.2,22.3 9.2,22.3 -0.2,0 -3.7,-2.6 -7.7,-5.9 -8.3,-6.7 -14.4,-13.2 -18,-18.7 -4,-6.5 -10.9,-19.4 -10.3,-19.4 0.3,0 3.8,2 7.6,4.5 z m 93,9 c -6.7,12.2 -12,18.6 -22.3,26.8 -5.3,4.3 -9.9,8.2 -10.2,8.7 -0.3,0.6 -1,1 -1.5,1 -1.4,0 5.2,-15 9,-20.6 1.9,-2.7 5.7,-7.1 8.5,-9.8 4.9,-4.9 19.4,-15 20.2,-14.2 0.3,0.2 -1.4,3.9 -3.7,8.1 z m 15.5,60.7 c -8.6,16.9 -13.4,23.5 -25.2,34.7 -5.8,5.5 -10.7,10 -10.8,9.9 -0.1,-0.2 0.6,-3.7 1.6,-7.8 2.9,-11.5 8.2,-21.1 16.8,-30.3 6.8,-7.1 22,-19.2 23,-18.1 0.2,0.2 -2.2,5.4 -5.4,11.6 z m -105.4,2.2 c 4.6,2.2 8.6,5.2 14.5,11 7.2,7.3 16.3,20.1 15,21.3 -0.6,0.7 -16.5,-7.9 -23.6,-12.7 -8.2,-5.6 -17.8,-16.5 -24.3,-27.7 -0.4,-0.6 2.1,0.3 5.6,2 3.5,1.8 9.2,4.5 12.8,6.1 z m 124.9,52 c 0,1.2 -12,28 -14.4,32 -1.5,2.6 -5.5,7.9 -8.9,11.8 -3.4,3.8 -7.9,9.1 -10.1,11.6 l -3.8,4.7 0.7,-7 c 1.1,-9.9 3.8,-18 8.7,-25.5 6.1,-9.5 27.8,-31 27.8,-27.6 z m -121.5,19.1 c 14.5,4.4 23.4,8.4 29.3,13.2 4.1,3.4 16.7,19.1 15.9,19.9 -0.7,0.7 -19.4,-5.9 -26.2,-9.2 -3.8,-1.9 -9.9,-5.6 -13.5,-8.3 -8,-6.1 -22.3,-20.5 -19.5,-19.7 1.1,0.3 7.4,2.1 14,4.1 z m 42.5,78.9 c 9.8,3.9 16.8,8.7 23.6,16 3.6,3.8 6.2,7.1 6,7.3 -0.8,0.8 -22.7,-6.8 -29.7,-10.3 -6.8,-3.4 -20.6,-13.2 -24.7,-17.7 l -2.3,-2.4 10.6,2.3 c 5.8,1.3 13.2,3.4 16.5,4.8 z m 81.6,5.5 c -3.5,13.6 -6.1,21.3 -9.9,28.5 l -3.2,6.1 -0.3,-7.4 c -0.3,-8.7 1,-15.7 4.2,-22.6 2.4,-5.1 10.5,-16 11.3,-15.1 0.2,0.2 -0.7,4.9 -2.1,10.5 z"
     id="path56"
     style="fill:#000000;stroke:none;stroke-width:0.1" />
  <path
     d="m 565.27507,52.937955 c -15.46372,34.22636 -19.3812,59.174495 -14.43281,96.081235 2.26801,18.35028 2.06183,22.68012 -3.09274,58.96831 -2.88656,21.44303 -5.77312,39.38094 -6.18549,39.79331 -0.41237,0.41236 -1.2371,-3.7113 -1.85565,-9.27824 -3.71129,-29.48415 -7.62876,-47.0097 -13.60807,-60.20541 -7.62877,-16.28845 -14.4328,-24.1234 -19.79356,-22.06157 -2.88656,1.2371 -3.29892,3.50511 -2.26801,17.31937 1.2371,18.14409 7.01022,35.66964 17.52555,51.95809 13.1957,20.82448 14.84517,25.77287 14.84517,49.4839 0,19.79356 -3.50511,56.90649 -7.83495,80.41134 l -1.64947,9.27823 -1.44328,-9.27823 c -3.71129,-22.06157 -12.57715,-53.60756 -18.96883,-67.00945 -11.54624,-24.1234 -26.18523,-37.93766 -32.16453,-30.51507 -5.9793,7.01022 9.07205,43.09223 28.24706,68.24654 14.02044,18.55647 15.25754,21.85539 17.31936,44.7417 1.44328,15.46372 0.82474,23.29867 -3.29892,46.39115 -8.4535,48.65917 -10.30915,56.70031 -11.75243,54.22611 -0.82473,-1.2371 -2.88656,-12.37097 -4.53602,-24.74195 -4.12366,-29.48416 -6.80404,-40.61803 -12.98953,-54.01992 -6.39167,-13.40189 -19.38119,-27.62851 -24.32958,-26.5976 -7.42259,1.44328 -8.04113,6.59785 -3.09274,25.77286 4.7422,18.96883 15.6699,41.64895 27.83469,57.52504 14.4328,18.96883 14.84517,48.65917 1.44328,110.72022 -4.53602,20.20593 -8.4535,37.31911 -9.07205,37.73148 -0.41236,0.41236 -2.47419,-10.9277 -4.32984,-25.3605 -2.06183,-14.63899 -4.53602,-32.37072 -5.56694,-39.7933 -2.68038,-17.31937 -17.31936,-47.62826 -28.86561,-59.38068 -14.02044,-14.22662 -18.55646,-10.72152 -14.4328,11.13387 4.12366,22.68012 14.4328,47.62826 28.24706,68.45273 8.86586,13.40189 13.60807,22.47394 14.63899,29.07179 2.88656,17.73173 1.44328,47.62826 -3.29893,66.18472 -6.59785,25.56668 -19.17501,65.97853 -20.61829,65.97853 -1.85565,0 -6.39167,-35.46346 -6.39167,-48.65917 0,-17.11318 -4.12366,-34.02018 -11.95861,-49.07153 -8.04114,-15.46372 -29.48416,-39.7933 -33.19545,-37.52529 -3.71129,2.26801 -2.68038,15.6699 3.09274,38.5562 5.97931,23.50486 13.60807,42.2675 23.50485,56.70031 13.81426,20.41211 15.25754,25.15431 15.25754,46.18497 -0.20618,22.06157 -2.88656,31.54599 -23.50485,85.77209 -16.49464,43.09223 -38.35002,85.7721 -76.70005,149.89498 -10.10296,16.9069 -14.02044,24.94803 -12.57715,26.39133 5.9793,5.9795 10.30914,-0.2062 41.44276,-56.9064 39.7933,-72.98875 43.5046,-78.96806 56.7003,-90.92666 14.84517,-13.40189 25.15432,-19.58738 38.55621,-22.88631 19.79356,-4.94839 51.13336,-22.06157 69.68982,-37.73147 11.13388,-9.6906 16.907,-16.08227 16.907,-18.76265 0,-4.12366 -0.82473,-4.32984 -11.54624,-2.88656 -32.5769,3.91748 -59.38068,16.08227 -76.90623,34.84491 -14.22662,15.05136 -44.32932,44.53551 -44.74169,43.91697 -1.2371,-1.2371 31.13362,-84.32882 37.31911,-96.08124 3.91747,-7.42259 11.95861,-19.3812 17.93791,-26.5976 9.48442,-11.75243 12.98952,-14.22662 34.22637,-24.32958 27.83469,-13.40189 42.47368,-22.88631 58.34976,-38.14384 12.57716,-12.16479 23.91722,-27.8347 21.64921,-30.10271 -2.4742,-2.47419 -24.53577,3.29893 -39.38094,10.30915 -22.8863,11.13387 -38.35002,24.1234 -54.84466,46.39115 -14.63898,19.58738 -28.04087,35.87583 -30.72125,37.11293 -0.61855,0.20618 1.2371,-7.2164 4.32984,-16.70082 3.09274,-9.48441 8.04113,-26.80378 11.13388,-38.5562 6.80403,-26.80378 20.41211,-55.25702 32.98926,-69.48365 6.80404,-7.62876 13.60808,-12.78334 25.3605,-18.14409 22.47394,-10.72151 39.58712,-23.71104 54.22611,-40.82422 15.6699,-18.76265 19.79356,-25.77286 15.46372,-27.42233 -4.53602,-1.64946 -25.15432,4.74221 -39.38094,12.16479 -17.31936,9.27824 -30.1027,23.09249 -52.57664,56.49412 -10.51533,16.08227 -19.58738,29.07179 -19.79356,28.86561 -0.20618,-0.20618 3.09274,-16.907 7.42258,-36.90674 13.81426,-65.1538 25.3605,-86.39064 59.79305,-109.48313 20.41211,-13.60807 38.96857,-33.19545 47.62825,-49.69008 9.89678,-19.17501 7.21641,-21.03066 -15.25753,-9.89678 -20.41211,10.10296 -36.08201,25.3605 -47.83444,46.80352 -12.78334,23.29867 -28.45324,47.83444 -27.00996,42.2675 0.82473,-2.88656 3.71129,-19.58738 6.39167,-37.11293 11.54624,-72.98875 14.02044,-78.34951 47.42207,-103.50382 26.5976,-19.99974 55.4632,-57.31885 49.07153,-63.71052 -6.39167,-6.39167 -34.63873,9.89678 -49.4839,29.07179 -5.36075,7.01022 -14.63898,22.06157 -20.61829,33.60781 -5.9793,11.54625 -10.72151,19.99975 -10.72151,18.96883 -0.20618,-1.23709 2.06183,-18.35028 4.94839,-38.14384 8.24732,-58.55594 11.95861,-68.24654 30.92744,-81.44225 6.39167,-4.32984 15.6699,-12.57716 20.82447,-18.1441 9.89678,-10.92769 26.80378,-43.09222 24.53577,-46.80352 -3.50511,-5.77312 -19.58738,1.64947 -31.13362,14.63899 -7.01022,7.83495 -18.35028,26.5976 -23.71104,38.96857 -2.68037,6.18549 -6.39167,14.02044 -8.4535,17.52555 l -3.71129,6.18549 1.2371,-12.37098 c 5.9793,-55.66939 8.65968,-70.72074 15.87608,-86.80301 3.91748,-8.86586 8.24732,-19.99974 9.27824,-24.53576 3.71129,-14.84517 4.94839,-40.824215 2.47419,-59.793044 -3.71129,-30.927438 -5.56694,-32.370718 -14.4328,-12.783341 z"
     id="path58"
     style="fill:#000000;stroke:none;stroke-width:0.206183" />
  <path
     d="m -630.0979,453.41754 c -1.5,3 -1.2,8.2 1,15.2 2.5,8.1 7.4,16.3 14.5,24.2 4.2,4.6 7.5,10 13,21.2 6.5,13.4 12.5,26.9 12.5,28.4 0,1.2 -7.7,-7 -13.5,-14.4 -13.4,-17.1 -26.6,-26 -31.3,-21.3 -2.5,2.5 -1.1,5.2 6.1,12.2 5.5,5.4 9.7,8.3 16.8,11.9 16,8 24.5,18.6 33.8,42.3 3.3,8.2 6.3,16.3 6.7,18 0.7,2.8 0.6,2.8 -2.7,-1.2 -14,-17.1 -29.4,-32.5 -35.3,-35.3 -6.3,-3.1 -15.3,-3.5 -17,-0.8 -0.9,1.6 -0.2,2.7 5.8,8.3 7.4,6.9 15.5,11.9 25.1,15.5 7.5,2.8 17.5,12.1 24.6,22.8 3.8,5.8 6,11 10.3,24.5 6.6,20.5 10.7,34.8 10.2,35.3 -0.2,0.2 -1.7,-2 -3.4,-4.9 -5.8,-10.2 -25.6,-34.5 -32.4,-39.9 -6.7,-5.3 -15.9,-9.5 -23.9,-11 -12.1,-2.2 -13.1,0.9 -3.1,9.8 14.5,12.7 25.1,19.5 35.2,22.4 8.5,2.4 14.7,9 23.5,24.9 6.4,11.6 7.9,16.7 10.9,37 1.5,9.6 2.9,18.8 3.2,20.5 0.3,2 -1.1,0.1 -4.3,-5.6 -2.6,-4.7 -7,-12.6 -9.8,-17.5 -6.1,-10.9 -17.2,-22.5 -26,-27.1 -10.4,-5.4 -25.6,-8.2 -26.8,-4.9 -0.4,0.9 4.3,6.2 12.6,14.3 13.4,13 21.8,19.1 31.9,22.8 8.6,3.2 15.1,11.9 21.4,28.5 2.8,7.5 2.8,7.5 3.2,37.2 0.3,21.1 0.1,29.8 -0.7,29.8 -0.6,0 -1.1,-1.1 -1.1,-2.5 0,-2.8 -9.8,-29.2 -13.7,-36.9 -4.3,-8.5 -14.3,-17.5 -25.4,-23 -10.3,-5.1 -18.9,-7.1 -18.9,-4.4 0,2.3 15.2,21.2 23.5,29.3 3.9,3.8 10.1,8.7 13.7,10.8 8.3,4.8 11.1,7.8 13.8,14.6 6.8,17.3 6.8,32.8 -0.1,58.1 -3.1,11.5 -8.5,27.8 -11.8,35.50003 -2.9,6.9 -3.1,9.5 -0.5,9.5 2.1,0 4,-3.6 8.8,-16.70003 5.5,-15 10.7,-35.5 14.5,-58.3 3.1,-17.9 9.1,-39.2 13.8,-48.4 1.4,-2.7 6.2,-8.5 10.7,-13 9.2,-9 14.6,-17.3 20,-30.9 4.2,-10.4 5.2,-15.2 3.6,-16.2 -3,-1.8 -19,12.9 -25.3,23.2 -2,3.3 -5.1,10.5 -6.7,15.9 -3.7,11.8 -6.2,19.2 -10,29.7 l -2.8,7.7 -0.7,-24.7 c -0.9,-30.1 -0.5,-37 3.4,-54.3 4.1,-18.2 4.6,-19.5 10.9,-27.4 10.3,-12.9 14.1,-20.6 18.8,-38.4 4,-14.8 1.6,-17 -7.8,-7.1 -8,8.3 -15.2,23.1 -17.4,35.4 -0.8,4.9 -3.3,16.2 -5.5,25 -2.1,8.8 -4.3,18 -4.7,20.5 l -0.9,4.5 -0.8,-5 c -0.4,-2.8 -2,-12.8 -3.6,-22.4 -3.3,-20 -3.6,-31.5 -1.4,-52.1 1.6,-15.1 2.5,-18.6 6.8,-24.8 9.7,-14.3 18.4,-44.9 14,-49.3 -3.3,-3.3 -12.4,9.4 -16.8,23.5 -1.5,4.6 -3.2,13.5 -4,21.5 -0.8,7.5 -2.1,17.2 -2.9,21.6 -0.8,4.4 -1.8,11.8 -2.2,16.5 l -0.7,8.5 -2.3,-8.5 c -1.2,-4.7 -4.6,-15.7 -7.5,-24.5 l -5.3,-16 -0.1,-18 c 0,-17.1 0.1,-18.3 2.7,-25.3 7.3,-19.6 10.9,-41.2 7.4,-44.1 -0.8,-0.7 -2.3,-1.1 -3.1,-0.7 -2.4,0.9 -7.4,9.6 -9.6,16.6 -2.3,7.6 -2.5,13.7 -1.5,39.5 l 0.7,19 -3.9,-10 c -2.1,-5.5 -5.5,-13.8 -7.5,-18.5 -4.9,-11.7 -8.6,-26.9 -9.3,-38.6 -0.5,-8.4 -0.2,-11.7 2,-22.2 3,-14.2 3.4,-25.2 1,-27.6 -0.8,-0.9 -1.9,-1.6 -2.3,-1.6 -1,0 -4.6,4 -6,6.7 -1.3,2.6 -1.4,16.2 -0.2,25.3 0.5,3.6 1.2,11 1.6,16.5 l 0.6,10 -4.4,-9.5 c -2.4,-5.2 -6,-12.7 -8,-16.5 -1.9,-3.9 -4.5,-10.8 -5.7,-15.3 -4.8,-19 -11.4,-32.8 -17.1,-35.7 -3.6,-1.9 -3.6,-1.9 -4.9,0.4 z"
     id="path60"
     style="fill:#000000;stroke:none;stroke-width:0.1" />
  <path
     d="m -306.83776,646.80565 c -6.1,4.3 -11.8,17.9 -13.5,32 -1.1,9.5 -7.6,37.4 -9.1,39 -0.4,0.6 -0.8,-0.7 -0.8,-3 0,-6.4 -3.7,-24.8 -5.9,-29.9 -1.5,-3.4 -2.5,-4.6 -3.8,-4.3 -1.6,0.3 -1.8,1.5 -1.7,9.3 0.1,8 0.6,10.5 4.7,22.5 5.4,15.5 5.7,19 2.8,33.1 -1.1,5.2 -2.8,14.5 -3.7,20.6 -1,6.2 -2,11.3 -2.3,11.3 -0.3,0 -2,-5.9 -3.8,-13.1 -3.3,-13.6 -7.8,-24.3 -13.2,-31.7 -4,-5.4 -5.6,-5.1 -5.2,1.2 0.6,10.6 4.5,20.4 12.8,32.5 6.3,9.3 7.7,14.9 6.4,26.3 -0.6,5.1 -1.3,15.7 -1.7,23.5 -0.6,13.6 -1.6,17.6 -2.7,11.5 -3.1,-16.7 -11.9,-36.3 -19.4,-43.2 -6,-5.6 -7.3,-4.4 -4.8,4.5 2.4,9 8.2,20.5 14.4,28.9 3.7,5 5.8,9.2 7.6,15 2.3,7.6 2.5,9.7 2.7,34.3 0.2,14.4 0,25.9 -0.3,25.5 -0.4,-0.4 -3.2,-6.7 -6.2,-14 -6.9,-16.6 -11.9,-25.1 -19.2,-32.5 -10.2,-10.2 -11.1,-6.5 -2.5,10.8 3.3,6.7 7.3,12.8 12.2,18.5 8.9,10.3 11,13.6 13.6,22 2.5,8 3.8,14.5 5.3,27.5 4.5,40.5 19.5,98.50005 25.4,98.50005 2.2,0 1.9,-2.5 -2,-14.1 -5,-14.80005 -11.2,-37.40005 -13.6,-50.20005 -1.9,-9.9 -2,-12.1 -1,-21.6 0.6,-5.8 2.3,-14.3 3.7,-18.8 2.2,-6.9 3.6,-9.4 8.8,-15.2 7.3,-8.4 11.5,-15.1 16.3,-26.2 3.7,-8.6 4.7,-14.9 2.5,-15.6 -1.8,-0.7 -13.2,11.3 -17.7,18.7 -4.7,7.7 -11.8,28.7 -14.7,43.4 l -2.2,11 -1.8,-12.5 c -2.3,-16.5 -2.5,-49.9 -0.3,-58.3 2.7,-10.1 8.9,-20.8 15.4,-26.3 7.2,-6.1 10.7,-10.1 15.9,-18.1 5.3,-8.3 7.9,-14.9 6.4,-16.4 -1.7,-1.7 -5.6,0.7 -12.7,7.7 -5,5 -7.6,9.1 -15.2,23.7 -5.1,9.7 -9.5,18.8 -9.9,20.2 -1.5,6.1 -1.9,1.4 -1.2,-16.1 1.4,-39.1 4.3,-47.8 19.7,-59.2 10.2,-7.6 23.1,-23.7 23.1,-28.9 0,-2.1 -0.3,-2.3 -2.7,-1.7 -6.5,1.6 -14.4,10.2 -27.5,30 -4.6,6.8 -8.4,12.3 -8.5,12.2 -0.2,-0.3 1.8,-13.3 5.2,-32.8 2.1,-12.4 2.7,-14.2 7,-21.2 4.8,-8 9,-12.5 18.4,-19.9 9.3,-7.4 16.7,-20.6 12,-21.6 -3.2,-0.6 -10.4,6.4 -18.4,18 -4.4,6.4 -9,12.7 -10.2,14.1 -1.3,1.3 -2.3,2.9 -2.3,3.5 0,0.7 -0.5,1.2 -1.1,1.2 -0.6,0 -0.8,-0.8 -0.5,-1.8 0.3,-0.9 1.4,-6 2.5,-11.2 2.9,-14.3 6.2,-27.2 7.7,-30.2 0.8,-1.4 3.8,-6 6.7,-10.1 6.2,-8.6 10.1,-19.3 10.2,-27.7 0,-4.8 -0.3,-5.5 -2,-5.8 -1.1,-0.1 -3,0.4 -4.1,1.2 z"
     id="path62"
     style="fill:#000000;stroke:none;stroke-width:0.1" />
  <path
     d="m -83.125174,171.10286 c -3.5,4.1 -8.2,16.1 -10.1,25.6 -5.5,27.2 -6.999996,31.2 -6.1,16 0.7,-9.9 -0.3,-15.5 -2.499996,-15.5 -2.4,0 -2.9,5.2 -1.8,20.9 0.9,14 0.8,16.9 -0.5,21.9 -2.6,9.3 -5.7,29.8 -6.4,42.7 -1.1,20.9 -2,19.5 -8.4,-12.9 -3,-15.7 -7,-31.1 -9,-34.7 -1.7,-3.3 -3.9,-2.3 -3.9,1.8 0,3.9 0.6,6.2 6,24.3 4,13.4 6,22 5.2,22 -0.4,-0.1 -2.4,-2.6 -4.5,-5.6 -4.1,-5.9 -9.5,-10 -11.1,-8.4 -1.1,1.1 1,4.4 7.2,11.3 6.7,7.4 9.7,11.5 12.6,17.4 3.2,6.3 4.1,10.9 6.1,31 2.4,24.2 5.3,43.9 9,59.5 1.899996,7.9 3.299996,14.4 3.099996,14.5 -0.1,0.2 -5.699996,-10.6 -12.299996,-24 l -12.1,-24.2 -2.6,-15 c -2.7,-15 -4.6,-19.8 -6.6,-16.5 -0.5,0.8 -1,2.4 -1,3.5 0,2 3.3,16.4 4.6,20 1.3,3.8 -1.3,0.2 -9.6,-13 -10.1,-16 -13.6,-20.5 -16.1,-20.5 -1,0 -1.9,0.5 -1.9,1 0,2.5 4.6,9.8 14.7,23.2 10.3,13.6 17.3,24.2 17.3,26 0,0.4 -4.2,-2 -9.3,-5.5 -9.6,-6.6 -14.2,-8.6 -16,-6.8 -1.8,1.8 6.1,7.9 17,13.2 6,2.9 11.3,6.3 13.1,8.3 1.6,1.8 8.1,13.7 14.5,26.3 10.299996,20.6 12.099996,24.9 16.799996,40.9 2.8,9.9 5.6,18.7 6.1,19.7 0.5,1 0.8,2.1 0.5,2.3 -0.2,0.2 -2.1,-2.2 -4.2,-5.3 -2.1,-3.2 -6.1,-8.7 -9,-12.3 -6.999996,-8.7 -10.399996,-14.9 -16.399996,-30.6 -5,-12.8 -8.7,-18.4 -11.1,-16.9 -2.2,1.4 -0.3,7.1 6.4,19.1 3.6,6.5 6.4,12 6.1,12.2 -0.2,0.2 -3.9,-2.8 -8.2,-6.6 -8.1,-7.4 -31.5,-25.9 -36.9,-29.3 -6.9,-4.2 -7.3,-1.2 -0.6,5.3 2.6,2.6 10.2,8.4 16.9,13 11.7,8 29.4,21.9 28.8,22.6 -0.2,0.2 -3.6,-0.9 -7.7,-2.4 -8.2,-3 -20.7,-3.9 -22.9,-1.6 -2.4,2.3 0.7,3.5 11.8,4.4 13.2,1.1 18.9,2.8 25.2,7.8 10.399996,8.2 29.399996,37.9 34.599996,54.00003 3,9.3 5.7,15 7.1,15 2,0 1.8,-1.9 -1.2,-10.7 -3.5,-10.4 -3.5,-21.60003 0.1,-35.60003 5,-19.9 10.8,-27.5 28.2,-37.2 12.1,-6.7 17.3,-10.3 17.3,-12 0,-3.8 -11.2,0.2 -20,7.2 -2.5,2 -7.6,6.6 -11.4,10.2 -3.8,3.6 -6.5,5.7 -6.1,4.6 0.4,-1.1 1.7,-4.9 3,-8.5 2.2,-6.5 12.4,-27.9 16.7,-35.3 1.4,-2.3 5.9,-6.5 11.3,-10.4 15.2000004,-11.1 26.4000004,-23.3 21.3000004,-23.3 -1.8,0 -7.5,4.7 -18.1000004,14.8 -5.4,5.2 -10.1,9.2 -10.3,8.9 -1.4,-1.4 12.5,-26.8 20,-36.5 10.70000043,-13.9 15.1000004,-23.2 11.20000043,-23.2 -2.70000003,0 -8.70000003,8.4 -17.70000043,24.7 -8.3,14.9 -10.6,18.5 -9.4,15 5.3,-16.4 7.4,-29.5 5,-30.7 -1.9,-0.9 -4.4,6.4 -6.4,18.5 -3.6,21.8 -7.4,34.7 -13.9,47 -2.4,4.6 -2.5,4.4 -1.1,-5 1.3,-9.1 1.3,-36.3 -0.1,-39.9 -0.5,-1.5 -1.6,-2.6 -2.3,-2.3 -0.9,0.3 -1.2,6 -1.3,23.3 -0.1,24.4 -1.4,35.6 -5.4,44.8 -2.8,6.7 -12.6,37.6 -14.9,47.1 l -1.8,8 -0.9,-6 c -1.4,-9.7 -1.1,-66.7 0.4,-76.5 2.8,-17.4 16.3,-63.7 21.5,-73.5 0.9,-1.7 6.2,-8.2 11.8,-14.5 5.6,-6.3 10.8,-13 11.6,-14.9 1.4,-3.3 1.2,-6.1 -0.6,-6.1 -0.9,0 -15.3,17.3 -18.6,22.3 -1,1.5 -2,2.6 -2.2,2.3 -1.2,-1.2 5.2,-22.4 9.7,-32.6 10,-22.2 13,-31.8 9.8,-30.8 -1.7,0.6 -9.1,14.4 -12.8,24 -3.2,8.2 -7.7,24.2 -10.5,37.3 -1,4.4 -4.8,17.2 -8.5,28.5 -3.7,11.3 -7.6,23.9 -8.6,28 l -1.9,7.5 -0.5,-5.1 c -0.6,-5.6 0.5,-31.4 1.9,-44 0.7,-6.7 1.7,-10 5.9,-18.5 2.8,-5.7 5.5,-12.2 6.1,-14.4 1.4,-5 1.4,-12.5 0.1,-12.5 -1.4,0 -2.4,2.2 -7,16 -2.3,6.9 -4.4,12.7 -4.6,12.9 -0.7,0.8 0.8,-16.6 2.7,-30.7 2.3,-17.2 2.4,-26.1 0.5,-28.8 -1.4,-1.8 -1.5,-1.8 -2.6,1.1 -0.7,1.6 -1.6,12 -2.1,23.1 -0.4,11 -1.3,21.2 -1.8,22.5 -1,2.4 -1,2.4 -1,-0.5 -0.1,-3.7 -3.9,-20 -5.7,-24.3 -1.5,-3.5 -2.8,-4.2 -3.7,-2 -1,2.6 2.1,18.4 5.8,29.7 l 3.7,11.5 -0.7,13.5 c -0.5,11.5 -2,24.2 -2.4,21.8 0,-0.4 -1.7,-6.7 -3.7,-14 -3.4,-12.7 -4.7,-15.8 -6.4,-15.8 -3.1,0 -1.3,10.9 4,24 7.4,18.6 8.9,32.5 6.5,61 -1.3,15.5 -1.6,27.2 -1.3,47.9 l 0.4,27.3 -2.2,-6.8 c -3.4,-10.2 -13.1,-43.9 -14.8,-51.7 -2.1,-9.1 -2,-17.2 0.5,-34.1 2.1,-14.9 2.2,-26.7 0.2,-27.3 -2.4,-0.8 -3.5,4.3 -4.3,21.4 -0.5,9.7 -1.1,17.8 -1.4,18 -0.4,0.5 -2.7,-9.2 -5.499996,-24.2 -2.5,-12.6 -5.1,-35.1 -5.1,-43.3 0,-9.7 3.5,-23.5 8.599996,-34.2 5,-10.4 8.4,-19.3 8.4,-22.2 0,-2.5 -2.7,-2.3 -4.4,0.5 -2,3 -9.199996,22.3 -11.699996,31.2 l -2,7 0.6,-14.5 c 0.8,-20.6 4.5,-43.8 8.799996,-54.5 0.6,-1.6 4.5,-6.6 8.7,-11.1 7.8,-8.4 12.7,-15.8 11.1,-16.8 -1.7,-1.1 -8.9,5.3 -13,11.5 -2.2,3.5 -4.1,5.8 -4.1,5.2 0,-1.8 6.3,-18.6 10.9,-29.1 4.8,-10.7 8.3,-22.9 7.5,-25.4 -0.8,-2.6 -2.9,-2.2 -5.7,1.1 z"
     id="path64"
     style="fill:#000000;stroke:none;stroke-width:0.1" />
  <path
     d="m 1133.4739,54.014432 c -2.313,5.581535 -3.9724,11.012219 -6.1346,20.465631 -2.7657,11.867046 -3.3188,15.789207 -3.8719,28.159097 -0.2514,6.3358 -0.6034,12.21904 -0.704,12.9733 -0.2011,1.75994 -0.7543,2.41364 -0.7543,0.9554 0,-2.31307 -6.2352,-26.047167 -8.2968,-31.578419 -2.8662,-7.693468 -9.0512,-16.543469 -16.4932,-23.734098 -4.1233,-3.871875 -5.8833,-4.927842 -5.8833,-3.469603 0,0.351988 1.2069,2.06165 2.6651,3.771309 2.8662,3.419317 8.0957,12.369888 16.644,28.661938 5.8833,11.263633 7.2912,15.185793 9.8557,27.957963 1.3577,6.6375 1.5085,8.44773 1.4583,15.83949 -0.05,4.57585 -0.2012,10.50938 -0.4023,13.12415 l -0.3017,4.77699 -1.056,-4.02273 c -6.5369,-24.73978 -11.3642,-34.7966 -21.8233,-45.70825 -4.3244,-4.475283 -10.8111,-9.553976 -11.6156,-9.051134 -0.8548,0.502839 -0.4526,1.206817 2.8662,5.128976 6.0844,7.140338 17.7503,25.846028 24.7901,39.623868 3.9724,7.79404 6.1346,16.74461 6.4363,26.70086 0.1509,4.22387 0.1006,9.85569 -0.1006,12.57103 -0.3519,4.37472 -0.4525,4.7267 -0.9051,3.1679 -3.3187,-12.26932 -11.6659,-30.97501 -17.348,-38.86961 -4.9781,-6.98949 -12.7219,-14.12984 -19.6611,-18.20285 -5.1289,-3.01705 -5.2295,-1.91079 -0.352,3.01705 2.3634,2.36335 7.2912,8.29688 10.9117,13.22472 3.6707,4.87755 9.202,12.26932 12.2693,16.4429 6.3358,8.44773 8.0958,11.56534 10.5597,19.00739 2.4136,7.14034 3.4193,13.62699 3.017,18.55485 -0.2011,2.16221 -0.5531,3.92216 -0.8045,3.92216 -0.2514,0 -0.4526,-0.35199 -0.4526,-0.80455 0,-1.45824 -8.0957,-17.95144 -10.8614,-22.12502 -4.7769,-7.24091 -13.0738,-14.12983 -21.9741,-18.30341 -6.8889,-3.26847 -8.6489,-2.51421 -2.9668,1.20682 5.5313,3.67074 9.6043,7.49233 19.7114,18.6554 8.0957,8.95057 9.8557,11.16307 11.5151,14.58239 2.5142,5.17928 3.6707,8.79973 4.0227,12.57104 0.2514,2.56448 0.4525,3.01705 1.2571,3.01705 0.8548,0 1.1062,-0.60342 1.6091,-3.8216 0.9051,-5.27983 2.7153,-10.05682 7.1403,-18.80627 l 3.7713,-7.54261 8.5986,-8.59858 c 10.4591,-10.40881 18.404,-17.24745 25.5946,-21.97416 2.9668,-1.96108 5.3804,-3.7713 5.3804,-4.02272 0,-0.80455 -3.6204,0.15085 -8.5483,2.26278 -11.6156,4.92784 -20.1639,11.46478 -25.2929,19.35938 -5.129,7.8946 -14.4315,25.04148 -14.4315,26.65057 0,0.30171 -0.2514,0.75426 -0.6034,0.9554 -0.4023,0.25144 -0.4526,-0.10057 -0.2514,-1.2571 0.2011,-0.90511 0.6034,-4.27415 0.9051,-7.54262 0.6537,-7.29119 0.8548,-8.14602 4.5758,-17.3983 3.9222,-9.80539 6.2855,-14.28068 9.8054,-18.60511 1.6091,-1.96108 4.3747,-5.68211 6.185,-8.24659 8.146,-11.7162 17.0966,-23.28154 21.1696,-27.40484 4.073,-4.07301 4.8775,-5.33011 3.369,-5.33011 -1.3074,0 -10.6602,6.83863 -15.1355,11.0625 -8.4477,7.99517 -12.4705,13.82812 -17.4486,25.34318 -1.7097,3.87188 -4.1233,9.35285 -5.4307,12.11847 -1.2571,2.76563 -3.2684,7.39176 -4.425,10.30824 l -2.1622,5.27983 -0.05,-3.36903 c 0,-3.21818 1.9108,-13.57671 4.0227,-22.07472 2.3634,-9.35285 5.6319,-18.3537 8.2969,-22.82898 3.0171,-5.12898 7.3918,-13.72756 12.0179,-23.784384 1.76,-3.771309 4.3244,-9.201989 5.7324,-12.0179 3.0673,-6.235228 3.4193,-7.190626 2.4639,-7.190626 -0.8548,0 -7.09,7.492331 -10.6602,12.822444 -5.2798,7.894606 -8.5483,15.386936 -12.7722,29.416196 -1.4079,4.57586 -3.4193,11.21336 -4.5255,14.78353 -1.1063,3.62046 -2.4137,8.19631 -2.8662,10.20767 -0.4526,2.06165 -0.8549,3.67074 -0.9554,3.57018 -0.2012,-0.30171 0.7542,-29.56706 1.2068,-36.10399 0.4023,-5.3804 1.0057,-8.79972 2.9668,-16.593755 1.4079,-5.380399 3.2181,-14.330966 4.1232,-19.862218 0.8549,-5.531252 2.112,-12.923014 2.816,-16.493188 1.2068,-6.486649 1.5085,-9.905969 0.8548,-9.905969 -0.2514,0 -1.2068,1.96108 -2.2628,4.425002 z m -3.4193,22.275859 c -2.0617,11.967615 -3.7713,20.515915 -4.2741,21.018754 -1.1566,1.10625 2.7153,-21.421028 5.3301,-31.326996 1.2068,-4.575853 0.8045,-0.653693 -1.056,10.308242 z m -25.9969,-4.475286 c 3.3691,4.475286 6.9392,11.062502 8.6489,15.889777 2.1119,6.034092 1.4079,5.581535 -1.9611,-1.20682 -2.8159,-5.732386 -5.5312,-10.660228 -9.3528,-16.996026 -1.8103,-2.96676 -0.5029,-1.810227 2.665,2.313069 z m 43.3449,20.465631 c -1.2571,2.564489 -4.3244,8.950574 -6.8386,14.280684 -4.9279,10.45909 -6.6878,13.32529 -4.777,7.5929 2.0616,-6.03409 4.3244,-11.36421 6.4363,-15.286368 2.6651,-4.877557 6.9895,-11.66591 7.2913,-11.364208 0.1005,0.10057 -0.8046,2.262786 -2.112,4.776992 z m -44.1494,18.504544 c 1.2068,1.70966 3.0673,4.67643 4.1736,6.63751 2.2627,4.12329 6.2352,13.62699 5.8329,13.97898 -0.1006,0.15085 -1.056,-1.40796 -2.1119,-3.41932 -2.5142,-5.0787 -10.7105,-18.65541 -13.3756,-22.32614 -1.2068,-1.65938 -2.3633,-3.36904 -2.6148,-3.77131 -0.7542,-1.45824 5.8833,5.83295 8.0958,8.90028 z m 51.7423,7.39177 c -4.4753,5.48096 -7.6935,9.85568 -15.0852,20.51591 -1.8605,2.71534 -3.4696,4.92784 -3.5702,4.92784 -0.352,0 3.0674,-7.34148 4.8273,-10.40881 2.7656,-4.77699 7.2409,-10.30824 12.6213,-15.63835 2.9165,-2.81591 5.4307,-5.12898 5.5815,-5.12898 0.2012,0 -1.7599,2.56449 -4.3747,5.73239 z m -60.5923,16.79489 c 2.0616,2.16221 5.0284,5.78267 6.6375,7.99517 2.9165,4.07301 8.1963,13.57671 7.794,14.02926 -0.1508,0.10057 -1.3577,-1.40795 -2.6651,-3.41932 -3.6204,-5.43068 -9.9562,-14.07954 -14.4315,-19.71136 -4.5758,-5.68211 -3.1679,-5.12898 2.6651,1.10625 z m 64.0619,13.07386 c -0.3017,0.25142 -2.8662,2.36336 -5.7827,4.72671 -2.9164,2.36335 -7.9448,6.88892 -11.163,10.1071 -3.2685,3.1679 -5.9335,5.68211 -5.9335,5.53125 0,-0.15085 1.3576,-2.11193 2.9667,-4.32443 4.5256,-6.23523 9.3026,-10.55966 15.9401,-14.43154 3.1679,-1.86051 5.1792,-2.66505 3.9724,-1.60909 z m -60.3912,19.25882 c 4.5256,4.32443 10.8614,12.21903 10.258,12.77216 -0.1006,0.10056 -2.112,-2.01137 -4.425,-4.67642 -2.3634,-2.66506 -6.2855,-6.9895 -8.7998,-9.60427 -5.7323,-6.03409 -3.8215,-5.07869 2.9668,1.50853 z"
     id="path66"
     style="fill:#000000;stroke:none;stroke-width:0.0502842" />
  <path
     d="m -150.36294,801.42034 c -1.5,1.4 -0.5,9 1.6,13.1 1.2,2.4 4.8,7.3 8.1,11 5.2,6 23.1,33 22.4,33.8 -0.2,0.1 -3.1,-1.5 -6.5,-3.6 -9.6,-6.1 -21.4,-9.5 -25.1,-7.2 -4.9,3.2 9.9,10.3 30.3,14.7 2.6,0.5 7.7,5.5 12.8,12.5 2.2,3 6.7,8.5 10.000004,12.2 3.2,3.8 5.5,6.8 4.9,6.8 -0.5,0 -5.2,-2 -10.300004,-4.4 -10.5,-4.9 -16.6,-6.6 -23.3,-6.6 -4,0 -4.6,0.3 -4.6,2.1 0,3.8 21.8,11.9 32.300004,11.9 5.7,0 15.1,5.6 24.5,14.4 4.8,4.5 10.9,9.9 13.6,11.9 2.7,2 4.5,3.7 4.1,3.7 -0.5,0 -6.3,-1.8 -13,-4 -14.2,-4.6 -23.2,-5.8 -29,-3.8 -11.400004,3.8 -0.1,8.6 22.5,9.5 17.5,0.6 23.8,2.5 36.6,10.6 14.7,9.40003 25.8,15.10003 27.8,14.40003 2.5000002,-1 1.4000002,-2.1 -5.7,-6 -12,-6.60003 -26.4,-16.70003 -31.6,-22.20003 -3.2,-3.4 -6.6,-8.5 -8.8,-13.3 -3.2,-6.7 -3.7,-9.1 -4.4,-18.7 -1,-14.1 -4.8,-31.5 -7,-31.5 -1.5,0 -3.7,5.3 -4.4,11 -1.1,9 0.8,16.1 8.8,32 3.9,7.9 7.4,14.9 7.6,15.4 0.2,0.5 -3.9,-2.9 -9.2,-7.5 -13.7,-12.1 -18.2,-18.8 -21.8,-32.7 -1.8,-6.9 -1.9,-8.5 -0.8,-15.6 0.9,-6.2 0.9,-10 0,-17.6 -1.5,-11.1 -2.2,-13 -4.7,-11.4 -3.1,1.8 -4.7,8.3 -4.7,18.4 0,8.9 0.3,10.3 5,23.3 5.8,15.8 5.6,15.8 -6.6,0.6 -11.100004,-13.7 -12.500004,-16.9 -11.700004,-27.2 1.8,-22.3 1.8,-28.3 0.2,-32.1 -1.3,-3.2 -1.8,-3.6 -3.5,-2.7 -4.5,2.5 -5.4,15.4 -2,29.6 1.1,4.8 1.8,9.2 1.6,9.8 -0.3,1.1 -9.8,-12.3 -15,-21.3 -1.4,-2.5 -3.3,-7.4 -4.2,-10.9 -3,-11.7 -9.8,-23.1 -13.9,-23.1 -1.2,0 -2.6,0.3 -2.9,0.7 z"
     id="path68"
     style="fill:#000000;stroke:none;stroke-width:0.1" />
</svg>
