<?xml version="1.0" encoding="UTF-8" standalone="no"?>
<svg
   version="1.0"
   width="800pt"
   height="800pt"
   viewBox="0 0 800 800"
   preserveAspectRatio="xMidYMid"
   id="svg827"
   sodipodi:docname="E-mail.svg"
   inkscape:version="1.2.2 (b0a8486541, 2022-12-01)"
   xmlns:inkscape="http://www.inkscape.org/namespaces/inkscape"
   xmlns:sodipodi="http://sodipodi.sourceforge.net/DTD/sodipodi-0.dtd"
   xmlns="http://www.w3.org/2000/svg"
   xmlns:svg="http://www.w3.org/2000/svg">
  <defs
     id="defs831" />
  <sodipodi:namedview
     id="namedview829"
     pagecolor="#ffffff"
     bordercolor="#000000"
     borderopacity="0.25"
     inkscape:showpageshadow="2"
     inkscape:pageopacity="0.0"
     inkscape:pagecheckerboard="0"
     inkscape:deskcolor="#d1d1d1"
     inkscape:document-units="pt"
     showgrid="false"
     showguides="true"
     inkscape:zoom="0.421875"
     inkscape:cx="1024"
     inkscape:cy="682.66667"
     inkscape:window-width="1536"
     inkscape:window-height="779"
     inkscape:window-x="0"
     inkscape:window-y="0"
     inkscape:window-maximized="1"
     inkscape:current-layer="svg827">
    <sodipodi:guide
       position="780.44448,798.22223"
       orientation="0,-1"
       id="guide847"
       inkscape:locked="false" />
  </sodipodi:namedview>
  <path
     d="m 282.43195,175.36097 c -5.81072,4.64856 -21.0846,19.09234 -34.03419,32.04194 -30.21572,30.21572 -41.00706,46.3197 -50.13817,74.7092 -8.96511,27.22734 -13.44766,45.48959 -14.44378,58.77122 -1.16214,12.78358 -6.97286,30.71378 -15.60591,48.31196 -3.48644,6.80683 -7.13888,15.43989 -8.30103,19.09234 -1.16214,3.65245 -4.48255,11.78745 -7.47092,17.93021 -5.31265,11.12337 -5.31265,11.12337 -6.4748,5.97673 -1.82622,-9.62918 -0.99611,-15.77194 5.14665,-39.0148 5.81069,-21.58266 6.14275,-24.57102 6.14275,-46.31969 -0.16602,-19.59042 -0.83011,-26.06521 -4.48256,-40.67501 -6.80684,-26.7293 -21.58265,-62.09164 -29.88367,-71.05675 -7.47093,-7.96897 -15.77194,-1.6602 -25.401132,19.25837 -13.115608,28.72153 -21.914702,88.65491 -17.266136,117.70849 3.320418,21.08459 16.768078,45.82163 40.010928,73.71307 10.12726,12.45153 10.95736,18.09622 6.4748,45.32358 -3.98448,24.07295 -3.98448,33.03806 -0.66408,58.43918 1.82623,12.61755 1.99224,20.08848 0.99613,24.07297 -1.82623,6.30877 -1.49419,6.97286 -7.63695,-15.10786 C 111.92897,532.47091 103.2959,516.69897 87.855994,501.09305 74.408344,487.81142 53.323752,472.03947 38.713951,464.73457 34.397426,462.57631 25.930384,459.42192 19.953644,457.92774 8.8302747,454.93936 8.8302747,454.93936 5.1778253,458.4258 c -4.1505111,4.31653 -4.48255191,16.10398 -0.4980607,30.54776 1.3281623,4.98062 2.8223467,10.79133 3.4864284,13.11562 6.308776,25.89918 22.910815,63.25377 36.358475,82.1801 13.613676,19.09236 26.231226,28.55553 60.929492,45.98766 l 7.80298,3.81848 -1.16216,19.92245 c -1.99224,33.3701 -1.32815,100.11031 0.99613,110.73563 4.48255,19.75642 17.1001,29.05357 42.16919,30.87979 8.46705,0.66408 145.43389,1.16215 304.31544,0.99613 271.94147,-0.16603 289.37362,-0.33205 298.00668,-2.98837 19.09234,-6.14276 30.71377,-14.44378 36.35847,-25.89919 7.80296,-15.4399 7.63695,-10.12725 7.63695,-224.12758 -0.16603,-187.10502 -0.33204,-202.87696 -3.1544,-217.48675 -3.98449,-21.08461 -5.14663,-23.90695 -13.7797,-31.54389 -9.29714,-8.135 -18.59428,-11.28939 -39.51286,-13.28164 -14.94184,-1.32816 -381.34893,-0.99612 -420.03168,0.49807 -21.9147,0.83009 -28.72153,4.81459 -26.06521,15.27387 2.15827,7.63694 7.96898,10.62531 26.06521,13.28164 14.11174,2.15826 47.9799,2.4903 221.47125,2.4903 h 204.86921 l 8.135,8.30103 c 4.64857,4.48254 7.96898,9.13113 7.63694,10.29326 -0.49807,1.16215 -4.48256,5.14664 -9.13113,8.79909 -4.64856,3.65244 -14.94183,11.78744 -23.07683,18.26224 -7.96898,6.30878 -30.0497,24.40501 -48.81,39.8449 -18.76032,15.60592 -36.35848,30.21572 -39.18083,32.37399 -12.45153,9.96122 -61.26153,50.30418 -79.52379,65.74409 -57.77511,48.97602 -97.45398,81.18399 -106.41909,86.33063 -7.96898,4.31653 -11.95347,5.64468 -18.59429,5.64468 -4.98061,0 -8.63306,-0.83009 -8.63306,-1.82622 0,-0.8301 -0.66409,-1.32817 -1.49419,-0.66408 -0.8301,0.49806 -2.15826,0 -2.65631,-0.8301 -0.6641,-0.99613 -4.31655,-4.15051 -7.96899,-6.80684 -3.81847,-2.82234 -18.59429,-15.60592 -32.70603,-28.72154 -25.06908,-22.91082 -48.97602,-44.49347 -65.24602,-58.60521 -6.14276,-5.31265 -9.79521,-7.13888 -16.43603,-7.96897 -9.62918,-1.32816 -13.77969,1.32816 -15.4399,9.96122 -1.49417,7.3049 3.81847,14.11173 23.90694,30.54775 l 17.10011,13.94572 -4.64857,3.48643 c -11.28939,8.135 -72.21889,66.24216 -150.41451,143.77369 l -46.15368,45.65562 v -10.79133 c 0.33203,-50.63623 5.97674,-123.02114 10.79132,-140.45327 2.82236,-9.96123 20.91858,-47.14982 24.23898,-49.80614 3.32042,-2.65633 7.96899,-3.48643 35.86042,-7.13887 28.72153,-3.65246 47.1498,-9.79521 68.89848,-22.74481 13.77969,-8.30101 21.41664,-15.27387 52.96051,-48.47796 17.26613,-18.09623 23.90694,-27.55939 22.74481,-33.20408 -0.83011,-4.48255 -10.95736,-9.96123 -20.75256,-11.2894 -21.41663,-2.65632 -68.40041,0.49807 -83.67429,5.6447 -25.73317,8.46704 -55.78287,34.36623 -72.71695,62.5897 -3.81847,6.30877 -10.79132,19.42439 -15.60593,29.05359 l -8.46704,17.43213 -1.49418,-7.30489 c -1.99225,-9.62919 0.99612,-21.41664 12.11949,-49.30807 4.81459,-11.78745 10.29327,-26.23123 12.45153,-32.20797 1.99225,-5.97673 6.30878,-16.43602 9.46316,-23.24285 3.1544,-6.80684 8.30103,-18.42827 11.45542,-25.73317 8.46704,-20.08848 12.45153,-25.40114 22.91082,-30.54776 5.14663,-2.65633 11.28939,-5.14664 13.61368,-5.6447 7.13887,-1.82623 28.22346,-16.60204 38.51673,-27.06133 15.77194,-15.93795 24.07297,-29.71766 31.70991,-52.46245 9.46316,-27.89143 16.27,-83.17625 11.4554,-92.6394 -5.31265,-10.95734 -12.28551,-10.79133 -25.73316,0.33204 z m 4.81459,31.54388 c -0.49806,2.15827 -1.82622,10.45929 -2.82235,18.76031 -2.49031,20.42051 -5.47867,30.0497 -15.77194,51.63235 -7.80296,15.93796 -10.45928,19.75643 -20.42051,29.05358 -6.30877,5.81072 -14.6098,12.45153 -18.59429,14.60979 l -7.13888,3.9845 12.1195,-13.94572 c 12.45152,-14.27776 17.1001,-22.57878 19.09234,-33.53613 2.15826,-11.12337 -3.65244,-7.96897 -23.90694,13.11562 -17.10011,17.76418 -18.42827,18.7603 -17.59816,13.61368 0.49805,-2.98838 2.15826,-7.30491 3.48643,-9.29716 1.49417,-2.15825 3.65244,-7.63694 4.98061,-12.11949 4.81459,-16.27 33.53613,-54.12266 53.45858,-70.55868 11.95346,-9.79521 14.44378,-10.79132 13.11561,-5.31265 z m -167.01656,68.89848 c 10.95736,24.405 15.27389,43.99541 15.43991,69.39654 0.16602,19.59041 -1.82623,43.33132 -3.48643,41.83715 -0.49806,-0.49807 -2.15827,-9.29715 -3.98449,-19.75643 -3.65245,-21.74868 -6.64082,-30.87981 -12.11949,-36.02644 l -3.81848,-3.48643 -2.98836,3.32041 c -1.66021,1.82623 -2.49031,3.81847 -1.99225,4.48255 0.66409,0.49806 1.16214,0.16602 1.16214,-0.83009 0,-1.16216 0.66409,-1.99226 1.32817,-1.99226 0.83011,0 0.83011,3.9845 0.16602,8.63306 -2.32429,16.43603 -1.6602,30.21572 2.49031,45.82165 2.15826,8.46704 3.48643,15.27387 2.82235,15.27387 -1.49419,0 -9.29716,-17.59816 -12.1195,-27.06132 -2.65634,-9.46317 -2.65634,-44.16144 0.16602,-58.4392 2.82235,-15.10785 10.12725,-45.98766 11.12337,-47.64786 1.49419,-2.32429 2.15826,-1.49418 5.81071,6.4748 z m 650.63406,288.04544 c 0.16604,106.4191 0.83011,165.68838 1.82623,166.02042 0.99613,0.33206 1.49419,4.81461 1.16215,9.96123 l -0.49806,9.29715 -32.37399,-36.19245 C 710.43261,678.90093 638.54577,602.69756 590.8979,554.05356 c -11.78744,-12.11949 -21.25061,-22.24673 -20.75255,-22.57877 2.65632,-1.82623 36.52449,-29.05357 48.81,-39.34684 8.30103,-6.80684 26.89532,-22.24674 41.50512,-34.03419 14.44378,-11.95347 44.65949,-36.85653 67.07224,-55.45083 l 40.84103,-33.86816 0.99613,14.77582 c 0.66408,8.135 1.16214,89.31898 1.49417,180.29818 z M 309.82532,428.70814 c 2.32428,0.99612 -1.32816,5.47867 -19.92246,24.57103 -21.91469,22.41275 -23.57489,23.74091 -40.34296,31.87591 -10.29327,5.14665 -23.24286,9.79521 -31.54388,11.78746 -19.75643,4.48254 -24.90307,5.31265 -24.73705,3.81847 0.16604,-2.32428 19.75644,-15.27389 33.37011,-22.08072 14.6098,-7.13887 26.23123,-16.93408 26.23123,-21.58266 0,-4.64856 -1.82623,-4.81459 -13.28164,-1.49417 -15.43989,4.31652 -22.57877,7.63693 -34.36622,16.10398 -5.81072,4.15051 -10.4593,6.97285 -10.4593,6.30878 0,-2.82236 22.08072,-25.23511 32.20797,-32.70603 12.78357,-9.29715 20.2545,-12.28552 38.84878,-15.4399 13.7797,-2.32428 39.18083,-2.98838 43.99542,-1.16215 z M 35.89161,488.30947 c 26.729284,16.93409 29.71765,19.75644 44.991535,40.34297 7.968975,10.79133 18.7603,32.70602 16.934075,34.36623 -0.332032,0.33204 -3.154383,-2.4903 -6.14275,-6.47479 -12.285508,-15.77194 -19.092351,-23.24287 -23.574911,-25.56715 -5.976723,-3.1544 -7.304891,-0.33204 -3.65244,8.135 1.494183,3.48643 2.158267,6.97286 1.494183,7.96898 -0.996125,1.82623 7.968974,17.26613 21.748676,36.85654 4.980618,7.13887 9.131126,14.44377 9.131126,16.10397 0,2.98838 -0.664084,2.82235 -8.301016,-1.82622 -11.455419,-6.97285 -21.748676,-19.09234 -32.20797,-37.85265 -14.941843,-26.56328 -22.412749,-45.48961 -28.223467,-72.05288 -1.328167,-5.47867 -0.996135,-5.47867 7.802959,0 z m 604.48038,161.53789 c 30.04971,31.54387 60.26543,63.25378 67.23827,70.55868 6.80685,7.30489 20.08848,21.08459 29.55165,30.71377 l 17.1001,17.43215 -12.11949,-0.49806 c -6.4748,-0.33204 -136.63481,-0.8301 -289.20759,-1.32816 -152.40675,-0.49807 -284.72503,-1.49418 -293.85616,-2.15827 l -16.60205,-1.32816 95.46175,-94.96368 C 290.40094,615.97919 337.38471,569.8255 342.03328,565.675 l 8.79908,-7.47093 11.2894,9.62919 c 6.30877,5.47868 16.93407,14.60979 23.5749,20.42051 25.73316,22.24674 44.99153,31.04583 66.07612,29.71766 17.43215,-0.99611 20.75257,-2.98837 70.89073,-45.98766 l 23.24285,-19.75642 19.92246,20.08846 c 10.95735,11.12337 44.6595,45.98766 74.54317,77.53155 z"
     id="path809"
     style="fill:#000000;stroke:none;stroke-width:0.166021" />
  <path
     d="m 1630.3389,475.95833 c 0,1.4 0.2,1.9 0.5,1.2 0.2,-0.6 0.2,-1.8 0,-2.5 -0.3,-0.6 -0.5,-0.1 -0.5,1.3 z"
     id="path811"
     style="fill:#000000;stroke:none;stroke-width:0.1" />
  <path
     d="m 1644.5389,514.85833 c 0.7,1.1 4.6,3.5 4.6,2.8 0,-0.3 -1.2,-1.2 -2.6,-2.2 -1.5,-0.9 -2.3,-1.2 -2,-0.6 z"
     id="path813"
     style="fill:#000000;stroke:none;stroke-width:0.1" />
  <g
     id="g845"
     transform="matrix(1.9098621,0,0,1.9590645,-118.18662,-482.93707)">
    <path
       d="m 632,315.1 c -14.6,1.1 -21.9,2.6 -33.5,6.9 -16.5,6.2 -27.4,13 -37.6,23.6 -15,15.8 -23.1,32.2 -27.1,55.2 -2.2,12.3 -2.3,15 -2.3,82.2 v 69.5 l 2.8,7.6 c 3.2,8.7 13.3,21.9 16.7,21.9 2.3,0 2.1,6.6 2.5,-101.5 0.1,-45.3 0.4,-57.3 1.8,-67.7 3,-22.4 8,-34.7 18.9,-46.4 10.7,-11.3 22.8,-19.2 36.2,-23.3 14.8,-4.6 25.9,-5.1 104.8,-5.1 80.2,0 92.7,0.6 110.3,5 25.1,6.3 39.5,17.2 49.1,37.5 6.8,14.3 8.3,37.1 8.4,125 0,65.4 -0.8,86.3 -4.1,103.1 -5.5,28.7 -17.7,45.4 -40.9,56.1 -21.7,10 -41.3,11.6 -138.5,11.1 -64.3,-0.3 -69.2,-0.2 -72.2,1.5 -6.4,3.4 -7,8.8 -1.8,14.6 6.9,7.6 14.6,8.2 106,8.1 60.5,-0.1 74.9,-0.3 84,-1.6 43.2,-6.2 72.9,-32.6 83.6,-74.4 6,-23.4 7.3,-49 6.6,-138 -0.3,-39.4 -1,-74.5 -1.6,-79.5 -2.7,-22.4 -7,-35.7 -16.5,-49.9 -16,-24.1 -43.4,-38.2 -80.6,-41.6 -13.4,-1.2 -158.9,-1.1 -175,0.1 z"
       id="path815"
       style="fill:#000000;stroke:none;stroke-width:0.1" />
    <path
       d="m 818.3,383.5 c -7.1,4.3 -10.2,14 -6.9,21.8 0.7,1.8 3,4.7 5,6.5 3.3,2.9 4.3,3.2 10.3,3.2 6.2,0 6.7,-0.2 10.3,-3.8 5.8,-5.7 7.3,-12.9 4.4,-20.3 -3.7,-9.2 -14.4,-12.6 -23.1,-7.4 z"
       id="path819"
       style="fill:#000000;stroke:none;stroke-width:0.1" />
    <path
       d="m 697.5,405.4 c -14,3.6 -21.7,6.9 -33,14.1 -19,12.2 -37.2,38.9 -42.7,62.5 -3.2,13.5 -3.2,41.8 0,53.2 14.4,52.4 58.8,83.5 109.7,76.8 20.1,-2.6 46.5,-16.6 61.3,-32.5 22.5,-24.1 31.2,-63.3 22.2,-99.4 -3.9,-15.6 -9.7,-26.8 -20.5,-39.9 -15.7,-18.8 -35.1,-31.2 -55.2,-35.2 -14.1,-2.8 -29.9,-2.6 -41.8,0.4 z m 41,24.6 c 13.6,4.3 24.7,11.2 34.3,21.5 10.3,10.9 17,23.2 20.3,37.2 1.8,7.5 2.1,10.7 1.6,22.3 -0.7,16.1 -2.6,23.2 -10,37 -10.7,19.9 -29.5,33.9 -52,38.7 -11,2.3 -29,1.3 -38.6,-2.1 -21.1,-7.4 -34.6,-19.4 -44.1,-39.1 -5.4,-11.3 -6.6,-15.5 -8,-28.8 -1.8,-17.1 1.8,-35 9.7,-48.2 8.9,-14.8 24.3,-29.8 36.8,-35.6 13,-6.1 35.4,-7.4 50,-2.9 z"
       id="path821"
       style="fill:#000000;stroke:none;stroke-width:0.1" />
    <path
       d="m 584.9,492.3 c -9.3,9.2 -12.2,12.8 -15.6,19.3 -9.2,17.7 -12.2,41.2 -8.2,65.4 0.9,6.1 1.6,65.6 0.7,66.5 -1.2,1.2 -4.8,-9.6 -5.8,-17.8 -2.6,-21.1 -11.7,-37.9 -29.4,-54.4 -8.2,-7.7 -30.2,-23.3 -32.7,-23.3 -1,0 -2.9,1.4 -4.3,3.1 -2.9,3.4 -3.3,7.4 -1.6,17.4 0.6,3.3 1.5,8.7 2.1,11.9 2.2,13.2 9.6,29.9 17.9,40.9 6.3,8.4 16.3,16.8 25.5,21.4 3.9,2 8.2,4.4 9.6,5.4 1.5,1 4.4,2.2 6.5,2.7 3.8,0.7 4.1,1.2 9.4,11.7 3,6.1 8.2,15.5 11.5,21 8.2,13.7 25.7,36.8 29,38.3 2.5,1.1 3.1,1 5.1,-0.9 3.8,-3.5 3.1,-7 -2.6,-13.5 -2.7,-3.1 -5,-6 -5,-6.4 0,-1.5 8.1,-11.3 15.5,-18.6 19.7,-19.4 26.6,-42.3 21.6,-71.2 -2.3,-13.7 -3.9,-17.3 -8.3,-19 -4.3,-1.6 -7,0 -16.9,10.6 -11,11.7 -19.6,23.7 -22.8,32 -2.5,6.5 -2.6,7.4 -2.5,26.5 l 0.2,19.8 -2.2,-3.3 c -3.8,-5.8 -6.6,-14 -8.3,-24.2 -1.3,-8.6 -1.4,-13.4 -0.4,-35.8 0.7,-17.3 1.5,-26.7 2.4,-28.4 0.7,-1.3 6.5,-7.7 12.8,-14.2 13.4,-13.6 17.9,-21.1 20.9,-34.9 4.1,-18.5 0.7,-49.6 -6.1,-56.9 -3.9,-4.1 -5.7,-3.2 -18,8.9 z m 11.6,16.9 c 2.4,12.7 2.3,23.7 -0.4,31.5 -2.3,6.9 -7.5,16.1 -12,21.3 l -3,3.5 1.3,-4.5 c 0.8,-2.5 2.3,-7.4 3.5,-10.9 2.2,-6.7 3,-22.1 1.2,-22.1 -2.3,0 -5.9,6.6 -9.6,17.5 l -4,12 -0.3,-6.9 c -0.4,-8.6 2,-20.3 5.7,-28.1 2.8,-6 14,-22.5 15.2,-22.5 0.4,0 1.5,4.2 2.4,9.2 z m -88.8,62.9 c 8.5,5.9 23.5,21.9 28,29.9 5.8,10.4 6.2,12.3 1.1,6.5 -10,-11.5 -12.5,-13.8 -14.2,-13.2 -2.4,0.9 -2.2,6.7 0.3,7.4 1.9,0.5 3.2,3.8 3.6,9.3 0.2,3 3.5,8.2 9,14.1 2,2.2 3.5,4.2 3.3,4.4 -0.9,0.9 -8.5,-5 -14.5,-11.1 -3.5,-3.5 -8,-9 -10.2,-12.3 -4.2,-6.5 -9.5,-19 -11,-26.1 -1.1,-4.9 -1.4,-12 -0.5,-12 0.3,0 2.6,1.4 5.1,3.1 z m 113.7,42.4 c 1.2,7.8 0.7,24.7 -0.9,30.8 -0.8,3.1 -2.7,8.2 -4.2,11.2 -2.9,5.6 -13.6,19 -14.1,17.6 -0.1,-0.4 1.1,-3.7 2.7,-7.3 3.4,-7.7 4.9,-14.5 5.3,-24.7 0.2,-5.1 -0.1,-7.6 -0.9,-7.8 -1.6,-0.6 -6,6.6 -7.4,12.2 -0.7,2.6 -1.7,4.9 -2.4,5.2 -0.7,0.2 -1.6,2 -1.9,3.8 -0.4,1.9 -1.2,3.7 -1.8,4.1 -0.7,0.5 -0.9,-1.6 -0.7,-6.7 0.6,-10.2 5.7,-20.6 16.4,-33.3 4.4,-5.2 8.3,-9.5 8.6,-9.5 0.4,-0.1 1,1.9 1.3,4.4 z"
       id="path823"
       style="fill:#000000;stroke:none;stroke-width:0.1" />
  </g>
</svg>
