<?xml version="1.0" encoding="UTF-8" standalone="no"?>
<svg
   version="1.0"
   width="800pt"
   height="800pt"
   viewBox="0 0 800 800"
   preserveAspectRatio="xMidYMid"
   id="svg827"
   sodipodi:docname="Instagram.svg"
   inkscape:version="1.2.2 (b0a8486541, 2022-12-01)"
   xmlns:inkscape="http://www.inkscape.org/namespaces/inkscape"
   xmlns:sodipodi="http://sodipodi.sourceforge.net/DTD/sodipodi-0.dtd"
   xmlns="http://www.w3.org/2000/svg"
   xmlns:svg="http://www.w3.org/2000/svg">
  <defs
     id="defs831" />
  <sodipodi:namedview
     id="namedview829"
     pagecolor="#ffffff"
     bordercolor="#000000"
     borderopacity="0.25"
     inkscape:showpageshadow="2"
     inkscape:pageopacity="0.0"
     inkscape:pagecheckerboard="0"
     inkscape:deskcolor="#d1d1d1"
     inkscape:document-units="pt"
     showgrid="false"
     showguides="true"
     inkscape:zoom="0.421875"
     inkscape:cx="1024"
     inkscape:cy="682.66667"
     inkscape:window-width="1536"
     inkscape:window-height="779"
     inkscape:window-x="0"
     inkscape:window-y="0"
     inkscape:window-maximized="1"
     inkscape:current-layer="svg827">
    <sodipodi:guide
       position="780.44448,798.22223"
       orientation="0,-1"
       id="guide847"
       inkscape:locked="false" />
  </sodipodi:namedview>
  <path
     d="m 1764.9389,264.15833 c -3.5,2.8 -12.7,11.5 -20.5,19.3 -18.2,18.2 -24.7,27.9 -30.2,45 -5.4,16.4 -8.1,27.4 -8.7,35.4 -0.7,7.7 -4.2,18.5 -9.4,29.1 -2.1,4.1 -4.3,9.3 -5,11.5 -0.7,2.2 -2.7,7.1 -4.5,10.8 -3.2,6.7 -3.2,6.7 -3.9,3.6 -1.1,-5.8 -0.6,-9.5 3.1,-23.5 3.5,-13 3.7,-14.8 3.7,-27.9 -0.1,-11.8 -0.5,-15.7 -2.7,-24.5 -4.1,-16.1 -13,-37.4 -18,-42.8 -4.5,-4.8 -9.5,-1 -15.3,11.6 -7.9,17.3 -13.2,53.4 -10.4,70.9 2,12.7 10.1,27.6 24.1,44.4 6.1,7.5 6.6,10.9 3.9,27.3 -2.4,14.5 -2.4,19.9 -0.4,35.2 1.1,7.6 1.2,12.1 0.6,14.5 -1.1,3.8 -0.9,4.2 -4.6,-9.1 -4.5,-15.7 -9.7,-25.2 -19,-34.6 -8.1,-8 -20.8,-17.5 -29.6,-21.9 -2.6,-1.3 -7.7,-3.2 -11.3,-4.1 -6.7,-1.8 -6.7,-1.8 -8.9,0.3 -2.5,2.6 -2.7,9.7 -0.3,18.4 0.8,3 1.7,6.5 2.1,7.9 3.8,15.6 13.8,38.1 21.9,49.5 8.2,11.5 15.8,17.2 36.7,27.7 l 4.7,2.3 -0.7,12 c -1.2,20.1 -0.8,60.3 0.6,66.7 2.7,11.9 10.3,17.5 25.4,18.6 5.1,0.4 87.6,0.7 183.3,0.6 163.8,-0.1 174.3,-0.2 179.5,-1.8 11.5,-3.7 18.5,-8.7 21.9,-15.6 4.7,-9.3 4.6,-6.1 4.6,-135 -0.1,-112.7 -0.2,-122.2 -1.9,-131 -2.4,-12.7 -3.1,-14.4 -8.3,-19 -5.6,-4.9 -11.2,-6.8 -23.8,-8 -9,-0.8 -229.7,-0.6 -253,0.3 -13.2,0.5 -17.3,2.9 -15.7,9.2 1.3,4.6 4.8,6.4 15.7,8 8.5,1.3 28.9,1.5 133.4,1.5 h 123.4 l 4.9,5 c 2.8,2.7 4.8,5.5 4.6,6.2 -0.3,0.7 -2.7,3.1 -5.5,5.3 -2.8,2.2 -9,7.1 -13.9,11 -4.8,3.8 -18.1,14.7 -29.4,24 -11.3,9.4 -21.9,18.2 -23.6,19.5 -7.5,6 -36.9,30.3 -47.9,39.6 -34.8,29.5 -58.7,48.9 -64.1,52 -4.8,2.6 -7.2,3.4 -11.2,3.4 -3,0 -5.2,-0.5 -5.2,-1.1 0,-0.5 -0.4,-0.8 -0.9,-0.4 -0.5,0.3 -1.3,0 -1.6,-0.5 -0.4,-0.6 -2.6,-2.5 -4.8,-4.1 -2.3,-1.7 -11.2,-9.4 -19.7,-17.3 -15.1,-13.8 -29.5,-26.8 -39.3,-35.3 -3.7,-3.2 -5.9,-4.3 -9.9,-4.8 -5.8,-0.8 -8.3,0.8 -9.3,6 -0.9,4.4 2.3,8.5 14.4,18.4 l 10.3,8.4 -2.8,2.1 c -6.8,4.9 -43.5,39.9 -90.6,86.6 l -27.8,27.5 v -6.5 c 0.2,-30.5 3.6,-74.1 6.5,-84.6 1.7,-6 12.6,-28.4 14.6,-30 2,-1.6 4.8,-2.1 21.6,-4.3 17.3,-2.2 28.4,-5.9 41.5,-13.7 8.3,-5 12.9,-9.2 31.9,-29.2 10.4,-10.9 14.4,-16.6 13.7,-20 -0.5,-2.7 -6.6,-6 -12.5,-6.8 -12.9,-1.6 -41.2,0.3 -50.4,3.4 -15.5,5.1 -33.6,20.7 -43.8,37.7 -2.3,3.8 -6.5,11.7 -9.4,17.5 l -5.1,10.5 -0.9,-4.4 c -1.2,-5.8 0.6,-12.9 7.3,-29.7 2.9,-7.1 6.2,-15.8 7.5,-19.4 1.2,-3.6 3.8,-9.9 5.7,-14 1.9,-4.1 5,-11.1 6.9,-15.5 5.1,-12.1 7.5,-15.3 13.8,-18.4 3.1,-1.6 6.8,-3.1 8.2,-3.4 4.3,-1.1 17,-10 23.2,-16.3 9.5,-9.6 14.5,-17.9 19.1,-31.6 5.7,-16.8 9.8,-50.1 6.9,-55.8 -3.2,-6.6 -7.4,-6.5 -15.5,0.2 z m 2.9,19 c -0.3,1.3 -1.1,6.3 -1.7,11.3 -1.5,12.3 -3.3,18.1 -9.5,31.1 -4.7,9.6 -6.3,11.9 -12.3,17.5 -3.8,3.5 -8.8,7.5 -11.2,8.8 l -4.3,2.4 7.3,-8.4 c 7.5,-8.6 10.3,-13.6 11.5,-20.2 1.3,-6.7 -2.2,-4.8 -14.4,7.9 -10.3,10.7 -11.1,11.3 -10.6,8.2 0.3,-1.8 1.3,-4.4 2.1,-5.6 0.9,-1.3 2.2,-4.6 3,-7.3 2.9,-9.8 20.2,-32.6 32.2,-42.5 7.2,-5.9 8.7,-6.5 7.9,-3.2 z m -100.6,41.5 c 6.6,14.7 9.2,26.5 9.3,41.8 0.1,11.8 -1.1,26.1 -2.1,25.2 -0.3,-0.3 -1.3,-5.6 -2.4,-11.9 -2.2,-13.1 -4,-18.6 -7.3,-21.7 l -2.3,-2.1 -1.8,2 c -1,1.1 -1.5,2.3 -1.2,2.7 0.4,0.3 0.7,0.1 0.7,-0.5 0,-0.7 0.4,-1.2 0.8,-1.2 0.5,0 0.5,2.4 0.1,5.2 -1.4,9.9 -1,18.2 1.5,27.6 1.3,5.1 2.1,9.2 1.7,9.2 -0.9,0 -5.6,-10.6 -7.3,-16.3 -1.6,-5.7 -1.6,-26.6 0.1,-35.2 1.7,-9.1 6.1,-27.7 6.7,-28.7 0.9,-1.4 1.3,-0.9 3.5,3.9 z m 391.9,173.5 c 0.1,64.1 0.5,99.8 1.1,100 0.6,0.2 0.9,2.9 0.7,6 l -0.3,5.6 -19.5,-21.8 c -18.4,-20.5 -61.7,-66.4 -90.4,-95.7 -7.1,-7.3 -12.8,-13.4 -12.5,-13.6 1.6,-1.1 22,-17.5 29.4,-23.7 5,-4.1 16.2,-13.4 25,-20.5 8.7,-7.2 26.9,-22.2 40.4,-33.4 l 24.6,-20.4 0.6,8.9 c 0.4,4.9 0.7,53.8 0.9,108.6 z m -277.7,-81.4 c 1.4,0.6 -0.8,3.3 -12,14.8 -13.2,13.5 -14.2,14.3 -24.3,19.2 -6.2,3.1 -14,5.9 -19,7.1 -11.9,2.7 -15,3.2 -14.9,2.3 0.1,-1.4 11.9,-9.2 20.1,-13.3 8.8,-4.3 15.8,-10.2 15.8,-13 0,-2.8 -1.1,-2.9 -8,-0.9 -9.3,2.6 -13.6,4.6 -20.7,9.7 -3.5,2.5 -6.3,4.2 -6.3,3.8 0,-1.7 13.3,-15.2 19.4,-19.7 7.7,-5.6 12.2,-7.4 23.4,-9.3 8.3,-1.4 23.6,-1.8 26.5,-0.7 z m -165,35.9 c 16.1,10.2 17.9,11.9 27.1,24.3 4.8,6.5 11.3,19.7 10.2,20.7 -0.2,0.2 -1.9,-1.5 -3.7,-3.9 -7.4,-9.5 -11.5,-14 -14.2,-15.4 -3.6,-1.9 -4.4,-0.2 -2.2,4.9 0.9,2.1 1.3,4.2 0.9,4.8 -0.6,1.1 4.8,10.4 13.1,22.2 3,4.3 5.5,8.7 5.5,9.7 0,1.8 -0.4,1.7 -5,-1.1 -6.9,-4.2 -13.1,-11.5 -19.4,-22.8 -9,-16 -13.5,-27.4 -17,-43.4 -0.8,-3.3 -0.6,-3.3 4.7,0 z m 364.1,97.3 c 18.1,19 36.3,38.1 40.5,42.5 4.1,4.4 12.1,12.7 17.8,18.5 l 10.3,10.5 -7.3,-0.3 c -3.9,-0.2 -82.3,-0.5 -174.2,-0.8 -91.8,-0.3 -171.5,-0.9 -177,-1.3 l -10,-0.8 57.5,-57.2 c 31.6,-31.5 59.9,-59.3 62.7,-61.8 l 5.3,-4.5 6.8,5.8 c 3.8,3.3 10.2,8.8 14.2,12.3 15.5,13.4 27.1,18.7 39.8,17.9 10.5,-0.6 12.5,-1.8 42.7,-27.7 l 14,-11.9 12,12.1 c 6.6,6.7 26.9,27.7 44.9,46.7 z"
     id="path809"
     style="fill:#000000;stroke:none;stroke-width:0.1" />
  <path
     d="m 1630.3389,475.95833 c 0,1.4 0.2,1.9 0.5,1.2 0.2,-0.6 0.2,-1.8 0,-2.5 -0.3,-0.6 -0.5,-0.1 -0.5,1.3 z"
     id="path811"
     style="fill:#000000;stroke:none;stroke-width:0.1" />
  <path
     d="m 1644.5389,514.85833 c 0.7,1.1 4.6,3.5 4.6,2.8 0,-0.3 -1.2,-1.2 -2.6,-2.2 -1.5,-0.9 -2.3,-1.2 -2,-0.6 z"
     id="path813"
     style="fill:#000000;stroke:none;stroke-width:0.1" />
  <g
     id="g845"
     transform="matrix(1.9098621,0,0,1.9590645,-930.0894,-615.43707)">
    <path
       d="m 632,315.1 c -14.6,1.1 -21.9,2.6 -33.5,6.9 -16.5,6.2 -27.4,13 -37.6,23.6 -15,15.8 -23.1,32.2 -27.1,55.2 -2.2,12.3 -2.3,15 -2.3,82.2 v 69.5 l 2.8,7.6 c 3.2,8.7 13.3,21.9 16.7,21.9 2.3,0 2.1,6.6 2.5,-101.5 0.1,-45.3 0.4,-57.3 1.8,-67.7 3,-22.4 8,-34.7 18.9,-46.4 10.7,-11.3 22.8,-19.2 36.2,-23.3 14.8,-4.6 25.9,-5.1 104.8,-5.1 80.2,0 92.7,0.6 110.3,5 25.1,6.3 39.5,17.2 49.1,37.5 6.8,14.3 8.3,37.1 8.4,125 0,65.4 -0.8,86.3 -4.1,103.1 -5.5,28.7 -17.7,45.4 -40.9,56.1 -21.7,10 -41.3,11.6 -138.5,11.1 -64.3,-0.3 -69.2,-0.2 -72.2,1.5 -6.4,3.4 -7,8.8 -1.8,14.6 6.9,7.6 14.6,8.2 106,8.1 60.5,-0.1 74.9,-0.3 84,-1.6 43.2,-6.2 72.9,-32.6 83.6,-74.4 6,-23.4 7.3,-49 6.6,-138 -0.3,-39.4 -1,-74.5 -1.6,-79.5 -2.7,-22.4 -7,-35.7 -16.5,-49.9 -16,-24.1 -43.4,-38.2 -80.6,-41.6 -13.4,-1.2 -158.9,-1.1 -175,0.1 z"
       id="path815"
       style="fill:#000000;stroke:none;stroke-width:0.1" />
    <path
       d="m 818.3,383.5 c -7.1,4.3 -10.2,14 -6.9,21.8 0.7,1.8 3,4.7 5,6.5 3.3,2.9 4.3,3.2 10.3,3.2 6.2,0 6.7,-0.2 10.3,-3.8 5.8,-5.7 7.3,-12.9 4.4,-20.3 -3.7,-9.2 -14.4,-12.6 -23.1,-7.4 z"
       id="path819"
       style="fill:#000000;stroke:none;stroke-width:0.1" />
    <path
       d="m 697.5,405.4 c -14,3.6 -21.7,6.9 -33,14.1 -19,12.2 -37.2,38.9 -42.7,62.5 -3.2,13.5 -3.2,41.8 0,53.2 14.4,52.4 58.8,83.5 109.7,76.8 20.1,-2.6 46.5,-16.6 61.3,-32.5 22.5,-24.1 31.2,-63.3 22.2,-99.4 -3.9,-15.6 -9.7,-26.8 -20.5,-39.9 -15.7,-18.8 -35.1,-31.2 -55.2,-35.2 -14.1,-2.8 -29.9,-2.6 -41.8,0.4 z m 41,24.6 c 13.6,4.3 24.7,11.2 34.3,21.5 10.3,10.9 17,23.2 20.3,37.2 1.8,7.5 2.1,10.7 1.6,22.3 -0.7,16.1 -2.6,23.2 -10,37 -10.7,19.9 -29.5,33.9 -52,38.7 -11,2.3 -29,1.3 -38.6,-2.1 -21.1,-7.4 -34.6,-19.4 -44.1,-39.1 -5.4,-11.3 -6.6,-15.5 -8,-28.8 -1.8,-17.1 1.8,-35 9.7,-48.2 8.9,-14.8 24.3,-29.8 36.8,-35.6 13,-6.1 35.4,-7.4 50,-2.9 z"
       id="path821"
       style="fill:#000000;stroke:none;stroke-width:0.1" />
    <path
       d="m 584.9,492.3 c -9.3,9.2 -12.2,12.8 -15.6,19.3 -9.2,17.7 -12.2,41.2 -8.2,65.4 0.9,6.1 1.6,65.6 0.7,66.5 -1.2,1.2 -4.8,-9.6 -5.8,-17.8 -2.6,-21.1 -11.7,-37.9 -29.4,-54.4 -8.2,-7.7 -30.2,-23.3 -32.7,-23.3 -1,0 -2.9,1.4 -4.3,3.1 -2.9,3.4 -3.3,7.4 -1.6,17.4 0.6,3.3 1.5,8.7 2.1,11.9 2.2,13.2 9.6,29.9 17.9,40.9 6.3,8.4 16.3,16.8 25.5,21.4 3.9,2 8.2,4.4 9.6,5.4 1.5,1 4.4,2.2 6.5,2.7 3.8,0.7 4.1,1.2 9.4,11.7 3,6.1 8.2,15.5 11.5,21 8.2,13.7 25.7,36.8 29,38.3 2.5,1.1 3.1,1 5.1,-0.9 3.8,-3.5 3.1,-7 -2.6,-13.5 -2.7,-3.1 -5,-6 -5,-6.4 0,-1.5 8.1,-11.3 15.5,-18.6 19.7,-19.4 26.6,-42.3 21.6,-71.2 -2.3,-13.7 -3.9,-17.3 -8.3,-19 -4.3,-1.6 -7,0 -16.9,10.6 -11,11.7 -19.6,23.7 -22.8,32 -2.5,6.5 -2.6,7.4 -2.5,26.5 l 0.2,19.8 -2.2,-3.3 c -3.8,-5.8 -6.6,-14 -8.3,-24.2 -1.3,-8.6 -1.4,-13.4 -0.4,-35.8 0.7,-17.3 1.5,-26.7 2.4,-28.4 0.7,-1.3 6.5,-7.7 12.8,-14.2 13.4,-13.6 17.9,-21.1 20.9,-34.9 4.1,-18.5 0.7,-49.6 -6.1,-56.9 -3.9,-4.1 -5.7,-3.2 -18,8.9 z m 11.6,16.9 c 2.4,12.7 2.3,23.7 -0.4,31.5 -2.3,6.9 -7.5,16.1 -12,21.3 l -3,3.5 1.3,-4.5 c 0.8,-2.5 2.3,-7.4 3.5,-10.9 2.2,-6.7 3,-22.1 1.2,-22.1 -2.3,0 -5.9,6.6 -9.6,17.5 l -4,12 -0.3,-6.9 c -0.4,-8.6 2,-20.3 5.7,-28.1 2.8,-6 14,-22.5 15.2,-22.5 0.4,0 1.5,4.2 2.4,9.2 z m -88.8,62.9 c 8.5,5.9 23.5,21.9 28,29.9 5.8,10.4 6.2,12.3 1.1,6.5 -10,-11.5 -12.5,-13.8 -14.2,-13.2 -2.4,0.9 -2.2,6.7 0.3,7.4 1.9,0.5 3.2,3.8 3.6,9.3 0.2,3 3.5,8.2 9,14.1 2,2.2 3.5,4.2 3.3,4.4 -0.9,0.9 -8.5,-5 -14.5,-11.1 -3.5,-3.5 -8,-9 -10.2,-12.3 -4.2,-6.5 -9.5,-19 -11,-26.1 -1.1,-4.9 -1.4,-12 -0.5,-12 0.3,0 2.6,1.4 5.1,3.1 z m 113.7,42.4 c 1.2,7.8 0.7,24.7 -0.9,30.8 -0.8,3.1 -2.7,8.2 -4.2,11.2 -2.9,5.6 -13.6,19 -14.1,17.6 -0.1,-0.4 1.1,-3.7 2.7,-7.3 3.4,-7.7 4.9,-14.5 5.3,-24.7 0.2,-5.1 -0.1,-7.6 -0.9,-7.8 -1.6,-0.6 -6,6.6 -7.4,12.2 -0.7,2.6 -1.7,4.9 -2.4,5.2 -0.7,0.2 -1.6,2 -1.9,3.8 -0.4,1.9 -1.2,3.7 -1.8,4.1 -0.7,0.5 -0.9,-1.6 -0.7,-6.7 0.6,-10.2 5.7,-20.6 16.4,-33.3 4.4,-5.2 8.3,-9.5 8.6,-9.5 0.4,-0.1 1,1.9 1.3,4.4 z"
       id="path823"
       style="fill:#000000;stroke:none;stroke-width:0.1" />
  </g>
</svg>
