<?xml version="1.0" encoding="UTF-8" standalone="no"?>
<svg
   version="1.0"
   width="800pt"
   height="800pt"
   viewBox="0 0 800 800"
   preserveAspectRatio="xMidYMid"
   id="svg827"
   sodipodi:docname="Instagram.svg"
   inkscape:version="1.2.2 (b0a8486541, 2022-12-01)"
   xmlns:inkscape="http://www.inkscape.org/namespaces/inkscape"
   xmlns:sodipodi="http://sodipodi.sourceforge.net/DTD/sodipodi-0.dtd"
   xmlns="http://www.w3.org/2000/svg"
   xmlns:svg="http://www.w3.org/2000/svg">
  <defs
     id="defs831" />
  <sodipodi:namedview
     id="namedview829"
     pagecolor="#ffffff"
     bordercolor="#000000"
     borderopacity="0.25"
     inkscape:showpageshadow="2"
     inkscape:pageopacity="0.0"
     inkscape:pagecheckerboard="0"
     inkscape:deskcolor="#d1d1d1"
     inkscape:document-units="pt"
     showgrid="false"
     showguides="true"
     inkscape:zoom="0.421875"
     inkscape:cx="964.74074"
     inkscape:cy="478.81481"
     inkscape:window-width="1536"
     inkscape:window-height="779"
     inkscape:window-x="0"
     inkscape:window-y="0"
     inkscape:window-maximized="1"
     inkscape:current-layer="svg827">
    <sodipodi:guide
       position="780.44448,798.22223"
       orientation="0,-1"
       id="guide847"
       inkscape:locked="false" />
  </sodipodi:namedview>
  <path
     d="m 1764.9389,264.15833 c -3.5,2.8 -12.7,11.5 -20.5,19.3 -18.2,18.2 -24.7,27.9 -30.2,45 -5.4,16.4 -8.1,27.4 -8.7,35.4 -0.7,7.7 -4.2,18.5 -9.4,29.1 -2.1,4.1 -4.3,9.3 -5,11.5 -0.7,2.2 -2.7,7.1 -4.5,10.8 -3.2,6.7 -3.2,6.7 -3.9,3.6 -1.1,-5.8 -0.6,-9.5 3.1,-23.5 3.5,-13 3.7,-14.8 3.7,-27.9 -0.1,-11.8 -0.5,-15.7 -2.7,-24.5 -4.1,-16.1 -13,-37.4 -18,-42.8 -4.5,-4.8 -9.5,-1 -15.3,11.6 -7.9,17.3 -13.2,53.4 -10.4,70.9 2,12.7 10.1,27.6 24.1,44.4 6.1,7.5 6.6,10.9 3.9,27.3 -2.4,14.5 -2.4,19.9 -0.4,35.2 1.1,7.6 1.2,12.1 0.6,14.5 -1.1,3.8 -0.9,4.2 -4.6,-9.1 -4.5,-15.7 -9.7,-25.2 -19,-34.6 -8.1,-8 -20.8,-17.5 -29.6,-21.9 -2.6,-1.3 -7.7,-3.2 -11.3,-4.1 -6.7,-1.8 -6.7,-1.8 -8.9,0.3 -2.5,2.6 -2.7,9.7 -0.3,18.4 0.8,3 1.7,6.5 2.1,7.9 3.8,15.6 13.8,38.1 21.9,49.5 8.2,11.5 15.8,17.2 36.7,27.7 l 4.7,2.3 -0.7,12 c -1.2,20.1 -0.8,60.3 0.6,66.7 2.7,11.9 10.3,17.5 25.4,18.6 5.1,0.4 87.6,0.7 183.3,0.6 163.8,-0.1 174.3,-0.2 179.5,-1.8 11.5,-3.7 18.5,-8.7 21.9,-15.6 4.7,-9.3 4.6,-6.1 4.6,-135 -0.1,-112.7 -0.2,-122.2 -1.9,-131 -2.4,-12.7 -3.1,-14.4 -8.3,-19 -5.6,-4.9 -11.2,-6.8 -23.8,-8 -9,-0.8 -229.7,-0.6 -253,0.3 -13.2,0.5 -17.3,2.9 -15.7,9.2 1.3,4.6 4.8,6.4 15.7,8 8.5,1.3 28.9,1.5 133.4,1.5 h 123.4 l 4.9,5 c 2.8,2.7 4.8,5.5 4.6,6.2 -0.3,0.7 -2.7,3.1 -5.5,5.3 -2.8,2.2 -9,7.1 -13.9,11 -4.8,3.8 -18.1,14.7 -29.4,24 -11.3,9.4 -21.9,18.2 -23.6,19.5 -7.5,6 -36.9,30.3 -47.9,39.6 -34.8,29.5 -58.7,48.9 -64.1,52 -4.8,2.6 -7.2,3.4 -11.2,3.4 -3,0 -5.2,-0.5 -5.2,-1.1 0,-0.5 -0.4,-0.8 -0.9,-0.4 -0.5,0.3 -1.3,0 -1.6,-0.5 -0.4,-0.6 -2.6,-2.5 -4.8,-4.1 -2.3,-1.7 -11.2,-9.4 -19.7,-17.3 -15.1,-13.8 -29.5,-26.8 -39.3,-35.3 -3.7,-3.2 -5.9,-4.3 -9.9,-4.8 -5.8,-0.8 -8.3,0.8 -9.3,6 -0.9,4.4 2.3,8.5 14.4,18.4 l 10.3,8.4 -2.8,2.1 c -6.8,4.9 -43.5,39.9 -90.6,86.6 l -27.8,27.5 v -6.5 c 0.2,-30.5 3.6,-74.1 6.5,-84.6 1.7,-6 12.6,-28.4 14.6,-30 2,-1.6 4.8,-2.1 21.6,-4.3 17.3,-2.2 28.4,-5.9 41.5,-13.7 8.3,-5 12.9,-9.2 31.9,-29.2 10.4,-10.9 14.4,-16.6 13.7,-20 -0.5,-2.7 -6.6,-6 -12.5,-6.8 -12.9,-1.6 -41.2,0.3 -50.4,3.4 -15.5,5.1 -33.6,20.7 -43.8,37.7 -2.3,3.8 -6.5,11.7 -9.4,17.5 l -5.1,10.5 -0.9,-4.4 c -1.2,-5.8 0.6,-12.9 7.3,-29.7 2.9,-7.1 6.2,-15.8 7.5,-19.4 1.2,-3.6 3.8,-9.9 5.7,-14 1.9,-4.1 5,-11.1 6.9,-15.5 5.1,-12.1 7.5,-15.3 13.8,-18.4 3.1,-1.6 6.8,-3.1 8.2,-3.4 4.3,-1.1 17,-10 23.2,-16.3 9.5,-9.6 14.5,-17.9 19.1,-31.6 5.7,-16.8 9.8,-50.1 6.9,-55.8 -3.2,-6.6 -7.4,-6.5 -15.5,0.2 z m 2.9,19 c -0.3,1.3 -1.1,6.3 -1.7,11.3 -1.5,12.3 -3.3,18.1 -9.5,31.1 -4.7,9.6 -6.3,11.9 -12.3,17.5 -3.8,3.5 -8.8,7.5 -11.2,8.8 l -4.3,2.4 7.3,-8.4 c 7.5,-8.6 10.3,-13.6 11.5,-20.2 1.3,-6.7 -2.2,-4.8 -14.4,7.9 -10.3,10.7 -11.1,11.3 -10.6,8.2 0.3,-1.8 1.3,-4.4 2.1,-5.6 0.9,-1.3 2.2,-4.6 3,-7.3 2.9,-9.8 20.2,-32.6 32.2,-42.5 7.2,-5.9 8.7,-6.5 7.9,-3.2 z m -100.6,41.5 c 6.6,14.7 9.2,26.5 9.3,41.8 0.1,11.8 -1.1,26.1 -2.1,25.2 -0.3,-0.3 -1.3,-5.6 -2.4,-11.9 -2.2,-13.1 -4,-18.6 -7.3,-21.7 l -2.3,-2.1 -1.8,2 c -1,1.1 -1.5,2.3 -1.2,2.7 0.4,0.3 0.7,0.1 0.7,-0.5 0,-0.7 0.4,-1.2 0.8,-1.2 0.5,0 0.5,2.4 0.1,5.2 -1.4,9.9 -1,18.2 1.5,27.6 1.3,5.1 2.1,9.2 1.7,9.2 -0.9,0 -5.6,-10.6 -7.3,-16.3 -1.6,-5.7 -1.6,-26.6 0.1,-35.2 1.7,-9.1 6.1,-27.7 6.7,-28.7 0.9,-1.4 1.3,-0.9 3.5,3.9 z m 391.9,173.5 c 0.1,64.1 0.5,99.8 1.1,100 0.6,0.2 0.9,2.9 0.7,6 l -0.3,5.6 -19.5,-21.8 c -18.4,-20.5 -61.7,-66.4 -90.4,-95.7 -7.1,-7.3 -12.8,-13.4 -12.5,-13.6 1.6,-1.1 22,-17.5 29.4,-23.7 5,-4.1 16.2,-13.4 25,-20.5 8.7,-7.2 26.9,-22.2 40.4,-33.4 l 24.6,-20.4 0.6,8.9 c 0.4,4.9 0.7,53.8 0.9,108.6 z m -277.7,-81.4 c 1.4,0.6 -0.8,3.3 -12,14.8 -13.2,13.5 -14.2,14.3 -24.3,19.2 -6.2,3.1 -14,5.9 -19,7.1 -11.9,2.7 -15,3.2 -14.9,2.3 0.1,-1.4 11.9,-9.2 20.1,-13.3 8.8,-4.3 15.8,-10.2 15.8,-13 0,-2.8 -1.1,-2.9 -8,-0.9 -9.3,2.6 -13.6,4.6 -20.7,9.7 -3.5,2.5 -6.3,4.2 -6.3,3.8 0,-1.7 13.3,-15.2 19.4,-19.7 7.7,-5.6 12.2,-7.4 23.4,-9.3 8.3,-1.4 23.6,-1.8 26.5,-0.7 z m -165,35.9 c 16.1,10.2 17.9,11.9 27.1,24.3 4.8,6.5 11.3,19.7 10.2,20.7 -0.2,0.2 -1.9,-1.5 -3.7,-3.9 -7.4,-9.5 -11.5,-14 -14.2,-15.4 -3.6,-1.9 -4.4,-0.2 -2.2,4.9 0.9,2.1 1.3,4.2 0.9,4.8 -0.6,1.1 4.8,10.4 13.1,22.2 3,4.3 5.5,8.7 5.5,9.7 0,1.8 -0.4,1.7 -5,-1.1 -6.9,-4.2 -13.1,-11.5 -19.4,-22.8 -9,-16 -13.5,-27.4 -17,-43.4 -0.8,-3.3 -0.6,-3.3 4.7,0 z m 364.1,97.3 c 18.1,19 36.3,38.1 40.5,42.5 4.1,4.4 12.1,12.7 17.8,18.5 l 10.3,10.5 -7.3,-0.3 c -3.9,-0.2 -82.3,-0.5 -174.2,-0.8 -91.8,-0.3 -171.5,-0.9 -177,-1.3 l -10,-0.8 57.5,-57.2 c 31.6,-31.5 59.9,-59.3 62.7,-61.8 l 5.3,-4.5 6.8,5.8 c 3.8,3.3 10.2,8.8 14.2,12.3 15.5,13.4 27.1,18.7 39.8,17.9 10.5,-0.6 12.5,-1.8 42.7,-27.7 l 14,-11.9 12,12.1 c 6.6,6.7 26.9,27.7 44.9,46.7 z"
     id="path809"
     style="fill:#000000;stroke:none;stroke-width:0.1" />
  <path
     d="m 1630.3389,475.95833 c 0,1.4 0.2,1.9 0.5,1.2 0.2,-0.6 0.2,-1.8 0,-2.5 -0.3,-0.6 -0.5,-0.1 -0.5,1.3 z"
     id="path811"
     style="fill:#000000;stroke:none;stroke-width:0.1" />
  <path
     d="m 1644.5389,514.85833 c 0.7,1.1 4.6,3.5 4.6,2.8 0,-0.3 -1.2,-1.2 -2.6,-2.2 -1.5,-0.9 -2.3,-1.2 -2,-0.6 z"
     id="path813"
     style="fill:#000000;stroke:none;stroke-width:0.1" />
  <path
     d="m 271.15089,71.975892 c -25.608,1.979076 -38.412,4.677815 -58.75809,12.4142 -28.94055,11.154787 -48.05886,23.389068 -65.94938,42.460148 -26.30959,28.42672 -40.51677,57.93293 -47.532668,99.3136 -3.85874,22.12966 -4.03413,26.98739 -4.03413,147.89089 V 499.0963 l 4.91112,13.67361 c 5.612708,15.65269 23.327838,39.40159 29.291348,39.40159 4.03414,0 3.68334,11.87445 4.38493,-182.61467 0.1754,-81.50191 0.70159,-103.09182 3.15715,-121.80308 5.26192,-40.30117 14.03178,-62.43083 33.15009,-83.48099 18.76751,-20.3305 39.99058,-34.54386 63.49382,-41.92041 25.9588,-8.27614 45.4279,-9.17572 183.81636,-9.17572 140.66862,0 162.59329,1.0795 193.46321,8.9958 44.02472,11.3347 69.28193,30.94554 86.12007,67.46847 11.92701,25.72798 14.55797,66.74881 14.73337,224.89492 0,117.66501 -1.40318,155.26744 -7.19129,185.49332 -9.64685,51.63587 -31.04532,81.68183 -71.73749,100.93284 -38.06121,17.99159 -72.43908,20.87024 -242.92525,19.97066 -112.78045,-0.53974 -121.37492,-0.35983 -126.63684,2.69874 -11.22543,6.11715 -12.27781,15.83261 -3.15715,26.26773 12.10241,13.67361 25.608,14.75311 185.92113,14.57319 106.11536,-0.17992 131.37257,-0.53975 147.33372,-2.87865 75.77163,-11.15479 127.86462,-58.6526 146.63213,-133.85746 10.52384,-42.10032 12.80401,-88.1588 11.57623,-248.28398 -0.5262,-70.88688 -1.75398,-134.03737 -2.80636,-143.03316 C 743.67119,196.11788 736.12911,172.18906 719.46637,146.641 691.4028,103.28126 643.34394,77.913118 578.09615,71.795977 554.59291,69.636985 299.38986,69.816901 271.15089,71.975892 Z"
     id="path815"
     style="fill:#000000;stroke:none;stroke-width:0.177642" />
  <path
     d="m 597.91604,195.03838 c -12.4532,7.73639 -17.89052,25.18823 -12.10241,39.22167 1.22778,3.23849 5.26192,8.45605 8.76987,11.69454 5.78811,5.21756 7.54208,5.75731 18.06592,5.75731 10.87463,0 11.75161,-0.35983 18.06592,-6.83681 10.17304,-10.2552 12.804,-23.20915 7.71748,-36.52293 -6.4897,-16.55227 -25.25721,-22.66941 -40.51678,-13.31378 z"
     id="path819"
     style="fill:#000000;stroke:none;stroke-width:0.177642" />
  <path
     d="m 391.51373,262.15298 c -21.37103,5.38148 -33.1251,10.31452 -50.37458,21.07749 -29.00354,18.23725 -56.78589,58.14992 -65.18165,93.42853 -4.8848,20.18057 -4.8848,62.48501 0,79.52638 21.98164,78.33048 89.75834,124.82053 167.45731,114.80498 30.6827,-3.88662 70.98236,-24.81461 93.5746,-48.58284 34.3463,-36.02603 47.62687,-94.62442 33.88834,-148.58874 -5.95335,-23.31977 -14.80706,-40.06217 -31.29329,-59.64478 -23.96609,-28.10331 -53.58023,-46.63954 -84.26294,-52.61895 -21.52367,-4.18561 -45.64241,-3.88663 -63.80779,0.59793 z m 62.5866,36.77348 c 20.76043,6.42788 37.70461,16.7424 52.35903,32.13941 15.72297,16.29394 25.95054,34.68068 30.988,55.60868 2.7477,11.21142 3.20565,15.99496 2.4424,33.33529 -1.06855,24.0672 -3.96891,34.68068 -15.26503,55.30971 -16.33357,29.74765 -45.03182,50.67564 -79.37812,57.85094 -16.79152,3.43818 -44.26857,1.94332 -58.92299,-3.1392 -32.2092,-11.06193 -52.81698,-29.00021 -67.31876,-58.44889 -8.24311,-16.89188 -10.07491,-23.17028 -12.21201,-43.05187 -2.74771,-25.56205 2.7477,-52.31999 14.80707,-72.05209 13.58587,-22.12388 37.09401,-44.54673 56.17529,-53.2169 19.84453,-9.11862 54.03818,-11.06193 76.32512,-4.33508 z"
     id="path821"
     style="fill:#000000;stroke:none;stroke-width:0.15106" />
  <path
     d="m 202.37905,386.95358 c -16.31195,16.55227 -21.39847,23.02924 -27.36198,34.72378 -16.13655,31.84512 -21.39847,74.12536 -14.38258,117.66502 1.57858,10.97487 2.80636,118.02485 1.22779,119.64409 -2.10477,2.15899 -8.41907,-17.27193 -10.17305,-32.02504 -4.56033,-37.96226 -20.52148,-68.18813 -51.5668,-97.87426 -14.382575,-13.85353 -52.969978,-41.92041 -57.354911,-41.92041 -1.753973,0 -5.086521,2.51882 -7.542083,5.57739 -5.086522,6.11714 -5.788111,13.31378 -2.806357,31.30537 1.052384,5.93723 2.63096,15.65269 3.683343,21.41 3.858741,23.7489 16.83814,53.79486 31.396115,73.58561 11.050029,15.11294 28.589758,30.22588 44.726303,38.50201 6.8405,3.59832 14.38258,7.9163 16.83814,9.71546 2.63096,1.79916 7.71748,3.95815 11.40083,4.85773 6.66509,1.25941 7.19128,2.15899 16.48734,21.05017 5.26192,10.97487 14.38258,27.88697 20.17069,37.78234 14.38258,24.64848 45.0771,66.20906 50.86521,68.9078 4.38494,1.97908 5.43732,1.79916 8.94527,-1.61924 6.66509,-6.29706 5.43731,-12.59412 -4.56033,-24.28865 -4.73573,-5.5774 -8.76987,-10.79496 -8.76987,-11.51462 0,-2.69874 14.20718,-20.3305 27.18658,-33.46436 34.55327,-34.90369 46.65568,-76.10444 37.88582,-128.10015 -4.03414,-24.64848 -6.8405,-31.12545 -14.55798,-34.18402 -7.54208,-2.87866 -12.27781,0 -29.64214,19.07109 -19.2937,21.05016 -34.37787,42.64007 -39.99058,57.57309 -4.38494,11.69454 -4.56033,13.31378 -4.38494,47.67773 l 0.3508,35.62335 -3.85874,-5.93723 c -6.6651,-10.43512 -11.57622,-25.18823 -14.55798,-43.53965 -2.28016,-15.47277 -2.45556,-24.10874 -0.70159,-64.4099 1.22779,-31.12546 2.63096,-48.03756 4.20954,-51.09613 1.22778,-2.33891 11.40082,-13.85353 22.45085,-25.54806 23.50324,-24.46857 31.39612,-37.96226 36.65804,-62.79066 7.19128,-33.28445 1.22778,-89.2383 -10.69924,-102.37216 -6.84049,-7.37656 -9.99764,-5.75731 -31.57151,16.01251 z m 20.34608,30.4058 c 4.20954,22.84932 4.03414,42.64007 -0.70158,56.67351 -4.03414,12.4142 -13.1548,28.96647 -21.04768,38.3221 l -5.26192,6.29705 2.28017,-8.09621 c 1.40318,-4.4979 4.03413,-13.31378 6.1389,-19.61084 3.85874,-12.05437 5.26192,-39.76142 2.10477,-39.76142 -4.03414,0 -10.34844,11.87445 -16.83814,31.48529 l -7.01589,21.58991 -0.52619,-12.4142 c -0.70159,-15.47277 3.50794,-36.52293 9.99764,-50.55638 4.91113,-10.79495 24.55562,-40.48108 26.66039,-40.48108 0.70159,0 2.63096,7.55647 4.20953,16.55227 z M 66.972345,530.5265 c 14.90877,10.61504 41.218355,39.40158 49.111235,53.79486 10.17305,18.71126 10.87463,22.12966 1.92937,11.69453 -17.53972,-20.69033 -21.924655,-24.82839 -24.906408,-23.7489 -4.209535,1.61924 -3.858741,12.05437 0.526191,13.31378 3.332549,0.89958 5.612714,6.83681 6.314303,16.73218 0.350794,5.39748 6.138904,14.75311 15.785754,25.36815 3.50794,3.95815 6.1389,7.55647 5.78811,7.9163 -1.57858,1.61924 -14.90877,-8.9958 -25.432605,-19.97067 C 89.94939,609.32967 82.056512,599.4343 78.197772,593.49707 70.831086,581.80254 61.535029,559.31304 58.90407,546.53901 56.9747,537.72313 56.448508,524.9491 58.027084,524.9491 c 0.526191,0 4.560329,2.51882 8.945261,5.5774 z m 199.426715,76.28435 c 2.10477,14.03344 1.22778,44.43923 -1.57858,55.41411 -1.40317,5.57739 -4.73572,14.7531 -7.36668,20.15058 -5.08652,10.07529 -23.85403,34.18403 -24.73102,31.6652 -0.1754,-0.71966 1.92937,-6.65689 4.73573,-13.13386 5.96351,-13.85353 8.59446,-26.08781 9.29605,-44.43923 0.3508,-9.17572 -0.17539,-13.67361 -1.57857,-14.03345 -2.80636,-1.07949 -10.52384,11.87446 -12.9794,21.94975 -1.22778,4.67781 -2.98176,8.81588 -4.20954,9.35563 -1.22778,0.35983 -2.80635,3.59831 -3.33254,6.8368 -0.70159,3.4184 -2.10477,6.65689 -3.15716,7.37655 -1.22778,0.89958 -1.57857,-2.87865 -1.22778,-12.05436 1.05239,-18.35143 9.99765,-37.06268 28.76516,-59.91201 7.71748,-9.35563 14.55797,-17.09201 15.08417,-17.09201 0.70158,-0.17992 1.75397,3.4184 2.28016,7.9163 z"
     id="path823"
     style="fill:#000000;stroke:none;stroke-width:0.177642" />
</svg>
