<?xml version="1.0" encoding="UTF-8" standalone="no"?>
<svg
   version="1.0"
   width="800pt"
   height="800pt"
   viewBox="0 0 800 800"
   preserveAspectRatio="xMidYMid"
   id="svg1085"
   sodipodi:docname="YouTube.svg"
   inkscape:version="1.2.2 (b0a8486541, 2022-12-01)"
   xmlns:inkscape="http://www.inkscape.org/namespaces/inkscape"
   xmlns:sodipodi="http://sodipodi.sourceforge.net/DTD/sodipodi-0.dtd"
   xmlns="http://www.w3.org/2000/svg"
   xmlns:svg="http://www.w3.org/2000/svg">
  <defs
     id="defs1089" />
  <sodipodi:namedview
     id="namedview1087"
     pagecolor="#ffffff"
     bordercolor="#000000"
     borderopacity="0.25"
     inkscape:showpageshadow="2"
     inkscape:pageopacity="0.0"
     inkscape:pagecheckerboard="0"
     inkscape:deskcolor="#d1d1d1"
     inkscape:document-units="pt"
     showgrid="false"
     inkscape:zoom="0.41894531"
     inkscape:cx="1024"
     inkscape:cy="682.66667"
     inkscape:window-width="1536"
     inkscape:window-height="779"
     inkscape:window-x="0"
     inkscape:window-y="0"
     inkscape:window-maximized="1"
     inkscape:current-layer="svg1085" />
  <path
     d="m 358.08383,122.72397 c -0.19017,0.19016 -29.85601,0.76066 -65.98748,1.52132 -78.91874,1.33116 -140.15209,4.18364 -167.72611,7.79679 -26.052693,3.42298 -46.400417,12.36077 -63.895656,28.52485 -30.426503,27.95435 -46.020086,63.51533 -52.6758838,121.70601 -0.5704969,5.13448 -1.5213252,12.55094 -1.9016564,16.16408 -4.94430679,36.51181 -6.65579753,176.66389 -2.8524847,232.95292 1.1409939,16.73458 2.0918221,31.75766 2.2819877,33.27899 0,1.52132 2.0918221,16.16408 4.5639759,32.51832 7.6066253,51.34473 20.5378893,83.48272 42.2167733,106.68293 19.777227,20.91822 46.970911,35.18064 74.544934,38.79379 l 9.50828,1.33116 V 767.956 c 0,24.9117 0.5705,27.19369 6.27547,29.28551 8.55745,3.23282 14.45259,-7.98696 17.49524,-31.94783 2.28199,-19.01656 1.90165,-18.44607 15.02308,-17.30507 58.95136,5.70497 139.20126,8.36729 240.74979,8.36729 80.8204,-0.19017 166.20477,-3.23282 203.47724,-7.2263 8.93779,-0.95083 22.62971,-2.28199 30.4265,-2.85248 42.02661,-3.23282 69.03013,-11.98044 91.65984,-29.85601 8.74762,-6.84596 23.96088,-27.38385 31.5675,-42.5971 19.96739,-39.93479 27.95435,-108.77475 27.95435,-244.17269 0,-125.129 -7.79679,-189.59515 -28.52485,-233.14308 -14.45258,-30.23634 -40.50528,-50.58407 -76.06625,-59.52185 -18.25591,-4.37381 -49.25291,-9.12795 -70.36129,-10.45911 -17.87557,-1.33116 -266.80248,-4.75414 -267.7533,-3.80331 z m 185.03124,35.75114 c 28.71502,0.76066 57.43003,1.71149 63.70549,2.09182 6.27547,0.5705 19.58707,1.33116 29.47568,1.90166 52.48572,3.04265 83.67288,16.16408 100.40746,42.40693 11.21977,17.30508 19.39689,46.21026 22.05921,78.34825 0.5705,6.84597 2.47216,25.67236 3.99348,41.83645 4.37381,47.73157 5.51481,108.01408 2.85249,161.64079 -1.33116,26.62319 -2.47216,49.8234 -2.47216,51.34473 0.19017,8.74762 -7.41646,73.5941 -9.69844,83.86305 -9.88862,42.5971 -24.34121,63.32516 -53.43655,77.01708 -22.62971,10.64928 -53.05622,15.02309 -141.67341,20.15756 -46.78074,2.66232 -235.23497,3.42298 -281.44522,1.14099 -39.36429,-2.09182 -97.74515,-5.70497 -98.50581,-6.27546 -1.141,-0.95083 7.03612,-15.78375 9.50828,-17.30508 1.52132,-0.95082 1.71149,-0.38033 0.95083,1.71149 -2.09183,5.70497 -0.19017,3.61315 7.2263,-7.79679 10.45911,-15.59358 21.10838,-25.29203 38.22329,-34.61014 19.3969,-10.45911 21.67889,-12.55094 21.67889,-19.9674 0,-9.50828 -5.32464,-12.93126 -18.63624,-11.98043 -21.48872,1.52132 -45.06926,18.44607 -60.47268,43.35776 -3.80331,6.27547 -7.79679,11.40994 -8.74762,11.40994 -3.04265,0 2.85249,-62.56449 7.22629,-74.54493 1.52133,-4.18364 2.66232,-9.69845 2.66232,-11.98043 0,-2.28199 1.33116,-5.51481 3.04265,-6.84597 13.50177,-11.21977 46.0201,-68.26946 54.19722,-95.46315 6.27547,-20.34772 6.0853,-74.54493 -0.19017,-82.15156 -8.74762,-10.45911 -33.27898,6.6558 -54.57754,38.03313 -24.9117,36.89213 -31.37733,61.61367 -30.80684,116.95187 0.5705,30.61667 -0.57049,46.59058 -3.04265,49.06274 -0.38033,0.38033 -2.09182,-1.90166 -3.80331,-5.13448 -5.32464,-10.64927 -27.57402,-32.32815 -41.83644,-40.88561 -15.213255,-9.31812 -23.010047,-10.07878 -30.236341,-3.04265 -8.557454,8.36729 -1.140994,22.62971 21.108386,39.55445 29.475675,22.43955 42.026605,38.98396 46.210255,61.04318 1.90166,10.45911 0.76066,41.83644 -1.71149,44.30859 -1.90166,2.09182 -21.48872,-3.23281 -32.89866,-9.12795 C 90.710921,692.07991 71.12386,673.44368 64.277897,660.89274 53.058124,641.11552 46.402326,616.01365 43.930173,584.63632 43.16951,576.26903 42.408848,569.04274 42.028517,568.47224 36.513713,559.15412 34.04156,356.43755 38.985866,314.60111 c 1.140994,-9.50829 2.472154,-22.24939 3.042651,-28.52485 2.091822,-21.48872 11.980435,-58.00052 19.396895,-71.31212 12.741098,-22.62971 38.223295,-43.1676 57.810358,-46.40042 3.61315,-0.5705 9.12795,-1.52132 12.1706,-2.09182 46.97092,-8.17712 242.65137,-11.79027 411.7087,-7.79679 z M 215.45959,458.5565 c -0.57049,10.07878 -2.66232,23.01004 -4.9443,30.04617 -4.56398,13.88209 -21.29856,49.44307 -23.39039,49.44307 -0.76066,0 -0.76066,-3.04265 -0.19016,-6.6558 1.71149,-10.26895 -4.37381,-8.93779 -9.12795,2.09182 -2.28199,4.75414 -4.37381,8.36729 -4.75414,7.79679 -1.141,-0.95083 2.85248,-29.28551 5.13447,-37.46263 3.42298,-11.98043 7.98696,-21.67888 15.78376,-33.27899 8.93778,-13.69192 20.53789,-29.47567 21.67888,-29.47567 0.5705,0 0.38033,7.98696 -0.19017,17.49524 z"
     id="path1077"
     style="fill:#000000;stroke:none;stroke-width:0.190166" />
  <path
     d="m 310.16208,305.47315 -4.75414,7.2263 v 126.84048 c 0,76.44659 0.76067,128.74214 1.90166,131.59463 3.23282,8.36729 8.74762,12.55093 17.30507,12.55093 6.6558,0 11.79027,-2.66232 35.75114,-18.44607 15.21326,-10.07877 44.49884,-28.90517 64.84656,-42.0266 67.12848,-42.78727 96.03365,-61.80384 101.16813,-66.55798 2.85248,-2.66232 6.27546,-7.60662 7.41646,-11.21977 1.71149,-5.32464 1.33116,-7.60663 -1.90166,-14.45259 -3.23282,-6.46563 -7.41646,-10.07878 -21.67888,-19.01656 -9.50829,-6.27547 -23.01005,-14.64276 -29.85601,-19.01657 -6.84596,-4.37381 -24.3412,-15.21325 -38.98396,-24.3412 -52.29555,-32.70849 -77.77782,-48.49224 -94.70256,-59.33168 -21.86905,-13.69193 -29.09535,-14.45259 -36.51181,-3.80332 z m 69.7908,67.31864 c 19.01664,11.60011 46.02016,28.14452 59.52192,36.89214 13.69192,8.55745 30.04617,18.8264 36.5118,22.81987 l 11.79027,7.03613 -22.24938,14.64276 c -12.1706,8.17712 -41.45611,27.00352 -65.03665,41.83644 -23.58062,15.02309 -46.40049,29.66584 -50.7743,32.70849 l -8.17712,5.32464 -0.38034,-92.04017 c -0.38033,-69.2203 0,-92.04017 1.71149,-91.46968 1.141,0.5705 17.87558,10.45911 37.08231,22.24938 z"
     id="path1079"
     style="fill:#000000;stroke:none;stroke-width:0.190166" />
</svg>
